G04 Layer_Color=16711935*
%FSLAX44Y44*%
%MOMM*%
G71*
G01*
G75*
%ADD52C,0.1270*%
%ADD98C,0.1000*%
D52*
X474290Y-52007D02*
G03*
X474290Y-52007I-11000J0D01*
G01*
D02*
G03*
X474290Y-52007I-11000J0D01*
G01*
X-383682Y-248131D02*
G03*
X-383682Y-248131I-11000J0D01*
G01*
D02*
G03*
X-383682Y-248131I-11000J0D01*
G01*
X-333561Y-274922D02*
G03*
X-333561Y-274922I-11000J0D01*
G01*
D02*
G03*
X-333561Y-274922I-11000J0D01*
G01*
X-318567Y-329739D02*
G03*
X-318567Y-329739I-11000J0D01*
G01*
D02*
G03*
X-318567Y-329739I-11000J0D01*
G01*
X-263741Y-344705D02*
G03*
X-263741Y-344705I-11000J0D01*
G01*
D02*
G03*
X-263741Y-344705I-11000J0D01*
G01*
X-236924Y-394812D02*
G03*
X-236924Y-394812I-11000J0D01*
G01*
D02*
G03*
X-236924Y-394812I-11000J0D01*
G01*
X-180143Y-397201D02*
G03*
X-180143Y-397201I-11000J0D01*
G01*
D02*
G03*
X-180143Y-397201I-11000J0D01*
G01*
X-142848Y-440083D02*
G03*
X-142848Y-440083I-11000J0D01*
G01*
D02*
G03*
X-142848Y-440083I-11000J0D01*
G01*
X-429067Y153894D02*
G03*
X-429067Y153894I-11000J0D01*
G01*
D02*
G03*
X-429067Y153894I-11000J0D01*
G01*
X-418767Y98004D02*
G03*
X-418767Y98004I-11000J0D01*
G01*
D02*
G03*
X-418767Y98004I-11000J0D01*
G01*
X-452279Y52104D02*
G03*
X-452279Y52104I-11000J0D01*
G01*
D02*
G03*
X-452279Y52104I-11000J0D01*
G01*
X-429800Y-92D02*
G03*
X-429800Y-92I-11000J0D01*
G01*
D02*
G03*
X-429800Y-92I-11000J0D01*
G01*
X-452257Y-52298D02*
G03*
X-452257Y-52298I-11000J0D01*
G01*
D02*
G03*
X-452257Y-52298I-11000J0D01*
G01*
X-418726Y-98184D02*
G03*
X-418726Y-98184I-11000J0D01*
G01*
D02*
G03*
X-418726Y-98184I-11000J0D01*
G01*
X-429003Y-154078D02*
G03*
X-429003Y-154078I-11000J0D01*
G01*
D02*
G03*
X-429003Y-154078I-11000J0D01*
G01*
X-143032Y440019D02*
G03*
X-143032Y440019I-11000J0D01*
G01*
D02*
G03*
X-143032Y440019I-11000J0D01*
G01*
X-180309Y397121D02*
G03*
X-180309Y397121I-11000J0D01*
G01*
D02*
G03*
X-180309Y397121I-11000J0D01*
G01*
X-242236Y385394D02*
G03*
X-242236Y385394I-5854J9313D01*
G01*
D02*
G03*
X-242236Y385394I-5854J9313D01*
G01*
X-263886Y344590D02*
G03*
X-263886Y344590I-11000J0D01*
G01*
D02*
G03*
X-263886Y344590I-11000J0D01*
G01*
X-318705Y329601D02*
G03*
X-318705Y329601I-11000J0D01*
G01*
D02*
G03*
X-318705Y329601I-11000J0D01*
G01*
X-333676Y274778D02*
G03*
X-333676Y274778I-11000J0D01*
G01*
D02*
G03*
X-333676Y274778I-11000J0D01*
G01*
X-383786Y247965D02*
G03*
X-383786Y247965I-11000J0D01*
G01*
D02*
G03*
X-383786Y247965I-11000J0D01*
G01*
X474268Y52201D02*
G03*
X474268Y52201I-11000J0D01*
G01*
D02*
G03*
X474268Y52201I-11000J0D01*
G01*
X440747Y98094D02*
G03*
X440747Y98094I-11000J0D01*
G01*
D02*
G03*
X440747Y98094I-11000J0D01*
G01*
X451035Y153986D02*
G03*
X451035Y153986I-11000J0D01*
G01*
D02*
G03*
X451035Y153986I-11000J0D01*
G01*
X408141Y191268D02*
G03*
X408141Y191268I-11000J0D01*
G01*
D02*
G03*
X408141Y191268I-11000J0D01*
G01*
X405734Y248048D02*
G03*
X405734Y248048I-11000J0D01*
G01*
D02*
G03*
X405734Y248048I-11000J0D01*
G01*
X355619Y274850D02*
G03*
X355619Y274850I-11000J0D01*
G01*
D02*
G03*
X355619Y274850I-11000J0D01*
G01*
X340636Y329670D02*
G03*
X340636Y329670I-11000J0D01*
G01*
D02*
G03*
X340636Y329670I-11000J0D01*
G01*
X-41056Y-463285D02*
G03*
X-41056Y-463285I-11000J0D01*
G01*
D02*
G03*
X-41056Y-463285I-11000J0D01*
G01*
X11138Y-440800D02*
G03*
X11138Y-440800I-11000J0D01*
G01*
D02*
G03*
X11138Y-440800I-11000J0D01*
G01*
X63347Y-463252D02*
G03*
X63347Y-463252I-11000J0D01*
G01*
D02*
G03*
X63347Y-463252I-11000J0D01*
G01*
X109229Y-429716D02*
G03*
X109229Y-429716I-11000J0D01*
G01*
D02*
G03*
X109229Y-429716I-11000J0D01*
G01*
X165124Y-439987D02*
G03*
X165124Y-439987I-11000J0D01*
G01*
D02*
G03*
X165124Y-439987I-11000J0D01*
G01*
X196169Y-406990D02*
G03*
X196169Y-406990I-4776J9909D01*
G01*
D02*
G03*
X196169Y-406990I-4776J9909D01*
G01*
X259172Y-394656D02*
G03*
X259172Y-394656I-11000J0D01*
G01*
D02*
G03*
X259172Y-394656I-11000J0D01*
G01*
X259007Y394759D02*
G03*
X259007Y394759I-11000J0D01*
G01*
D02*
G03*
X259007Y394759I-11000J0D01*
G01*
X202226Y397161D02*
G03*
X202226Y397161I-11000J0D01*
G01*
D02*
G03*
X202226Y397161I-11000J0D01*
G01*
X164940Y440051D02*
G03*
X164940Y440051I-11000J0D01*
G01*
D02*
G03*
X164940Y440051I-11000J0D01*
G01*
X109049Y429757D02*
G03*
X109049Y429757I-11000J0D01*
G01*
D02*
G03*
X109049Y429757I-11000J0D01*
G01*
X63153Y463274D02*
G03*
X63153Y463274I-11000J0D01*
G01*
D02*
G03*
X63153Y463274I-11000J0D01*
G01*
X10954Y440800D02*
G03*
X10954Y440800I-11000J0D01*
G01*
D02*
G03*
X10954Y440800I-11000J0D01*
G01*
X-41250Y463263D02*
G03*
X-41250Y463263I-11000J0D01*
G01*
D02*
G03*
X-41250Y463263I-11000J0D01*
G01*
X340774Y-329532D02*
G03*
X340774Y-329532I-11000J0D01*
G01*
D02*
G03*
X340774Y-329532I-11000J0D01*
G01*
X355734Y-274705D02*
G03*
X355734Y-274705I-11000J0D01*
G01*
D02*
G03*
X355734Y-274705I-11000J0D01*
G01*
X405837Y-247883D02*
G03*
X405837Y-247883I-11000J0D01*
G01*
D02*
G03*
X405837Y-247883I-11000J0D01*
G01*
X408222Y-191101D02*
G03*
X408222Y-191101I-11000J0D01*
G01*
D02*
G03*
X408222Y-191101I-11000J0D01*
G01*
X451099Y-153802D02*
G03*
X451099Y-153802I-11000J0D01*
G01*
D02*
G03*
X451099Y-153802I-11000J0D01*
G01*
X440788Y-97914D02*
G03*
X440788Y-97914I-11000J0D01*
G01*
D02*
G03*
X440788Y-97914I-11000J0D01*
G01*
X444338Y-63968D02*
X447461Y-36142D01*
X444338Y-63968D02*
X479119Y-67872D01*
X482243Y-40047D01*
X447461Y-36142D02*
X482243Y-40047D01*
X473362Y-66821D02*
X479442Y-61969D01*
X444338Y-63968D02*
X447461Y-36142D01*
X444338Y-63968D02*
X479119Y-67872D01*
X482243Y-40047D01*
X447461Y-36142D02*
X482243Y-40047D01*
X473362Y-66821D02*
X479442Y-61969D01*
X-387318Y-226964D02*
X-372415Y-250669D01*
X-416948Y-245593D02*
X-387318Y-226964D01*
X-416948Y-245593D02*
X-402046Y-269297D01*
X-372415Y-250669D01*
X-413521Y-250409D02*
X-411792Y-242826D01*
X-387318Y-226964D02*
X-372415Y-250669D01*
X-416948Y-245593D02*
X-387318Y-226964D01*
X-416948Y-245593D02*
X-402046Y-269297D01*
X-372415Y-250669D01*
X-413521Y-250409D02*
X-411792Y-242826D01*
X-366972Y-274893D02*
X-349509Y-296780D01*
X-322150Y-274951D01*
X-339614Y-253064D02*
X-322150Y-274951D01*
X-366972Y-274893D02*
X-339614Y-253064D01*
X-326965Y-278278D02*
X-326096Y-270548D01*
X-366972Y-274893D02*
X-349509Y-296780D01*
X-322150Y-274951D01*
X-339614Y-253064D02*
X-322150Y-274951D01*
X-366972Y-274893D02*
X-339614Y-253064D01*
X-326965Y-278278D02*
X-326096Y-270548D01*
X-327098Y-307465D02*
X-307294Y-327259D01*
X-351840Y-332220D02*
X-327098Y-307465D01*
X-351840Y-332220D02*
X-332036Y-352014D01*
X-307294Y-327259D01*
X-347429Y-328375D02*
X-347427Y-336153D01*
X-327098Y-307465D02*
X-307294Y-327259D01*
X-351840Y-332220D02*
X-327098Y-307465D01*
X-351840Y-332220D02*
X-332036Y-352014D01*
X-307294Y-327259D01*
X-347429Y-328375D02*
X-347427Y-336153D01*
X-296597Y-349664D02*
X-274701Y-367116D01*
X-252886Y-339746D01*
X-274782Y-322295D02*
X-252886Y-339746D01*
X-296597Y-349664D02*
X-274782Y-322295D01*
X-257712Y-336332D02*
X-256839Y-344061D01*
X-296597Y-349664D02*
X-274701Y-367116D01*
X-252886Y-339746D01*
X-274782Y-322295D02*
X-252886Y-339746D01*
X-296597Y-349664D02*
X-274782Y-322295D01*
X-257712Y-336332D02*
X-256839Y-344061D01*
X-250474Y-372546D02*
X-226761Y-387436D01*
X-269087Y-402187D02*
X-250474Y-372546D01*
X-269087Y-402187D02*
X-245374Y-417077D01*
X-226761Y-387436D01*
X-265642Y-397456D02*
X-263909Y-405039D01*
X-250474Y-372546D02*
X-226761Y-387436D01*
X-269087Y-402187D02*
X-250474Y-372546D01*
X-269087Y-402187D02*
X-245374Y-417077D01*
X-226761Y-387436D01*
X-265642Y-397456D02*
X-263909Y-405039D01*
X-211347Y-406900D02*
X-186116Y-419041D01*
X-170939Y-387503D01*
X-196170Y-375362D02*
X-170939Y-387503D01*
X-211347Y-406900D02*
X-196170Y-375362D01*
X-176404Y-385248D02*
X-173833Y-392589D01*
X-211347Y-406900D02*
X-186116Y-419041D01*
X-170939Y-387503D01*
X-196170Y-375362D02*
X-170939Y-387503D01*
X-211347Y-406900D02*
X-196170Y-375362D01*
X-176404Y-385248D02*
X-173833Y-392589D01*
X-161288Y-418944D02*
X-134857Y-428184D01*
X-172838Y-451983D02*
X-161288Y-418944D01*
X-172838Y-451983D02*
X-146407Y-461223D01*
X-134857Y-428184D01*
X-170532Y-446605D02*
X-167156Y-453611D01*
X-161288Y-418944D02*
X-134857Y-428184D01*
X-172838Y-451983D02*
X-161288Y-418944D01*
X-172838Y-451983D02*
X-146407Y-461223D01*
X-134857Y-428184D01*
X-170532Y-446605D02*
X-167156Y-453611D01*
X-428170Y134902D02*
X-418927Y161332D01*
X-451965Y172886D02*
X-418927Y161332D01*
X-461208Y146455D02*
X-451965Y172886D01*
X-461208Y146455D02*
X-428170Y134902D01*
X-453594Y167203D02*
X-446587Y170579D01*
X-428170Y134902D02*
X-418927Y161332D01*
X-451965Y172886D02*
X-418927Y161332D01*
X-461208Y146455D02*
X-451965Y172886D01*
X-461208Y146455D02*
X-428170Y134902D01*
X-453594Y167203D02*
X-446587Y170579D01*
X-449942Y88245D02*
X-443717Y115544D01*
X-449942Y88245D02*
X-415818Y80463D01*
X-409593Y107762D01*
X-443717Y115544D02*
X-409593Y107762D01*
X-421420Y82153D02*
X-414835Y86293D01*
X-449942Y88245D02*
X-443717Y115544D01*
X-449942Y88245D02*
X-415818Y80463D01*
X-409593Y107762D01*
X-443717Y115544D02*
X-409593Y107762D01*
X-421420Y82153D02*
X-414835Y86293D01*
X-447453Y36236D02*
X-444324Y64061D01*
X-479105Y67972D02*
X-444324Y64061D01*
X-482234Y40148D02*
X-479105Y67972D01*
X-482234Y40148D02*
X-447453Y36236D01*
X-479429Y62070D02*
X-473348Y66920D01*
X-447453Y36236D02*
X-444324Y64061D01*
X-479105Y67972D02*
X-444324Y64061D01*
X-482234Y40148D02*
X-479105Y67972D01*
X-482234Y40148D02*
X-447453Y36236D01*
X-479429Y62070D02*
X-473348Y66920D01*
X-458303Y13904D02*
X-458297Y-14096D01*
X-423297Y-14089D01*
X-423303Y13911D02*
X-423297Y-14089D01*
X-458303Y13904D02*
X-423303Y13911D01*
X-429135Y-13688D02*
X-423636Y-8187D01*
X-458303Y13904D02*
X-458297Y-14096D01*
X-423297Y-14089D01*
X-423303Y13911D02*
X-423297Y-14089D01*
X-458303Y13904D02*
X-423303Y13911D01*
X-429135Y-13688D02*
X-423636Y-8187D01*
X-447438Y-36423D02*
X-444297Y-64247D01*
X-482217Y-40350D02*
X-447438Y-36423D01*
X-482217Y-40350D02*
X-479076Y-68173D01*
X-444297Y-64247D01*
X-481219Y-46177D02*
X-476371Y-40094D01*
X-447438Y-36423D02*
X-444297Y-64247D01*
X-482217Y-40350D02*
X-447438Y-36423D01*
X-482217Y-40350D02*
X-479076Y-68173D01*
X-444297Y-64247D01*
X-481219Y-46177D02*
X-476371Y-40094D01*
X-449905Y-88433D02*
X-443668Y-115730D01*
X-409548Y-107934D01*
X-415784Y-80638D02*
X-409548Y-107934D01*
X-449905Y-88433D02*
X-415784Y-80638D01*
X-415328Y-108842D02*
X-411192Y-102256D01*
X-449905Y-88433D02*
X-443668Y-115730D01*
X-409548Y-107934D01*
X-415784Y-80638D02*
X-409548Y-107934D01*
X-449905Y-88433D02*
X-415784Y-80638D01*
X-415328Y-108842D02*
X-411192Y-102256D01*
X-428113Y-135081D02*
X-418859Y-161508D01*
X-461146Y-146649D02*
X-428113Y-135081D01*
X-461146Y-146649D02*
X-451892Y-173075D01*
X-418859Y-161508D01*
X-458877Y-152107D02*
X-455504Y-145098D01*
X-428113Y-135081D02*
X-418859Y-161508D01*
X-461146Y-146649D02*
X-428113Y-135081D01*
X-461146Y-146649D02*
X-451892Y-173075D01*
X-418859Y-161508D01*
X-458877Y-152107D02*
X-455504Y-145098D01*
X-161464Y418876D02*
X-135036Y428127D01*
X-146600Y461162D02*
X-135036Y428127D01*
X-173028Y451910D02*
X-146600Y461162D01*
X-173028Y451910D02*
X-161464Y418876D01*
X-152059Y458893D02*
X-145051Y455519D01*
X-161464Y418876D02*
X-135036Y428127D01*
X-146600Y461162D02*
X-135036Y428127D01*
X-173028Y451910D02*
X-146600Y461162D01*
X-173028Y451910D02*
X-161464Y418876D01*
X-152059Y458893D02*
X-145051Y455519D01*
X-211517Y406811D02*
X-186292Y418963D01*
X-211517Y406811D02*
X-196327Y375279D01*
X-171102Y387431D01*
X-186292Y418963D02*
X-171102Y387431D01*
X-198499Y380713D02*
X-191157Y378145D01*
X-211517Y406811D02*
X-186292Y418963D01*
X-211517Y406811D02*
X-196327Y375279D01*
X-171102Y387431D01*
X-186292Y418963D02*
X-171102Y387431D01*
X-198499Y380713D02*
X-191157Y378145D01*
X-250630Y372441D02*
X-226924Y387341D01*
X-245549Y416974D02*
X-226924Y387341D01*
X-269255Y402074D02*
X-245549Y416974D01*
X-269255Y402074D02*
X-250630Y372441D01*
X-250366Y413547D02*
X-242783Y411817D01*
X-250630Y372441D02*
X-226924Y387341D01*
X-245549Y416974D02*
X-226924Y387341D01*
X-269255Y402074D02*
X-245549Y416974D01*
X-269255Y402074D02*
X-250630Y372441D01*
X-250366Y413547D02*
X-242783Y411817D01*
X-296743Y349540D02*
X-274855Y367001D01*
X-296743Y349540D02*
X-274917Y322179D01*
X-253028Y339640D01*
X-274855Y367001D02*
X-253028Y339640D01*
X-278243Y326994D02*
X-270514Y326124D01*
X-296743Y349540D02*
X-274855Y367001D01*
X-296743Y349540D02*
X-274917Y322179D01*
X-253028Y339640D01*
X-274855Y367001D02*
X-253028Y339640D01*
X-278243Y326994D02*
X-270514Y326124D01*
X-327227Y307328D02*
X-307431Y327130D01*
X-332183Y351875D02*
X-307431Y327130D01*
X-351979Y332073D02*
X-332183Y351875D01*
X-351979Y332073D02*
X-327227Y307328D01*
X-336117Y347462D02*
X-328339Y347463D01*
X-327227Y307328D02*
X-307431Y327130D01*
X-332183Y351875D02*
X-307431Y327130D01*
X-351979Y332073D02*
X-332183Y351875D01*
X-351979Y332073D02*
X-327227Y307328D01*
X-336117Y347462D02*
X-328339Y347463D01*
X-367088Y274739D02*
X-349633Y296633D01*
X-367088Y274739D02*
X-339720Y252922D01*
X-322266Y274816D01*
X-349633Y296633D02*
X-322266Y274816D01*
X-344034Y256875D02*
X-336305Y257747D01*
X-367088Y274739D02*
X-349633Y296633D01*
X-367088Y274739D02*
X-339720Y252922D01*
X-322266Y274816D01*
X-349633Y296633D02*
X-322266Y274816D01*
X-344034Y256875D02*
X-336305Y257747D01*
X-387413Y226802D02*
X-372520Y250513D01*
X-402158Y269129D02*
X-372520Y250513D01*
X-417051Y245418D02*
X-402158Y269129D01*
X-417051Y245418D02*
X-387413Y226802D01*
X-405011Y263951D02*
X-397429Y265683D01*
X-387413Y226802D02*
X-372520Y250513D01*
X-402158Y269129D02*
X-372520Y250513D01*
X-417051Y245418D02*
X-402158Y269129D01*
X-417051Y245418D02*
X-387413Y226802D01*
X-405011Y263951D02*
X-397429Y265683D01*
X444311Y64154D02*
X447446Y36330D01*
X482226Y40249D01*
X479091Y68073D02*
X482226Y40249D01*
X444311Y64154D02*
X479091Y68073D01*
X476380Y39995D02*
X481229Y46076D01*
X444311Y64154D02*
X447446Y36330D01*
X482226Y40249D01*
X479091Y68073D02*
X482226Y40249D01*
X444311Y64154D02*
X479091Y68073D01*
X476380Y39995D02*
X481229Y46076D01*
X443692Y115637D02*
X449923Y88339D01*
X409570Y107848D02*
X443692Y115637D01*
X409570Y107848D02*
X415801Y80550D01*
X449923Y88339D01*
X411213Y102169D02*
X415351Y108756D01*
X443692Y115637D02*
X449923Y88339D01*
X409570Y107848D02*
X443692Y115637D01*
X409570Y107848D02*
X415801Y80550D01*
X449923Y88339D01*
X411213Y102169D02*
X415351Y108756D01*
X418893Y161420D02*
X428141Y134992D01*
X461177Y146552D01*
X451929Y172980D02*
X461177Y146552D01*
X418893Y161420D02*
X451929Y172980D01*
X455534Y145003D02*
X458909Y152011D01*
X418893Y161420D02*
X428141Y134992D01*
X461177Y146552D01*
X451929Y172980D02*
X461177Y146552D01*
X418893Y161420D02*
X451929Y172980D01*
X455534Y145003D02*
X458909Y152011D01*
X406833Y211475D02*
X418983Y186248D01*
X375300Y196288D02*
X406833Y211475D01*
X375300Y196288D02*
X387449Y171061D01*
X418983Y186248D01*
X378165Y191117D02*
X380734Y198459D01*
X406833Y211475D02*
X418983Y186248D01*
X375300Y196288D02*
X406833Y211475D01*
X375300Y196288D02*
X387449Y171061D01*
X418983Y186248D01*
X378165Y191117D02*
X380734Y198459D01*
X372467Y250591D02*
X387365Y226883D01*
X417000Y245505D01*
X402102Y269213D02*
X417000Y245505D01*
X372467Y250591D02*
X402102Y269213D01*
X411843Y242740D02*
X413573Y250323D01*
X372467Y250591D02*
X387365Y226883D01*
X417000Y245505D01*
X402102Y269213D02*
X417000Y245505D01*
X372467Y250591D02*
X402102Y269213D01*
X411843Y242740D02*
X413573Y250323D01*
X349571Y296707D02*
X367030Y274816D01*
X322208Y274883D02*
X349571Y296707D01*
X322208Y274883D02*
X339667Y252993D01*
X367030Y274816D01*
X326152Y270480D02*
X327023Y278209D01*
X349571Y296707D02*
X367030Y274816D01*
X322208Y274883D02*
X349571Y296707D01*
X322208Y274883D02*
X339667Y252993D01*
X367030Y274816D01*
X326152Y270480D02*
X327023Y278209D01*
X307362Y327194D02*
X327162Y307396D01*
X351910Y332146D01*
X332110Y351944D02*
X351910Y332146D01*
X307362Y327194D02*
X332110Y351944D01*
X347497Y336081D02*
X347497Y328302D01*
X307362Y327194D02*
X327162Y307396D01*
X351910Y332146D01*
X332110Y351944D02*
X351910Y332146D01*
X307362Y327194D02*
X332110Y351944D01*
X347497Y336081D02*
X347497Y328302D01*
X-64014Y-444331D02*
X-36189Y-447457D01*
X-67922Y-479112D02*
X-64014Y-444331D01*
X-67922Y-479112D02*
X-40097Y-482238D01*
X-36189Y-447457D01*
X-66871Y-473355D02*
X-62019Y-479435D01*
X-64014Y-444331D02*
X-36189Y-447457D01*
X-67922Y-479112D02*
X-64014Y-444331D01*
X-67922Y-479112D02*
X-40097Y-482238D01*
X-36189Y-447457D01*
X-66871Y-473355D02*
X-62019Y-479435D01*
X-13856Y-458304D02*
X14144Y-458296D01*
X14133Y-423296D02*
X14144Y-458296D01*
X-13867Y-423304D02*
X14133Y-423296D01*
X-13867Y-423304D02*
X-13856Y-458304D01*
X8231Y-423635D02*
X13733Y-429134D01*
X-13856Y-458304D02*
X14144Y-458296D01*
X14133Y-423296D02*
X14144Y-458296D01*
X-13867Y-423304D02*
X14133Y-423296D01*
X-13867Y-423304D02*
X-13856Y-458304D01*
X8231Y-423635D02*
X13733Y-429134D01*
X36470Y-447435D02*
X64293Y-444291D01*
X36470Y-447435D02*
X40400Y-482213D01*
X68223Y-479069D01*
X64293Y-444291D02*
X68223Y-479069D01*
X40144Y-476367D02*
X46227Y-481215D01*
X36470Y-447435D02*
X64293Y-444291D01*
X36470Y-447435D02*
X40400Y-482213D01*
X68223Y-479069D01*
X64293Y-444291D02*
X68223Y-479069D01*
X40144Y-476367D02*
X46227Y-481215D01*
X88480Y-449896D02*
X115776Y-443656D01*
X107977Y-409536D02*
X115776Y-443656D01*
X80681Y-415776D02*
X107977Y-409536D01*
X80681Y-415776D02*
X88480Y-449896D01*
X102299Y-411181D02*
X108886Y-415317D01*
X88480Y-449896D02*
X115776Y-443656D01*
X107977Y-409536D02*
X115776Y-443656D01*
X80681Y-415776D02*
X107977Y-409536D01*
X80681Y-415776D02*
X88480Y-449896D01*
X102299Y-411181D02*
X108886Y-415317D01*
X135126Y-428099D02*
X161552Y-418842D01*
X135126Y-428099D02*
X146697Y-461131D01*
X173122Y-451874D01*
X161552Y-418842D02*
X173122Y-451874D01*
X145146Y-455488D02*
X152155Y-458861D01*
X135126Y-428099D02*
X161552Y-418842D01*
X135126Y-428099D02*
X146697Y-461131D01*
X173122Y-451874D01*
X161552Y-418842D02*
X173122Y-451874D01*
X145146Y-455488D02*
X152155Y-458861D01*
X186380Y-418924D02*
X211602Y-406767D01*
X196406Y-375238D02*
X211602Y-406767D01*
X171183Y-387396D02*
X196406Y-375238D01*
X171183Y-387396D02*
X186380Y-418924D01*
X191236Y-378105D02*
X198578Y-380672D01*
X186380Y-418924D02*
X211602Y-406767D01*
X196406Y-375238D02*
X211602Y-406767D01*
X171183Y-387396D02*
X196406Y-375238D01*
X171183Y-387396D02*
X186380Y-418924D01*
X191236Y-378105D02*
X198578Y-380672D01*
X227005Y-387294D02*
X250708Y-372389D01*
X227005Y-387294D02*
X245636Y-416923D01*
X269339Y-402017D01*
X250708Y-372389D02*
X269339Y-402017D01*
X242869Y-411767D02*
X250453Y-413495D01*
X227005Y-387294D02*
X250708Y-372389D01*
X227005Y-387294D02*
X245636Y-416923D01*
X269339Y-402017D01*
X250708Y-372389D02*
X269339Y-402017D01*
X242869Y-411767D02*
X250453Y-413495D01*
X226843Y387389D02*
X250552Y372494D01*
X269171Y402130D01*
X245462Y417025D02*
X269171Y402130D01*
X226843Y387389D02*
X245462Y417025D01*
X263994Y404984D02*
X265725Y397401D01*
X226843Y387389D02*
X250552Y372494D01*
X269171Y402130D01*
X245462Y417025D02*
X269171Y402130D01*
X226843Y387389D02*
X245462Y417025D01*
X263994Y404984D02*
X265725Y397401D01*
X186204Y419002D02*
X211432Y406856D01*
X171020Y387467D02*
X186204Y419002D01*
X171020Y387467D02*
X196248Y375320D01*
X211432Y406856D01*
X173915Y392553D02*
X176485Y385211D01*
X186204Y419002D02*
X211432Y406856D01*
X171020Y387467D02*
X186204Y419002D01*
X171020Y387467D02*
X196248Y375320D01*
X211432Y406856D01*
X173915Y392553D02*
X176485Y385211D01*
X134947Y428156D02*
X161376Y418910D01*
X172933Y451947D01*
X146504Y461192D02*
X172933Y451947D01*
X134947Y428156D02*
X146504Y461192D01*
X167251Y453577D02*
X170626Y446569D01*
X134947Y428156D02*
X161376Y418910D01*
X172933Y451947D01*
X146504Y461192D02*
X172933Y451947D01*
X134947Y428156D02*
X146504Y461192D01*
X167251Y453577D02*
X170626Y446569D01*
X88292Y449933D02*
X115590Y443704D01*
X80507Y415810D02*
X88292Y449933D01*
X80507Y415810D02*
X107805Y409581D01*
X115590Y443704D01*
X82197Y421412D02*
X86336Y414826D01*
X88292Y449933D02*
X115590Y443704D01*
X80507Y415810D02*
X88292Y449933D01*
X80507Y415810D02*
X107805Y409581D01*
X115590Y443704D01*
X82197Y421412D02*
X86336Y414826D01*
X36283Y447450D02*
X64107Y444317D01*
X68023Y479098D01*
X40198Y482230D02*
X68023Y479098D01*
X36283Y447450D02*
X40198Y482230D01*
X62120Y479422D02*
X66970Y473341D01*
X36283Y447450D02*
X64107Y444317D01*
X68023Y479098D01*
X40198Y482230D02*
X68023Y479098D01*
X36283Y447450D02*
X40198Y482230D01*
X62120Y479422D02*
X66970Y473341D01*
X-14048Y458298D02*
X13952Y458302D01*
X-14048Y458298D02*
X-14044Y423298D01*
X13956Y423302D01*
X13952Y458302D02*
X13956Y423302D01*
X-13643Y429137D02*
X-8142Y423637D01*
X-14048Y458298D02*
X13952Y458302D01*
X-14048Y458298D02*
X-14044Y423298D01*
X13956Y423302D01*
X13952Y458302D02*
X13956Y423302D01*
X-13643Y429137D02*
X-8142Y423637D01*
X-64200Y444304D02*
X-36377Y447442D01*
X-40299Y482222D02*
X-36377Y447442D01*
X-68123Y479083D02*
X-40299Y482222D01*
X-68123Y479083D02*
X-64200Y444304D01*
X-46126Y481224D02*
X-40044Y476375D01*
X-64200Y444304D02*
X-36377Y447442D01*
X-40299Y482222D02*
X-36377Y447442D01*
X-68123Y479083D02*
X-40299Y482222D01*
X-68123Y479083D02*
X-64200Y444304D01*
X-46126Y481224D02*
X-40044Y476375D01*
X307499Y-327066D02*
X327291Y-307259D01*
X307499Y-327066D02*
X332257Y-351805D01*
X352049Y-331999D01*
X327291Y-307259D02*
X352049Y-331999D01*
X328412Y-347394D02*
X336190Y-347392D01*
X307499Y-327066D02*
X327291Y-307259D01*
X307499Y-327066D02*
X332257Y-351805D01*
X352049Y-331999D01*
X327291Y-307259D02*
X352049Y-331999D01*
X328412Y-347394D02*
X336190Y-347392D01*
X349695Y-296560D02*
X367145Y-274662D01*
X339773Y-252850D02*
X367145Y-274662D01*
X322323Y-274748D02*
X339773Y-252850D01*
X322323Y-274748D02*
X349695Y-296560D01*
X336359Y-257677D02*
X344088Y-256803D01*
X349695Y-296560D02*
X367145Y-274662D01*
X339773Y-252850D02*
X367145Y-274662D01*
X322323Y-274748D02*
X339773Y-252850D01*
X322323Y-274748D02*
X349695Y-296560D01*
X336359Y-257677D02*
X344088Y-256803D01*
X372572Y-250435D02*
X387460Y-226721D01*
X372572Y-250435D02*
X402215Y-269045D01*
X417103Y-245331D01*
X387460Y-226721D02*
X417103Y-245331D01*
X397484Y-265600D02*
X405067Y-263866D01*
X372572Y-250435D02*
X387460Y-226721D01*
X372572Y-250435D02*
X402215Y-269045D01*
X417103Y-245331D01*
X387460Y-226721D02*
X417103Y-245331D01*
X397484Y-265600D02*
X405067Y-263866D01*
X406922Y-211304D02*
X419061Y-186072D01*
X387521Y-170899D02*
X419061Y-186072D01*
X375382Y-196131D02*
X387521Y-170899D01*
X375382Y-196131D02*
X406922Y-211304D01*
X385267Y-176364D02*
X392608Y-173792D01*
X406922Y-211304D02*
X419061Y-186072D01*
X387521Y-170899D02*
X419061Y-186072D01*
X375382Y-196131D02*
X387521Y-170899D01*
X375382Y-196131D02*
X406922Y-211304D01*
X385267Y-176364D02*
X392608Y-173792D01*
X418960Y-161245D02*
X428198Y-134812D01*
X418960Y-161245D02*
X452001Y-172791D01*
X461238Y-146359D01*
X428198Y-134812D02*
X461238Y-146359D01*
X446623Y-170486D02*
X453629Y-167108D01*
X418960Y-161245D02*
X428198Y-134812D01*
X418960Y-161245D02*
X452001Y-172791D01*
X461238Y-146359D01*
X428198Y-134812D02*
X461238Y-146359D01*
X446623Y-170486D02*
X453629Y-167108D01*
X443741Y-115451D02*
X449960Y-88151D01*
X415835Y-80376D02*
X449960Y-88151D01*
X409615Y-107677D02*
X415835Y-80376D01*
X409615Y-107677D02*
X443741Y-115451D01*
X414853Y-86206D02*
X421438Y-82065D01*
X443741Y-115451D02*
X449960Y-88151D01*
X415835Y-80376D02*
X449960Y-88151D01*
X409615Y-107677D02*
X415835Y-80376D01*
X409615Y-107677D02*
X443741Y-115451D01*
X414853Y-86206D02*
X421438Y-82065D01*
D98*
X430570Y-34196D02*
X431691Y-14227D01*
X419211Y-13527D02*
X431691Y-14227D01*
X418090Y-33495D02*
X419211Y-13527D01*
X418090Y-33495D02*
X430570Y-34196D01*
X589997Y-81802D02*
Y76598D01*
Y-81802D02*
X690997D01*
Y76598D01*
X589997D02*
X690997D01*
X559000Y-59500D02*
X559000Y-25500D01*
X541000Y-59500D02*
X541000Y-25500D01*
X559000Y-25500D01*
X541000Y-59500D02*
X559000Y-59500D01*
X542750Y31500D02*
Y53500D01*
X557250Y31500D02*
Y53500D01*
X542750Y31500D02*
X557250D01*
X542750Y53500D02*
X557250D01*
X-129150Y-412165D02*
X-109931Y-417702D01*
X-106471Y-405691D01*
X-125689Y-400154D02*
X-106471Y-405691D01*
X-129150Y-412165D02*
X-125689Y-400154D01*
X-402767Y-156008D02*
X-395114Y-174485D01*
X-383565Y-169702D01*
X-391219Y-151224D02*
X-383565Y-169702D01*
X-402767Y-156008D02*
X-391219Y-151224D01*
X-382884Y200338D02*
X-372848Y217638D01*
X-382884Y200338D02*
X-372073Y194065D01*
X-362036Y211364D01*
X-372848Y217638D02*
X-362036Y211364D01*
X280279Y328639D02*
X295192Y315312D01*
X271949Y319319D02*
X280279Y328639D01*
X271949Y319319D02*
X286862Y305992D01*
X295192Y315312D01*
X241720Y-357954D02*
X258032Y-346381D01*
X250798Y-336186D02*
X258032Y-346381D01*
X234487Y-347760D02*
X250798Y-336186D01*
X234487Y-347760D02*
X241720Y-357954D01*
X-82190Y424034D02*
X-62472Y427384D01*
X-82190Y424034D02*
X-80096Y411711D01*
X-60378Y415061D01*
X-62472Y427384D02*
X-60378Y415061D01*
M02*
