G04 Layer_Color=255*
%FSLAX44Y44*%
%MOMM*%
G71*
G01*
G75*
G04:AMPARAMS|DCode=11|XSize=0.95mm|YSize=1.4mm|CornerRadius=0mm|HoleSize=0mm|Usage=FLASHONLY|Rotation=266.786|XOffset=0mm|YOffset=0mm|HoleType=Round|Shape=Rectangle|*
%AMROTATEDRECTD11*
4,1,4,-0.6723,0.5135,0.7255,0.4350,0.6723,-0.5135,-0.7255,-0.4350,-0.6723,0.5135,0.0*
%
%ADD11ROTATEDRECTD11*%

G04:AMPARAMS|DCode=12|XSize=2.4mm|YSize=1.6mm|CornerRadius=0mm|HoleSize=0mm|Usage=FLASHONLY|Rotation=263.595|XOffset=0mm|YOffset=0mm|HoleType=Round|Shape=Rectangle|*
%AMROTATEDRECTD12*
4,1,4,-0.6611,1.2818,0.9289,1.1033,0.6611,-1.2818,-0.9289,-1.1033,-0.6611,1.2818,0.0*
%
%ADD12ROTATEDRECTD12*%

%ADD13R,1.8000X0.9000*%
%ADD14R,1.4500X1.1500*%
G04:AMPARAMS|DCode=15|XSize=0.95mm|YSize=1.4mm|CornerRadius=0mm|HoleSize=0mm|Usage=FLASHONLY|Rotation=163.929|XOffset=0mm|YOffset=0mm|HoleType=Round|Shape=Rectangle|*
%AMROTATEDRECTD15*
4,1,4,0.6502,0.5412,0.2626,-0.8041,-0.6502,-0.5412,-0.2626,0.8041,0.6502,0.5412,0.0*
%
%ADD15ROTATEDRECTD15*%

G04:AMPARAMS|DCode=16|XSize=0.95mm|YSize=1.4mm|CornerRadius=0mm|HoleSize=0mm|Usage=FLASHONLY|Rotation=112.500|XOffset=0mm|YOffset=0mm|HoleType=Round|Shape=Rectangle|*
%AMROTATEDRECTD16*
4,1,4,0.8285,-0.1710,-0.4649,-0.7067,-0.8285,0.1710,0.4649,0.7067,0.8285,-0.1710,0.0*
%
%ADD16ROTATEDRECTD16*%

G04:AMPARAMS|DCode=17|XSize=0.95mm|YSize=1.4mm|CornerRadius=0mm|HoleSize=0mm|Usage=FLASHONLY|Rotation=59.877|XOffset=0mm|YOffset=0mm|HoleType=Round|Shape=Rectangle|*
%AMROTATEDRECTD17*
4,1,4,0.3671,-0.7621,-0.8438,-0.0595,-0.3671,0.7621,0.8438,0.0595,0.3671,-0.7621,0.0*
%
%ADD17ROTATEDRECTD17*%

G04:AMPARAMS|DCode=18|XSize=2.4mm|YSize=1.6mm|CornerRadius=0mm|HoleSize=0mm|Usage=FLASHONLY|Rotation=122.157|XOffset=0mm|YOffset=0mm|HoleType=Round|Shape=Rectangle|*
%AMROTATEDRECTD18*
4,1,4,1.3160,-0.5901,-0.0386,-1.4417,-1.3160,0.5901,0.0386,1.4417,1.3160,-0.5901,0.0*
%
%ADD18ROTATEDRECTD18*%

G04:AMPARAMS|DCode=19|XSize=2.4mm|YSize=1.6mm|CornerRadius=0mm|HoleSize=0mm|Usage=FLASHONLY|Rotation=308.586|XOffset=0mm|YOffset=0mm|HoleType=Round|Shape=Rectangle|*
%AMROTATEDRECTD19*
4,1,4,-1.3738,0.4391,-0.1231,1.4370,1.3738,-0.4391,0.1231,-1.4370,-1.3738,0.4391,0.0*
%
%ADD19ROTATEDRECTD19*%

G04:AMPARAMS|DCode=20|XSize=2.4mm|YSize=1.6mm|CornerRadius=0mm|HoleSize=0mm|Usage=FLASHONLY|Rotation=135.015|XOffset=0mm|YOffset=0mm|HoleType=Round|Shape=Rectangle|*
%AMROTATEDRECTD20*
4,1,4,1.4143,-0.2825,0.2832,-1.4141,-1.4143,0.2825,-0.2832,1.4141,1.4143,-0.2825,0.0*
%
%ADD20ROTATEDRECTD20*%

G04:AMPARAMS|DCode=21|XSize=2.4mm|YSize=1.6mm|CornerRadius=0mm|HoleSize=0mm|Usage=FLASHONLY|Rotation=321.444|XOffset=0mm|YOffset=0mm|HoleType=Round|Shape=Rectangle|*
%AMROTATEDRECTD21*
4,1,4,-1.4370,0.1223,-0.4398,1.3735,1.4370,-0.1223,0.4398,-1.3735,-1.4370,0.1223,0.0*
%
%ADD21ROTATEDRECTD21*%

G04:AMPARAMS|DCode=22|XSize=2.4mm|YSize=1.6mm|CornerRadius=0mm|HoleSize=0mm|Usage=FLASHONLY|Rotation=147.873|XOffset=0mm|YOffset=0mm|HoleType=Round|Shape=Rectangle|*
%AMROTATEDRECTD22*
4,1,4,1.4417,0.0393,0.5908,-1.3157,-1.4417,-0.0393,-0.5908,1.3157,1.4417,0.0393,0.0*
%
%ADD22ROTATEDRECTD22*%

G04:AMPARAMS|DCode=23|XSize=2.4mm|YSize=1.6mm|CornerRadius=0mm|HoleSize=0mm|Usage=FLASHONLY|Rotation=334.302|XOffset=0mm|YOffset=0mm|HoleType=Round|Shape=Rectangle|*
%AMROTATEDRECTD23*
4,1,4,-1.4282,-0.2005,-0.7344,1.2412,1.4282,0.2005,0.7344,-1.2412,-1.4282,-0.2005,0.0*
%
%ADD23ROTATEDRECTD23*%

G04:AMPARAMS|DCode=24|XSize=2.4mm|YSize=1.6mm|CornerRadius=0mm|HoleSize=0mm|Usage=FLASHONLY|Rotation=160.731|XOffset=0mm|YOffset=0mm|HoleType=Round|Shape=Rectangle|*
%AMROTATEDRECTD24*
4,1,4,1.3968,0.3592,0.8688,-1.1512,-1.3968,-0.3592,-0.8688,1.1512,1.3968,0.3592,0.0*
%
%ADD24ROTATEDRECTD24*%

G04:AMPARAMS|DCode=25|XSize=2.4mm|YSize=1.6mm|CornerRadius=0mm|HoleSize=0mm|Usage=FLASHONLY|Rotation=70.725|XOffset=0mm|YOffset=0mm|HoleType=Round|Shape=Rectangle|*
%AMROTATEDRECTD25*
4,1,4,0.3590,-1.3968,-1.1513,-0.8687,-0.3590,1.3968,1.1513,0.8687,0.3590,-1.3968,0.0*
%
%ADD25ROTATEDRECTD25*%

G04:AMPARAMS|DCode=26|XSize=2.4mm|YSize=1.6mm|CornerRadius=0mm|HoleSize=0mm|Usage=FLASHONLY|Rotation=257.154|XOffset=0mm|YOffset=0mm|HoleType=Round|Shape=Rectangle|*
%AMROTATEDRECTD26*
4,1,4,-0.5132,1.3478,1.0468,0.9921,0.5132,-1.3478,-1.0468,-0.9921,-0.5132,1.3478,0.0*
%
%ADD26ROTATEDRECTD26*%

G04:AMPARAMS|DCode=27|XSize=2.4mm|YSize=1.6mm|CornerRadius=0mm|HoleSize=0mm|Usage=FLASHONLY|Rotation=270.012|XOffset=0mm|YOffset=0mm|HoleType=Round|Shape=Rectangle|*
%AMROTATEDRECTD27*
4,1,4,-0.8003,1.1998,0.7997,1.2002,0.8003,-1.1998,-0.7997,-1.2002,-0.8003,1.1998,0.0*
%
%ADD27ROTATEDRECTD27*%

G04:AMPARAMS|DCode=28|XSize=2.4mm|YSize=1.6mm|CornerRadius=0mm|HoleSize=0mm|Usage=FLASHONLY|Rotation=96.441|XOffset=0mm|YOffset=0mm|HoleType=Round|Shape=Rectangle|*
%AMROTATEDRECTD28*
4,1,4,0.9296,-1.1027,-0.6603,-1.2822,-0.9296,1.1027,0.6603,1.2822,0.9296,-1.1027,0.0*
%
%ADD28ROTATEDRECTD28*%

G04:AMPARAMS|DCode=29|XSize=2.4mm|YSize=1.6mm|CornerRadius=0mm|HoleSize=0mm|Usage=FLASHONLY|Rotation=282.870|XOffset=0mm|YOffset=0mm|HoleType=Round|Shape=Rectangle|*
%AMROTATEDRECTD29*
4,1,4,-1.0472,0.9917,0.5126,1.3480,1.0472,-0.9917,-0.5126,-1.3480,-1.0472,0.9917,0.0*
%
%ADD29ROTATEDRECTD29*%

G04:AMPARAMS|DCode=30|XSize=2.4mm|YSize=1.6mm|CornerRadius=0mm|HoleSize=0mm|Usage=FLASHONLY|Rotation=109.299|XOffset=0mm|YOffset=0mm|HoleType=Round|Shape=Rectangle|*
%AMROTATEDRECTD30*
4,1,4,1.1516,-0.8682,-0.3584,-1.3970,-1.1516,0.8682,0.3584,1.3970,1.1516,-0.8682,0.0*
%
%ADD30ROTATEDRECTD30*%

G04:AMPARAMS|DCode=31|XSize=2.4mm|YSize=1.6mm|CornerRadius=0mm|HoleSize=0mm|Usage=FLASHONLY|Rotation=19.293|XOffset=0mm|YOffset=0mm|HoleType=Round|Shape=Rectangle|*
%AMROTATEDRECTD31*
4,1,4,-0.8683,-1.1516,-1.3969,0.3586,0.8683,1.1516,1.3969,-0.3586,-0.8683,-1.1516,0.0*
%
%ADD31ROTATEDRECTD31*%

G04:AMPARAMS|DCode=32|XSize=2.4mm|YSize=1.6mm|CornerRadius=0mm|HoleSize=0mm|Usage=FLASHONLY|Rotation=205.722|XOffset=0mm|YOffset=0mm|HoleType=Round|Shape=Rectangle|*
%AMROTATEDRECTD32*
4,1,4,0.7339,1.2415,1.4283,-0.1999,-0.7339,-1.2415,-1.4283,0.1999,0.7339,1.2415,0.0*
%
%ADD32ROTATEDRECTD32*%

G04:AMPARAMS|DCode=33|XSize=2.4mm|YSize=1.6mm|CornerRadius=0mm|HoleSize=0mm|Usage=FLASHONLY|Rotation=32.151|XOffset=0mm|YOffset=0mm|HoleType=Round|Shape=Rectangle|*
%AMROTATEDRECTD33*
4,1,4,-0.5903,-1.3159,-1.4417,0.0387,0.5903,1.3159,1.4417,-0.0387,-0.5903,-1.3159,0.0*
%
%ADD33ROTATEDRECTD33*%

G04:AMPARAMS|DCode=34|XSize=2.4mm|YSize=1.6mm|CornerRadius=0mm|HoleSize=0mm|Usage=FLASHONLY|Rotation=218.580|XOffset=0mm|YOffset=0mm|HoleType=Round|Shape=Rectangle|*
%AMROTATEDRECTD34*
4,1,4,0.4392,1.3737,1.4370,0.1229,-0.4392,-1.3737,-1.4370,-0.1229,0.4392,1.3737,0.0*
%
%ADD34ROTATEDRECTD34*%

G04:AMPARAMS|DCode=35|XSize=2.4mm|YSize=1.6mm|CornerRadius=0mm|HoleSize=0mm|Usage=FLASHONLY|Rotation=45.009|XOffset=0mm|YOffset=0mm|HoleType=Round|Shape=Rectangle|*
%AMROTATEDRECTD35*
4,1,4,-0.2826,-1.4143,-1.4142,-0.2831,0.2826,1.4143,1.4142,0.2831,-0.2826,-1.4143,0.0*
%
%ADD35ROTATEDRECTD35*%

G04:AMPARAMS|DCode=36|XSize=2.4mm|YSize=1.6mm|CornerRadius=0mm|HoleSize=0mm|Usage=FLASHONLY|Rotation=231.438|XOffset=0mm|YOffset=0mm|HoleType=Round|Shape=Rectangle|*
%AMROTATEDRECTD36*
4,1,4,0.1225,1.4370,1.3736,0.4396,-0.1225,-1.4370,-1.3736,-0.4396,0.1225,1.4370,0.0*
%
%ADD36ROTATEDRECTD36*%

G04:AMPARAMS|DCode=37|XSize=2.4mm|YSize=1.6mm|CornerRadius=0mm|HoleSize=0mm|Usage=FLASHONLY|Rotation=57.867|XOffset=0mm|YOffset=0mm|HoleType=Round|Shape=Rectangle|*
%AMROTATEDRECTD37*
4,1,4,0.0392,-1.4417,-1.3157,-0.5907,-0.0392,1.4417,1.3157,0.5907,0.0392,-1.4417,0.0*
%
%ADD37ROTATEDRECTD37*%

G04:AMPARAMS|DCode=38|XSize=0.95mm|YSize=1.4mm|CornerRadius=0mm|HoleSize=0mm|Usage=FLASHONLY|Rotation=318.214|XOffset=0mm|YOffset=0mm|HoleType=Round|Shape=Rectangle|*
%AMROTATEDRECTD38*
4,1,4,-0.8206,-0.2054,0.1123,0.8385,0.8206,0.2054,-0.1123,-0.8385,-0.8206,-0.2054,0.0*
%
%ADD38ROTATEDRECTD38*%

G04:AMPARAMS|DCode=39|XSize=0.95mm|YSize=1.4mm|CornerRadius=0mm|HoleSize=0mm|Usage=FLASHONLY|Rotation=215.357|XOffset=0mm|YOffset=0mm|HoleType=Round|Shape=Rectangle|*
%AMROTATEDRECTD39*
4,1,4,-0.0177,0.8458,0.7925,-0.2960,0.0177,-0.8458,-0.7925,0.2960,-0.0177,0.8458,0.0*
%
%ADD39ROTATEDRECTD39*%

G04:AMPARAMS|DCode=40|XSize=0.95mm|YSize=1.4mm|CornerRadius=0mm|HoleSize=0mm|Usage=FLASHONLY|Rotation=9.643|XOffset=0mm|YOffset=0mm|HoleType=Round|Shape=Rectangle|*
%AMROTATEDRECTD40*
4,1,4,-0.3510,-0.7697,-0.5855,0.6105,0.3510,0.7697,0.5855,-0.6105,-0.3510,-0.7697,0.0*
%
%ADD40ROTATEDRECTD40*%

G04:AMPARAMS|DCode=41|XSize=2.4mm|YSize=1.6mm|CornerRadius=0mm|HoleSize=0mm|Usage=FLASHONLY|Rotation=115.716|XOffset=0mm|YOffset=0mm|HoleType=Round|Shape=Rectangle|*
%AMROTATEDRECTD41*
4,1,4,1.2415,-0.7340,-0.2001,-1.4283,-1.2415,0.7340,0.2001,1.4283,1.2415,-0.7340,0.0*
%
%ADD41ROTATEDRECTD41*%

G04:AMPARAMS|DCode=42|XSize=2.4mm|YSize=1.6mm|CornerRadius=0mm|HoleSize=0mm|Usage=FLASHONLY|Rotation=173.589|XOffset=0mm|YOffset=0mm|HoleType=Round|Shape=Rectangle|*
%AMROTATEDRECTD42*
4,1,4,1.2818,0.6610,1.1032,-0.9290,-1.2818,-0.6610,-1.1032,0.9290,1.2818,0.6610,0.0*
%
%ADD42ROTATEDRECTD42*%

G04:AMPARAMS|DCode=43|XSize=2.4mm|YSize=1.6mm|CornerRadius=0mm|HoleSize=0mm|Usage=FLASHONLY|Rotation=0.018|XOffset=0mm|YOffset=0mm|HoleType=Round|Shape=Rectangle|*
%AMROTATEDRECTD43*
4,1,4,-1.1998,-0.8004,-1.2003,0.7996,1.1998,0.8004,1.2003,-0.7996,-1.1998,-0.8004,0.0*
%
%ADD43ROTATEDRECTD43*%

G04:AMPARAMS|DCode=44|XSize=2.4mm|YSize=1.6mm|CornerRadius=0mm|HoleSize=0mm|Usage=FLASHONLY|Rotation=186.447|XOffset=0mm|YOffset=0mm|HoleType=Round|Shape=Rectangle|*
%AMROTATEDRECTD44*
4,1,4,1.1026,0.9297,1.2822,-0.6602,-1.1026,-0.9297,-1.2822,0.6602,1.1026,0.9297,0.0*
%
%ADD44ROTATEDRECTD44*%

G04:AMPARAMS|DCode=45|XSize=2.4mm|YSize=1.6mm|CornerRadius=0mm|HoleSize=0mm|Usage=FLASHONLY|Rotation=12.876|XOffset=0mm|YOffset=0mm|HoleType=Round|Shape=Rectangle|*
%AMROTATEDRECTD45*
4,1,4,-0.9916,-1.0473,-1.3481,0.5125,0.9916,1.0473,1.3481,-0.5125,-0.9916,-1.0473,0.0*
%
%ADD45ROTATEDRECTD45*%

G04:AMPARAMS|DCode=46|XSize=2.4mm|YSize=1.6mm|CornerRadius=0mm|HoleSize=0mm|Usage=FLASHONLY|Rotation=167.148|XOffset=0mm|YOffset=0mm|HoleType=Round|Shape=Rectangle|*
%AMROTATEDRECTD46*
4,1,4,1.3479,0.5130,0.9920,-1.0469,-1.3479,-0.5130,-0.9920,1.0469,1.3479,0.5130,0.0*
%
%ADD46ROTATEDRECTD46*%

G04:AMPARAMS|DCode=47|XSize=2.4mm|YSize=1.6mm|CornerRadius=0mm|HoleSize=0mm|Usage=FLASHONLY|Rotation=64.308|XOffset=0mm|YOffset=0mm|HoleType=Round|Shape=Rectangle|*
%AMROTATEDRECTD47*
4,1,4,0.2007,-1.4282,-1.2411,-0.7345,-0.2007,1.4282,1.2411,0.7345,0.2007,-1.4282,0.0*
%
%ADD47ROTATEDRECTD47*%

%ADD49C,2.6000*%
%ADD50C,5.0000*%
%ADD51C,3.5000*%
D11*
X425423Y-14376D02*
D03*
X424358Y-33346D02*
D03*
D12*
X449129Y-50418D02*
D03*
X477451Y-53597D02*
D03*
X-449118Y50512D02*
D03*
X-477440Y53697D02*
D03*
D13*
X550000Y-26250D02*
D03*
X550000Y-58750D02*
D03*
D14*
Y33500D02*
D03*
Y51500D02*
D03*
D15*
X-108681Y-411558D02*
D03*
X-126939Y-406298D02*
D03*
D16*
X-389531Y-171632D02*
D03*
X-396802Y-154078D02*
D03*
D17*
X-377228Y197634D02*
D03*
X-367692Y214068D02*
D03*
D18*
X-382618Y-240546D02*
D03*
X-406745Y-255715D02*
D03*
X382668Y240466D02*
D03*
X406799Y255630D02*
D03*
D19*
X-355700Y-283810D02*
D03*
X-333423Y-266034D02*
D03*
X355760Y283735D02*
D03*
X333478Y265965D02*
D03*
D20*
X-319493Y-319660D02*
D03*
X-339641Y-339818D02*
D03*
X319560Y319594D02*
D03*
X339712Y339747D02*
D03*
D21*
X-283623Y-355849D02*
D03*
X-265860Y-333562D02*
D03*
D22*
X-240346Y-382743D02*
D03*
X-255502Y-406879D02*
D03*
X240426Y382693D02*
D03*
X255587Y406826D02*
D03*
D23*
X-197322Y-410042D02*
D03*
X-184964Y-384361D02*
D03*
X197408Y410001D02*
D03*
X185044Y384322D02*
D03*
D24*
X-149145Y-426632D02*
D03*
X-158550Y-453535D02*
D03*
X149235Y426600D02*
D03*
X158645Y453502D02*
D03*
D25*
X-426616Y149190D02*
D03*
X-453518Y158598D02*
D03*
X426647Y-149101D02*
D03*
X453552Y-158503D02*
D03*
D26*
X-443661Y101172D02*
D03*
X-415874Y94835D02*
D03*
X443682Y-101079D02*
D03*
X415894Y-94748D02*
D03*
D27*
X-455050Y-95D02*
D03*
X-426550Y-89D02*
D03*
D28*
X-449097Y-50700D02*
D03*
X-477417Y-53897D02*
D03*
X449108Y50606D02*
D03*
X477429Y53797D02*
D03*
D29*
X-443618Y-101358D02*
D03*
X-415834Y-95010D02*
D03*
X443639Y101265D02*
D03*
X415854Y94923D02*
D03*
D30*
X-426553Y-149368D02*
D03*
X-453452Y-158788D02*
D03*
X426585Y149279D02*
D03*
X453485Y158693D02*
D03*
D31*
X-149324Y426569D02*
D03*
X-158740Y453469D02*
D03*
X149413Y-426538D02*
D03*
X158835Y-453435D02*
D03*
D32*
X-197494Y409959D02*
D03*
X-185125Y384283D02*
D03*
X197580Y-409918D02*
D03*
X185205Y-384245D02*
D03*
D33*
X-240506Y382643D02*
D03*
X-255673Y406772D02*
D03*
X240586Y-382592D02*
D03*
X255758Y-406719D02*
D03*
D34*
X-283772Y355730D02*
D03*
X-266000Y333450D02*
D03*
D35*
X-319627Y319527D02*
D03*
X-339783Y339676D02*
D03*
X319694Y-319460D02*
D03*
X339854Y-339605D02*
D03*
D36*
X-355819Y283661D02*
D03*
X-333534Y265895D02*
D03*
X355878Y-283586D02*
D03*
X333590Y-265825D02*
D03*
D37*
X-382718Y240386D02*
D03*
X-406853Y255545D02*
D03*
X382769Y-240306D02*
D03*
X406906Y-255460D02*
D03*
D38*
X276487Y323646D02*
D03*
X290654Y310985D02*
D03*
D39*
X254007Y-341573D02*
D03*
X238512Y-352567D02*
D03*
D40*
X-80650Y417956D02*
D03*
X-61918Y421139D02*
D03*
D41*
X409980Y197451D02*
D03*
X384303Y185085D02*
D03*
D42*
X-50465Y-449124D02*
D03*
X-53647Y-477445D02*
D03*
X50559Y449113D02*
D03*
X53747Y477434D02*
D03*
D43*
X143Y-455050D02*
D03*
X134Y-426550D02*
D03*
X-48Y455050D02*
D03*
X-45Y426550D02*
D03*
D44*
X50747Y-449092D02*
D03*
X53947Y-477412D02*
D03*
X-50653Y449103D02*
D03*
X-53847Y477423D02*
D03*
D45*
X101404Y-443608D02*
D03*
X95053Y-415824D02*
D03*
D46*
X101218Y443650D02*
D03*
X94879Y415864D02*
D03*
D47*
X410063Y-197279D02*
D03*
X384380Y-184924D02*
D03*
D49*
X642000Y0D02*
D03*
Y50800D02*
D03*
Y-50800D02*
D03*
D50*
X-103739Y454511D02*
D03*
X290671Y364490D02*
D03*
X-420032Y202277D02*
D03*
Y-202277D02*
D03*
X-103739Y-454511D02*
D03*
X290671Y-364490D02*
D03*
D51*
X466200Y0D02*
D03*
M02*
