G04 Layer_Color=32768*
%FSLAX44Y44*%
%MOMM*%
G71*
G01*
G75*
%ADD98C,0.1000*%
%ADD99C,0.1240*%
%ADD100C,0.0500*%
D98*
X416359Y-6355D02*
X435329Y-7421D01*
X433422Y-41367D02*
X435329Y-7421D01*
X414452Y-40302D02*
X433422Y-41367D01*
X414452Y-40302D02*
X416359Y-6355D01*
X545000Y-42500D02*
X555000Y-42500D01*
X550000Y-37500D02*
X550000Y-47500D01*
X545000Y42500D02*
X555000D01*
X550000Y37500D02*
Y47500D01*
X-104104Y-422763D02*
X-98845Y-404505D01*
X-136776Y-413350D02*
X-104104Y-422763D01*
X-136776Y-413350D02*
X-131516Y-395093D01*
X-98845Y-404505D01*
X-395437Y-182196D02*
X-377884Y-174925D01*
X-408449Y-150784D02*
X-395437Y-182196D01*
X-408449Y-150784D02*
X-390895Y-143513D01*
X-377884Y-174925D01*
X-389209Y195915D02*
X-372775Y186380D01*
X-389209Y195915D02*
X-372146Y225323D01*
X-355712Y215788D01*
X-372775Y186380D02*
X-355712Y215788D01*
X264564Y321560D02*
X277225Y335727D01*
X302577Y313071D01*
X289916Y298904D02*
X302577Y313071D01*
X264564Y321560D02*
X289916Y298904D01*
X254627Y-329485D02*
X265621Y-344981D01*
X237892Y-364655D02*
X265621Y-344981D01*
X226898Y-349160D02*
X237892Y-364655D01*
X226898Y-349160D02*
X254627Y-329485D01*
X-89635Y426065D02*
X-86453Y407334D01*
X-89635Y426065D02*
X-56115Y431761D01*
X-52933Y413029D01*
X-86453Y407334D02*
X-52933Y413029D01*
D99*
X436180Y-65819D02*
X486663Y-71486D01*
X436180Y-65819D02*
X439917Y-32528D01*
X490400Y-38195D01*
X486663Y-71486D02*
X490400Y-38195D01*
X-425100Y-247469D02*
X-382093Y-220431D01*
X-364263Y-248792D01*
X-407270Y-275830D02*
X-364263Y-248792D01*
X-425100Y-247469D02*
X-407270Y-275830D01*
X-353969Y-303857D02*
X-314260Y-272173D01*
X-374863Y-277671D02*
X-353969Y-303857D01*
X-374863Y-277671D02*
X-335154Y-245987D01*
X-314260Y-272173D01*
X-359370Y-335864D02*
X-323458Y-299933D01*
X-299764Y-323615D01*
X-335676Y-359546D02*
X-299764Y-323615D01*
X-359370Y-335864D02*
X-335676Y-359546D01*
X-277474Y-375008D02*
X-245812Y-335283D01*
X-303671Y-354128D02*
X-277474Y-375008D01*
X-303671Y-354128D02*
X-272009Y-314403D01*
X-245812Y-335283D01*
X-275617Y-407414D02*
X-248601Y-364393D01*
X-220231Y-382209D01*
X-247247Y-425230D02*
X-220231Y-382209D01*
X-275617Y-407414D02*
X-247247Y-425230D01*
X-187064Y-427352D02*
X-165036Y-381577D01*
X-217250Y-412826D02*
X-187064Y-427352D01*
X-217250Y-412826D02*
X-195222Y-367050D01*
X-165036Y-381577D01*
X-178041Y-458533D02*
X-161277Y-410579D01*
X-129654Y-421634D01*
X-146418Y-469588D02*
X-129654Y-421634D01*
X-178041Y-458533D02*
X-146418Y-469588D01*
X-458514Y178090D02*
X-410562Y161320D01*
X-421620Y129698D02*
X-410562Y161320D01*
X-469573Y146467D02*
X-421620Y129698D01*
X-469573Y146467D02*
X-458514Y178090D01*
X-458256Y87320D02*
X-408727Y76026D01*
X-458256Y87320D02*
X-450807Y119982D01*
X-401279Y108687D01*
X-408727Y76026D02*
X-401279Y108687D01*
X-486648Y71588D02*
X-436166Y65911D01*
X-439910Y32620D02*
X-436166Y65911D01*
X-490392Y38298D02*
X-439910Y32620D01*
X-490392Y38298D02*
X-486648Y71588D01*
X-466197Y-16848D02*
X-415396Y-16837D01*
X-466203Y16652D02*
X-466197Y-16848D01*
X-466203Y16652D02*
X-415404Y16663D01*
X-415396Y-16837D01*
X-490376Y-38503D02*
X-439897Y-32805D01*
X-436139Y-66093D01*
X-486618Y-71792D02*
X-436139Y-66093D01*
X-490376Y-38503D02*
X-486618Y-71792D01*
X-450757Y-120170D02*
X-401233Y-108855D01*
X-458219Y-87512D02*
X-450757Y-120170D01*
X-458219Y-87512D02*
X-408695Y-76197D01*
X-401233Y-108855D01*
X-469511Y-146664D02*
X-421566Y-129875D01*
X-410494Y-161492D01*
X-458439Y-178281D02*
X-410494Y-161492D01*
X-469511Y-146664D02*
X-458439Y-178281D01*
X-146615Y469527D02*
X-129831Y421579D01*
X-161449Y410511D02*
X-129831Y421579D01*
X-178234Y458458D02*
X-161449Y410511D01*
X-178234Y458458D02*
X-146615Y469527D01*
X-217423Y412735D02*
X-195376Y366969D01*
X-217423Y412735D02*
X-187243Y427274D01*
X-165195Y381508D01*
X-195376Y366969D02*
X-165195Y381508D01*
X-247425Y425126D02*
X-220391Y382116D01*
X-248754Y364289D02*
X-220391Y382116D01*
X-275788Y407299D02*
X-248754Y364289D01*
X-275788Y407299D02*
X-247425Y425126D01*
X-303820Y354001D02*
X-272140Y314289D01*
X-303820Y354001D02*
X-277631Y374892D01*
X-245952Y335179D01*
X-272140Y314289D02*
X-245952Y335179D01*
X-335826Y359405D02*
X-299900Y323490D01*
X-323584Y299798D02*
X-299900Y323490D01*
X-359510Y335713D02*
X-323584Y299798D01*
X-359510Y335713D02*
X-335826Y359405D01*
X-374979Y277514D02*
X-335257Y245847D01*
X-374979Y277514D02*
X-354096Y303708D01*
X-314374Y272042D01*
X-335257Y245847D02*
X-314374Y272042D01*
X-407385Y275660D02*
X-364367Y248640D01*
X-382186Y220271D02*
X-364367Y248640D01*
X-425204Y247291D02*
X-382186Y220271D01*
X-425204Y247291D02*
X-407385Y275660D01*
X439903Y32713D02*
X490384Y38401D01*
X436152Y66002D02*
X439903Y32713D01*
X436152Y66002D02*
X486633Y71690D01*
X490384Y38401D01*
X401256Y108771D02*
X450782Y120076D01*
X458237Y87416D01*
X408711Y76111D02*
X458237Y87416D01*
X401256Y108771D02*
X408711Y76111D01*
X421593Y129786D02*
X469542Y146566D01*
X410528Y161406D02*
X421593Y129786D01*
X410528Y161406D02*
X458477Y178186D01*
X469542Y146566D01*
X366989Y195338D02*
X412758Y217380D01*
X427294Y187198D01*
X381525Y165156D02*
X427294Y187198D01*
X366989Y195338D02*
X381525Y165156D01*
X382139Y220351D02*
X425152Y247380D01*
X364315Y248716D02*
X382139Y220351D01*
X364315Y248716D02*
X407328Y275745D01*
X425152Y247380D01*
X314317Y272108D02*
X354033Y303783D01*
X374921Y277592D01*
X335205Y245917D02*
X374921Y277592D01*
X314317Y272108D02*
X335205Y245917D01*
X323521Y299866D02*
X359440Y335788D01*
X299832Y323552D02*
X323521Y299866D01*
X299832Y323552D02*
X335751Y359475D01*
X359440Y335788D01*
X-71537Y-486656D02*
X-65865Y-436173D01*
X-32574Y-439914D01*
X-38247Y-490396D02*
X-32574Y-439914D01*
X-71537Y-486656D02*
X-38247Y-490396D01*
X16881Y-415395D02*
X16897Y-466195D01*
X-16603Y-466205D02*
X16897Y-466195D01*
X-16619Y-415405D02*
X-16603Y-466205D01*
X-16619Y-415405D02*
X16881Y-415395D01*
X32851Y-439893D02*
X38555Y-490372D01*
X32851Y-439893D02*
X66139Y-436132D01*
X71843Y-486610D01*
X38555Y-490372D02*
X71843Y-486610D01*
X108897Y-401222D02*
X120218Y-450745D01*
X87560Y-458210D02*
X120218Y-450745D01*
X76240Y-408687D02*
X87560Y-458210D01*
X76240Y-408687D02*
X108897Y-401222D01*
X129919Y-421552D02*
X146713Y-469496D01*
X129919Y-421552D02*
X161535Y-410477D01*
X178330Y-458421D01*
X146713Y-469496D02*
X178330Y-458421D01*
X195453Y-366928D02*
X217510Y-412689D01*
X187332Y-427235D02*
X217510Y-412689D01*
X165275Y-381473D02*
X187332Y-427235D01*
X165275Y-381473D02*
X195453Y-366928D01*
X220471Y-382070D02*
X247514Y-425074D01*
X220471Y-382070D02*
X248830Y-364237D01*
X275873Y-407241D01*
X247514Y-425074D02*
X275873Y-407241D01*
X248678Y364341D02*
X275702Y407357D01*
X220311Y382162D02*
X248678Y364341D01*
X220311Y382162D02*
X247336Y425178D01*
X275702Y407357D01*
X165116Y381542D02*
X187153Y427313D01*
X217337Y412780D01*
X195299Y367010D02*
X217337Y412780D01*
X165116Y381542D02*
X195299Y367010D01*
X161363Y410545D02*
X178137Y458496D01*
X129742Y421607D02*
X161363Y410545D01*
X129742Y421607D02*
X146517Y469557D01*
X178137Y458496D01*
X76069Y408719D02*
X87368Y458246D01*
X120029Y450795D01*
X108729Y401268D02*
X120029Y450795D01*
X76069Y408719D02*
X108729Y401268D01*
X65956Y436159D02*
X71639Y486641D01*
X32666Y439907D02*
X65956Y436159D01*
X32666Y439907D02*
X38349Y490388D01*
X71639Y486641D01*
X-16799Y466198D02*
X-16794Y415398D01*
X-16799Y466198D02*
X16701Y466202D01*
X16707Y415402D01*
X-16794Y415398D02*
X16707Y415402D01*
X-38452Y490380D02*
X-32759Y439900D01*
X-66048Y436146D02*
X-32759Y439900D01*
X-71741Y486626D02*
X-66048Y436146D01*
X-71741Y486626D02*
X-38452Y490380D01*
X299967Y-323427D02*
X335901Y-359335D01*
X299967Y-323427D02*
X323647Y-299730D01*
X359581Y-335638D01*
X335901Y-359335D02*
X359581Y-335638D01*
X335308Y-245777D02*
X375037Y-277435D01*
X354160Y-303634D02*
X375037Y-277435D01*
X314431Y-271976D02*
X354160Y-303634D01*
X314431Y-271976D02*
X335308Y-245777D01*
X364419Y-248563D02*
X407443Y-275574D01*
X364419Y-248563D02*
X382232Y-220191D01*
X425256Y-247202D01*
X407443Y-275574D02*
X425256Y-247202D01*
X381594Y-164996D02*
X427372Y-187019D01*
X412849Y-217207D02*
X427372Y-187019D01*
X367071Y-195184D02*
X412849Y-217207D01*
X367071Y-195184D02*
X381594Y-164996D01*
X410596Y-161234D02*
X458551Y-177994D01*
X410596Y-161234D02*
X421647Y-129610D01*
X469603Y-146369D01*
X458551Y-177994D02*
X469603Y-146369D01*
X408743Y-75940D02*
X458274Y-87224D01*
X450833Y-119887D02*
X458274Y-87224D01*
X401302Y-108603D02*
X450833Y-119887D01*
X401302Y-108603D02*
X408743Y-75940D01*
D100*
X588000Y-84200D02*
Y78800D01*
Y-84200D02*
X693000D01*
Y78800D01*
X588000D02*
X693000D01*
X561500Y-19500D02*
X561500Y-65500D01*
X538500Y-19500D02*
X538500Y-65500D01*
X538500Y-19500D02*
X561500D01*
X538500Y-65500D02*
X561500D01*
X540000Y25000D02*
Y60000D01*
X560000Y25000D02*
Y60000D01*
X540000Y25000D02*
X560000D01*
X540000Y60000D02*
X560000D01*
M02*
