G04 Layer_Color=255*
%FSLAX44Y44*%
%MOMM*%
G71*
G01*
G75*
G04:AMPARAMS|DCode=11|XSize=0.95mm|YSize=1.4mm|CornerRadius=0mm|HoleSize=0mm|Usage=FLASHONLY|Rotation=266.017|XOffset=0mm|YOffset=0mm|HoleType=Round|Shape=Rectangle|*
%AMROTATEDRECTD11*
4,1,4,-0.6653,0.5225,0.7313,0.4252,0.6653,-0.5225,-0.7313,-0.4252,-0.6653,0.5225,0.0*
%
%ADD11ROTATEDRECTD11*%

G04:AMPARAMS|DCode=12|XSize=2.55mm|YSize=2.6mm|CornerRadius=0mm|HoleSize=0mm|Usage=FLASHONLY|Rotation=78.000|XOffset=0mm|YOffset=0mm|HoleType=Round|Shape=Rectangle|*
%AMROTATEDRECTD12*
4,1,4,1.0065,-1.5174,-1.5367,-0.9768,-1.0065,1.5174,1.5367,0.9768,1.0065,-1.5174,0.0*
%
%ADD12ROTATEDRECTD12*%

G04:AMPARAMS|DCode=13|XSize=2.55mm|YSize=1mm|CornerRadius=0mm|HoleSize=0mm|Usage=FLASHONLY|Rotation=78.000|XOffset=0mm|YOffset=0mm|HoleType=Round|Shape=Rectangle|*
%AMROTATEDRECTD13*
4,1,4,0.2240,-1.3511,-0.7542,-1.1432,-0.2240,1.3511,0.7542,1.1432,0.2240,-1.3511,0.0*
%
%ADD13ROTATEDRECTD13*%

%ADD14R,1.8000X0.9000*%
%ADD15R,1.4500X1.1500*%
G04:AMPARAMS|DCode=16|XSize=0.95mm|YSize=1.4mm|CornerRadius=0mm|HoleSize=0mm|Usage=FLASHONLY|Rotation=26.000|XOffset=0mm|YOffset=0mm|HoleType=Round|Shape=Rectangle|*
%AMROTATEDRECTD16*
4,1,4,-0.1201,-0.8374,-0.7338,0.4209,0.1201,0.8374,0.7338,-0.4209,-0.1201,-0.8374,0.0*
%
%ADD16ROTATEDRECTD16*%

G04:AMPARAMS|DCode=17|XSize=2.55mm|YSize=2.6mm|CornerRadius=0mm|HoleSize=0mm|Usage=FLASHONLY|Rotation=274.000|XOffset=0mm|YOffset=0mm|HoleType=Round|Shape=Rectangle|*
%AMROTATEDRECTD17*
4,1,4,-1.3858,1.1812,1.2079,1.3626,1.3858,-1.1812,-1.2079,-1.3626,-1.3858,1.1812,0.0*
%
%ADD17ROTATEDRECTD17*%

G04:AMPARAMS|DCode=18|XSize=2.55mm|YSize=1mm|CornerRadius=0mm|HoleSize=0mm|Usage=FLASHONLY|Rotation=274.000|XOffset=0mm|YOffset=0mm|HoleType=Round|Shape=Rectangle|*
%AMROTATEDRECTD18*
4,1,4,-0.5877,1.2370,0.4098,1.3068,0.5877,-1.2370,-0.4098,-1.3068,-0.5877,1.2370,0.0*
%
%ADD18ROTATEDRECTD18*%

G04:AMPARAMS|DCode=19|XSize=2.55mm|YSize=2.6mm|CornerRadius=0mm|HoleSize=0mm|Usage=FLASHONLY|Rotation=102.000|XOffset=0mm|YOffset=0mm|HoleType=Round|Shape=Rectangle|*
%AMROTATEDRECTD19*
4,1,4,1.5367,-0.9768,-1.0065,-1.5174,-1.5367,0.9768,1.0065,1.5174,1.5367,-0.9768,0.0*
%
%ADD19ROTATEDRECTD19*%

G04:AMPARAMS|DCode=20|XSize=2.55mm|YSize=1mm|CornerRadius=0mm|HoleSize=0mm|Usage=FLASHONLY|Rotation=102.000|XOffset=0mm|YOffset=0mm|HoleType=Round|Shape=Rectangle|*
%AMROTATEDRECTD20*
4,1,4,0.7542,-1.1432,-0.2240,-1.3511,-0.7542,1.1432,0.2240,1.3511,0.7542,-1.1432,0.0*
%
%ADD20ROTATEDRECTD20*%

G04:AMPARAMS|DCode=21|XSize=2.55mm|YSize=2.6mm|CornerRadius=0mm|HoleSize=0mm|Usage=FLASHONLY|Rotation=290.000|XOffset=0mm|YOffset=0mm|HoleType=Round|Shape=Rectangle|*
%AMROTATEDRECTD21*
4,1,4,-1.6577,0.7535,0.7855,1.6427,1.6577,-0.7535,-0.7855,-1.6427,-1.6577,0.7535,0.0*
%
%ADD21ROTATEDRECTD21*%

G04:AMPARAMS|DCode=22|XSize=2.55mm|YSize=1mm|CornerRadius=0mm|HoleSize=0mm|Usage=FLASHONLY|Rotation=290.000|XOffset=0mm|YOffset=0mm|HoleType=Round|Shape=Rectangle|*
%AMROTATEDRECTD22*
4,1,4,-0.9059,1.0271,0.0338,1.3691,0.9059,-1.0271,-0.0338,-1.3691,-0.9059,1.0271,0.0*
%
%ADD22ROTATEDRECTD22*%

G04:AMPARAMS|DCode=23|XSize=2.55mm|YSize=2.6mm|CornerRadius=0mm|HoleSize=0mm|Usage=FLASHONLY|Rotation=118.000|XOffset=0mm|YOffset=0mm|HoleType=Round|Shape=Rectangle|*
%AMROTATEDRECTD23*
4,1,4,1.7464,-0.5154,-0.5493,-1.7361,-1.7464,0.5154,0.5493,1.7361,1.7464,-0.5154,0.0*
%
%ADD23ROTATEDRECTD23*%

G04:AMPARAMS|DCode=24|XSize=2.55mm|YSize=1mm|CornerRadius=0mm|HoleSize=0mm|Usage=FLASHONLY|Rotation=118.000|XOffset=0mm|YOffset=0mm|HoleType=Round|Shape=Rectangle|*
%AMROTATEDRECTD24*
4,1,4,1.0400,-0.8910,0.1571,-1.3605,-1.0400,0.8910,-0.1571,1.3605,1.0400,-0.8910,0.0*
%
%ADD24ROTATEDRECTD24*%

G04:AMPARAMS|DCode=25|XSize=2.55mm|YSize=2.6mm|CornerRadius=0mm|HoleSize=0mm|Usage=FLASHONLY|Rotation=306.000|XOffset=0mm|YOffset=0mm|HoleType=Round|Shape=Rectangle|*
%AMROTATEDRECTD25*
4,1,4,-1.8012,0.2674,0.3023,1.7956,1.8012,-0.2674,-0.3023,-1.7956,-1.8012,0.2674,0.0*
%
%ADD25ROTATEDRECTD25*%

G04:AMPARAMS|DCode=26|XSize=2.55mm|YSize=1mm|CornerRadius=0mm|HoleSize=0mm|Usage=FLASHONLY|Rotation=306.000|XOffset=0mm|YOffset=0mm|HoleType=Round|Shape=Rectangle|*
%AMROTATEDRECTD26*
4,1,4,-1.1539,0.7376,-0.3449,1.3254,1.1539,-0.7376,0.3449,-1.3254,-1.1539,0.7376,0.0*
%
%ADD26ROTATEDRECTD26*%

G04:AMPARAMS|DCode=27|XSize=2.55mm|YSize=2.6mm|CornerRadius=0mm|HoleSize=0mm|Usage=FLASHONLY|Rotation=134.000|XOffset=0mm|YOffset=0mm|HoleType=Round|Shape=Rectangle|*
%AMROTATEDRECTD27*
4,1,4,1.8208,-0.0141,-0.0495,-1.8202,-1.8208,0.0141,0.0495,1.8202,1.8208,-0.0141,0.0*
%
%ADD27ROTATEDRECTD27*%

G04:AMPARAMS|DCode=28|XSize=2.55mm|YSize=1mm|CornerRadius=0mm|HoleSize=0mm|Usage=FLASHONLY|Rotation=134.000|XOffset=0mm|YOffset=0mm|HoleType=Round|Shape=Rectangle|*
%AMROTATEDRECTD28*
4,1,4,1.2454,-0.5698,0.5260,-1.2645,-1.2454,0.5698,-0.5260,1.2645,1.2454,-0.5698,0.0*
%
%ADD28ROTATEDRECTD28*%

G04:AMPARAMS|DCode=29|XSize=2.55mm|YSize=2.6mm|CornerRadius=0mm|HoleSize=0mm|Usage=FLASHONLY|Rotation=322.000|XOffset=0mm|YOffset=0mm|HoleType=Round|Shape=Rectangle|*
%AMROTATEDRECTD29*
4,1,4,-1.8051,-0.2394,-0.2044,1.8094,1.8051,0.2394,0.2044,-1.8094,-1.8051,-0.2394,0.0*
%
%ADD29ROTATEDRECTD29*%

G04:AMPARAMS|DCode=30|XSize=2.55mm|YSize=1mm|CornerRadius=0mm|HoleSize=0mm|Usage=FLASHONLY|Rotation=322.000|XOffset=0mm|YOffset=0mm|HoleType=Round|Shape=Rectangle|*
%AMROTATEDRECTD30*
4,1,4,-1.3125,0.3910,-0.6969,1.1790,1.3125,-0.3910,0.6969,-1.1790,-1.3125,0.3910,0.0*
%
%ADD30ROTATEDRECTD30*%

G04:AMPARAMS|DCode=31|XSize=2.55mm|YSize=2.6mm|CornerRadius=0mm|HoleSize=0mm|Usage=FLASHONLY|Rotation=150.000|XOffset=0mm|YOffset=0mm|HoleType=Round|Shape=Rectangle|*
%AMROTATEDRECTD31*
4,1,4,1.7542,0.4883,0.4542,-1.7633,-1.7542,-0.4883,-0.4542,1.7633,1.7542,0.4883,0.0*
%
%ADD31ROTATEDRECTD31*%

G04:AMPARAMS|DCode=32|XSize=2.55mm|YSize=1mm|CornerRadius=0mm|HoleSize=0mm|Usage=FLASHONLY|Rotation=150.000|XOffset=0mm|YOffset=0mm|HoleType=Round|Shape=Rectangle|*
%AMROTATEDRECTD32*
4,1,4,1.3542,-0.2045,0.8542,-1.0705,-1.3542,0.2045,-0.8542,1.0705,1.3542,-0.2045,0.0*
%
%ADD32ROTATEDRECTD32*%

G04:AMPARAMS|DCode=33|XSize=2.55mm|YSize=2.6mm|CornerRadius=0mm|HoleSize=0mm|Usage=FLASHONLY|Rotation=338.000|XOffset=0mm|YOffset=0mm|HoleType=Round|Shape=Rectangle|*
%AMROTATEDRECTD33*
4,1,4,-1.6692,-0.7277,-0.6952,1.6830,1.6692,0.7277,0.6952,-1.6830,-1.6692,-0.7277,0.0*
%
%ADD33ROTATEDRECTD33*%

G04:AMPARAMS|DCode=34|XSize=2.55mm|YSize=1mm|CornerRadius=0mm|HoleSize=0mm|Usage=FLASHONLY|Rotation=338.000|XOffset=0mm|YOffset=0mm|HoleType=Round|Shape=Rectangle|*
%AMROTATEDRECTD34*
4,1,4,-1.3695,0.0140,-0.9949,0.9412,1.3695,-0.0140,0.9949,-0.9412,-1.3695,0.0140,0.0*
%
%ADD34ROTATEDRECTD34*%

G04:AMPARAMS|DCode=35|XSize=2.55mm|YSize=2.6mm|CornerRadius=0mm|HoleSize=0mm|Usage=FLASHONLY|Rotation=166.000|XOffset=0mm|YOffset=0mm|HoleType=Round|Shape=Rectangle|*
%AMROTATEDRECTD35*
4,1,4,1.5516,0.9529,0.9226,-1.5698,-1.5516,-0.9529,-0.9226,1.5698,1.5516,0.9529,0.0*
%
%ADD35ROTATEDRECTD35*%

G04:AMPARAMS|DCode=36|XSize=2.55mm|YSize=1mm|CornerRadius=0mm|HoleSize=0mm|Usage=FLASHONLY|Rotation=166.000|XOffset=0mm|YOffset=0mm|HoleType=Round|Shape=Rectangle|*
%AMROTATEDRECTD36*
4,1,4,1.3581,0.1767,1.1162,-0.7936,-1.3581,-0.1767,-1.1162,0.7936,1.3581,0.1767,0.0*
%
%ADD36ROTATEDRECTD36*%

G04:AMPARAMS|DCode=37|XSize=2.55mm|YSize=2.6mm|CornerRadius=0mm|HoleSize=0mm|Usage=FLASHONLY|Rotation=354.000|XOffset=0mm|YOffset=0mm|HoleType=Round|Shape=Rectangle|*
%AMROTATEDRECTD37*
4,1,4,-1.4039,-1.1596,-1.1321,1.4262,1.4039,1.1596,1.1321,-1.4262,-1.4039,-1.1596,0.0*
%
%ADD37ROTATEDRECTD37*%

G04:AMPARAMS|DCode=38|XSize=2.55mm|YSize=1mm|CornerRadius=0mm|HoleSize=0mm|Usage=FLASHONLY|Rotation=354.000|XOffset=0mm|YOffset=0mm|HoleType=Round|Shape=Rectangle|*
%AMROTATEDRECTD38*
4,1,4,-1.3203,-0.3640,-1.2157,0.6305,1.3203,0.3640,1.2157,-0.6305,-1.3203,-0.3640,0.0*
%
%ADD38ROTATEDRECTD38*%

G04:AMPARAMS|DCode=39|XSize=2.55mm|YSize=2.6mm|CornerRadius=0mm|HoleSize=0mm|Usage=FLASHONLY|Rotation=182.000|XOffset=0mm|YOffset=0mm|HoleType=Round|Shape=Rectangle|*
%AMROTATEDRECTD39*
4,1,4,1.2289,1.3437,1.3196,-1.2547,-1.2289,-1.3437,-1.3196,1.2547,1.2289,1.3437,0.0*
%
%ADD39ROTATEDRECTD39*%

G04:AMPARAMS|DCode=40|XSize=2.55mm|YSize=1mm|CornerRadius=0mm|HoleSize=0mm|Usage=FLASHONLY|Rotation=182.000|XOffset=0mm|YOffset=0mm|HoleType=Round|Shape=Rectangle|*
%AMROTATEDRECTD40*
4,1,4,1.2568,0.5442,1.2917,-0.4552,-1.2568,-0.5442,-1.2917,0.4552,1.2568,0.5442,0.0*
%
%ADD40ROTATEDRECTD40*%

G04:AMPARAMS|DCode=41|XSize=2.55mm|YSize=2.6mm|CornerRadius=0mm|HoleSize=0mm|Usage=FLASHONLY|Rotation=10.000|XOffset=0mm|YOffset=0mm|HoleType=Round|Shape=Rectangle|*
%AMROTATEDRECTD41*
4,1,4,-1.0299,-1.5017,-1.4814,1.0589,1.0299,1.5017,1.4814,-1.0589,-1.0299,-1.5017,0.0*
%
%ADD41ROTATEDRECTD41*%

G04:AMPARAMS|DCode=42|XSize=2.55mm|YSize=1mm|CornerRadius=0mm|HoleSize=0mm|Usage=FLASHONLY|Rotation=10.000|XOffset=0mm|YOffset=0mm|HoleType=Round|Shape=Rectangle|*
%AMROTATEDRECTD42*
4,1,4,-1.1688,-0.7138,-1.3425,0.2710,1.1688,0.7138,1.3425,-0.2710,-1.1688,-0.7138,0.0*
%
%ADD42ROTATEDRECTD42*%

G04:AMPARAMS|DCode=43|XSize=2.55mm|YSize=2.6mm|CornerRadius=0mm|HoleSize=0mm|Usage=FLASHONLY|Rotation=198.000|XOffset=0mm|YOffset=0mm|HoleType=Round|Shape=Rectangle|*
%AMROTATEDRECTD43*
4,1,4,0.8109,1.6304,1.6143,-0.8424,-0.8109,-1.6304,-1.6143,0.8424,0.8109,1.6304,0.0*
%
%ADD43ROTATEDRECTD43*%

G04:AMPARAMS|DCode=44|XSize=2.55mm|YSize=1mm|CornerRadius=0mm|HoleSize=0mm|Usage=FLASHONLY|Rotation=198.000|XOffset=0mm|YOffset=0mm|HoleType=Round|Shape=Rectangle|*
%AMROTATEDRECTD44*
4,1,4,1.0581,0.8695,1.3671,-0.0815,-1.0581,-0.8695,-1.3671,0.0815,1.0581,0.8695,0.0*
%
%ADD44ROTATEDRECTD44*%

G04:AMPARAMS|DCode=45|XSize=0.95mm|YSize=1.4mm|CornerRadius=0mm|HoleSize=0mm|Usage=FLASHONLY|Rotation=146.000|XOffset=0mm|YOffset=0mm|HoleType=Round|Shape=Rectangle|*
%AMROTATEDRECTD45*
4,1,4,0.7852,0.3147,0.0024,-0.8459,-0.7852,-0.3147,-0.0024,0.8459,0.7852,0.3147,0.0*
%
%ADD45ROTATEDRECTD45*%

G04:AMPARAMS|DCode=46|XSize=2.55mm|YSize=2.6mm|CornerRadius=0mm|HoleSize=0mm|Usage=FLASHONLY|Rotation=34.000|XOffset=0mm|YOffset=0mm|HoleType=Round|Shape=Rectangle|*
%AMROTATEDRECTD46*
4,1,4,-0.3301,-1.7907,-1.7840,0.3648,0.3301,1.7907,1.7840,-0.3648,-0.3301,-1.7907,0.0*
%
%ADD46ROTATEDRECTD46*%

G04:AMPARAMS|DCode=47|XSize=2.55mm|YSize=1mm|CornerRadius=0mm|HoleSize=0mm|Usage=FLASHONLY|Rotation=34.000|XOffset=0mm|YOffset=0mm|HoleType=Round|Shape=Rectangle|*
%AMROTATEDRECTD47*
4,1,4,-0.7774,-1.1275,-1.3366,-0.2984,0.7774,1.1275,1.3366,0.2984,-0.7774,-1.1275,0.0*
%
%ADD47ROTATEDRECTD47*%

G04:AMPARAMS|DCode=48|XSize=2.55mm|YSize=2.6mm|CornerRadius=0mm|HoleSize=0mm|Usage=FLASHONLY|Rotation=222.000|XOffset=0mm|YOffset=0mm|HoleType=Round|Shape=Rectangle|*
%AMROTATEDRECTD48*
4,1,4,0.0776,1.8192,1.8174,-0.1129,-0.0776,-1.8192,-1.8174,0.1129,0.0776,1.8192,0.0*
%
%ADD48ROTATEDRECTD48*%

G04:AMPARAMS|DCode=49|XSize=2.55mm|YSize=1mm|CornerRadius=0mm|HoleSize=0mm|Usage=FLASHONLY|Rotation=222.000|XOffset=0mm|YOffset=0mm|HoleType=Round|Shape=Rectangle|*
%AMROTATEDRECTD49*
4,1,4,0.6129,1.2247,1.2821,0.4816,-0.6129,-1.2247,-1.2821,-0.4816,0.6129,1.2247,0.0*
%
%ADD49ROTATEDRECTD49*%

G04:AMPARAMS|DCode=50|XSize=2.55mm|YSize=2.6mm|CornerRadius=0mm|HoleSize=0mm|Usage=FLASHONLY|Rotation=50.000|XOffset=0mm|YOffset=0mm|HoleType=Round|Shape=Rectangle|*
%AMROTATEDRECTD50*
4,1,4,0.1763,-1.8123,-1.8154,-0.1411,-0.1763,1.8123,1.8154,0.1411,0.1763,-1.8123,0.0*
%
%ADD50ROTATEDRECTD50*%

G04:AMPARAMS|DCode=51|XSize=2.55mm|YSize=1mm|CornerRadius=0mm|HoleSize=0mm|Usage=FLASHONLY|Rotation=50.000|XOffset=0mm|YOffset=0mm|HoleType=Round|Shape=Rectangle|*
%AMROTATEDRECTD51*
4,1,4,-0.4365,-1.2981,-1.2026,-0.6553,0.4365,1.2981,1.2026,0.6553,-0.4365,-1.2981,0.0*
%
%ADD51ROTATEDRECTD51*%

G04:AMPARAMS|DCode=52|XSize=2.55mm|YSize=2.6mm|CornerRadius=0mm|HoleSize=0mm|Usage=FLASHONLY|Rotation=238.000|XOffset=0mm|YOffset=0mm|HoleType=Round|Shape=Rectangle|*
%AMROTATEDRECTD52*
4,1,4,-0.4268,1.7702,1.7781,0.3924,0.4268,-1.7702,-1.7781,-0.3924,-0.4268,1.7702,0.0*
%
%ADD52ROTATEDRECTD52*%

G04:AMPARAMS|DCode=53|XSize=2.55mm|YSize=1mm|CornerRadius=0mm|HoleSize=0mm|Usage=FLASHONLY|Rotation=238.000|XOffset=0mm|YOffset=0mm|HoleType=Round|Shape=Rectangle|*
%AMROTATEDRECTD53*
4,1,4,0.2516,1.3462,1.0997,0.8163,-0.2516,-1.3462,-1.0997,-0.8163,0.2516,1.3462,0.0*
%
%ADD53ROTATEDRECTD53*%

G04:AMPARAMS|DCode=54|XSize=2.55mm|YSize=2.6mm|CornerRadius=0mm|HoleSize=0mm|Usage=FLASHONLY|Rotation=66.000|XOffset=0mm|YOffset=0mm|HoleType=Round|Shape=Rectangle|*
%AMROTATEDRECTD54*
4,1,4,0.6690,-1.6935,-1.7062,-0.6360,-0.6690,1.6935,1.7062,0.6360,0.6690,-1.6935,0.0*
%
%ADD54ROTATEDRECTD54*%

G04:AMPARAMS|DCode=55|XSize=2.55mm|YSize=1mm|CornerRadius=0mm|HoleSize=0mm|Usage=FLASHONLY|Rotation=66.000|XOffset=0mm|YOffset=0mm|HoleType=Round|Shape=Rectangle|*
%AMROTATEDRECTD55*
4,1,4,-0.0618,-1.3681,-0.9754,-0.9614,0.0618,1.3681,0.9754,0.9614,-0.0618,-1.3681,0.0*
%
%ADD55ROTATEDRECTD55*%

G04:AMPARAMS|DCode=56|XSize=2.55mm|YSize=2.6mm|CornerRadius=0mm|HoleSize=0mm|Usage=FLASHONLY|Rotation=254.000|XOffset=0mm|YOffset=0mm|HoleType=Round|Shape=Rectangle|*
%AMROTATEDRECTD56*
4,1,4,-0.8982,1.5839,1.6011,0.8673,0.8982,-1.5839,-1.6011,-0.8673,-0.8982,1.5839,0.0*
%
%ADD56ROTATEDRECTD56*%

G04:AMPARAMS|DCode=57|XSize=2.55mm|YSize=1mm|CornerRadius=0mm|HoleSize=0mm|Usage=FLASHONLY|Rotation=254.000|XOffset=0mm|YOffset=0mm|HoleType=Round|Shape=Rectangle|*
%AMROTATEDRECTD57*
4,1,4,-0.1292,1.3634,0.8321,1.0878,0.1292,-1.3634,-0.8321,-1.0878,-0.1292,1.3634,0.0*
%
%ADD57ROTATEDRECTD57*%

G04:AMPARAMS|DCode=58|XSize=2.55mm|YSize=2.6mm|CornerRadius=0mm|HoleSize=0mm|Usage=FLASHONLY|Rotation=82.000|XOffset=0mm|YOffset=0mm|HoleType=Round|Shape=Rectangle|*
%AMROTATEDRECTD58*
4,1,4,1.1099,-1.4435,-1.4648,-1.0817,-1.1099,1.4435,1.4648,1.0817,1.1099,-1.4435,0.0*
%
%ADD58ROTATEDRECTD58*%

G04:AMPARAMS|DCode=59|XSize=2.55mm|YSize=1mm|CornerRadius=0mm|HoleSize=0mm|Usage=FLASHONLY|Rotation=82.000|XOffset=0mm|YOffset=0mm|HoleType=Round|Shape=Rectangle|*
%AMROTATEDRECTD59*
4,1,4,0.3177,-1.3322,-0.6726,-1.1930,-0.3177,1.3322,0.6726,1.1930,0.3177,-1.3322,0.0*
%
%ADD59ROTATEDRECTD59*%

%ADD60R,2.6000X2.5500*%
%ADD61R,1.0000X2.5500*%
G04:AMPARAMS|DCode=62|XSize=2.55mm|YSize=2.6mm|CornerRadius=0mm|HoleSize=0mm|Usage=FLASHONLY|Rotation=98.000|XOffset=0mm|YOffset=0mm|HoleType=Round|Shape=Rectangle|*
%AMROTATEDRECTD62*
4,1,4,1.4648,-1.0817,-1.1099,-1.4435,-1.4648,1.0817,1.1099,1.4435,1.4648,-1.0817,0.0*
%
%ADD62ROTATEDRECTD62*%

G04:AMPARAMS|DCode=63|XSize=2.55mm|YSize=1mm|CornerRadius=0mm|HoleSize=0mm|Usage=FLASHONLY|Rotation=98.000|XOffset=0mm|YOffset=0mm|HoleType=Round|Shape=Rectangle|*
%AMROTATEDRECTD63*
4,1,4,0.6726,-1.1930,-0.3177,-1.3322,-0.6726,1.1930,0.3177,1.3322,0.6726,-1.1930,0.0*
%
%ADD63ROTATEDRECTD63*%

G04:AMPARAMS|DCode=64|XSize=2.55mm|YSize=2.6mm|CornerRadius=0mm|HoleSize=0mm|Usage=FLASHONLY|Rotation=286.000|XOffset=0mm|YOffset=0mm|HoleType=Round|Shape=Rectangle|*
%AMROTATEDRECTD64*
4,1,4,-1.6011,0.8673,0.8982,1.5839,1.6011,-0.8673,-0.8982,-1.5839,-1.6011,0.8673,0.0*
%
%ADD64ROTATEDRECTD64*%

G04:AMPARAMS|DCode=65|XSize=2.55mm|YSize=1mm|CornerRadius=0mm|HoleSize=0mm|Usage=FLASHONLY|Rotation=286.000|XOffset=0mm|YOffset=0mm|HoleType=Round|Shape=Rectangle|*
%AMROTATEDRECTD65*
4,1,4,-0.8321,1.0878,0.1292,1.3634,0.8321,-1.0878,-0.1292,-1.3634,-0.8321,1.0878,0.0*
%
%ADD65ROTATEDRECTD65*%

G04:AMPARAMS|DCode=66|XSize=2.55mm|YSize=2.6mm|CornerRadius=0mm|HoleSize=0mm|Usage=FLASHONLY|Rotation=114.000|XOffset=0mm|YOffset=0mm|HoleType=Round|Shape=Rectangle|*
%AMROTATEDRECTD66*
4,1,4,1.7062,-0.6360,-0.6690,-1.6935,-1.7062,0.6360,0.6690,1.6935,1.7062,-0.6360,0.0*
%
%ADD66ROTATEDRECTD66*%

G04:AMPARAMS|DCode=67|XSize=2.55mm|YSize=1mm|CornerRadius=0mm|HoleSize=0mm|Usage=FLASHONLY|Rotation=114.000|XOffset=0mm|YOffset=0mm|HoleType=Round|Shape=Rectangle|*
%AMROTATEDRECTD67*
4,1,4,0.9754,-0.9614,0.0618,-1.3681,-0.9754,0.9614,-0.0618,1.3681,0.9754,-0.9614,0.0*
%
%ADD67ROTATEDRECTD67*%

G04:AMPARAMS|DCode=68|XSize=2.55mm|YSize=2.6mm|CornerRadius=0mm|HoleSize=0mm|Usage=FLASHONLY|Rotation=302.000|XOffset=0mm|YOffset=0mm|HoleType=Round|Shape=Rectangle|*
%AMROTATEDRECTD68*
4,1,4,-1.7781,0.3924,0.4268,1.7702,1.7781,-0.3924,-0.4268,-1.7702,-1.7781,0.3924,0.0*
%
%ADD68ROTATEDRECTD68*%

G04:AMPARAMS|DCode=69|XSize=2.55mm|YSize=1mm|CornerRadius=0mm|HoleSize=0mm|Usage=FLASHONLY|Rotation=302.000|XOffset=0mm|YOffset=0mm|HoleType=Round|Shape=Rectangle|*
%AMROTATEDRECTD69*
4,1,4,-1.0997,0.8163,-0.2516,1.3462,1.0997,-0.8163,0.2516,-1.3462,-1.0997,0.8163,0.0*
%
%ADD69ROTATEDRECTD69*%

G04:AMPARAMS|DCode=70|XSize=2.55mm|YSize=2.6mm|CornerRadius=0mm|HoleSize=0mm|Usage=FLASHONLY|Rotation=130.000|XOffset=0mm|YOffset=0mm|HoleType=Round|Shape=Rectangle|*
%AMROTATEDRECTD70*
4,1,4,1.8154,-0.1411,-0.1763,-1.8123,-1.8154,0.1411,0.1763,1.8123,1.8154,-0.1411,0.0*
%
%ADD70ROTATEDRECTD70*%

G04:AMPARAMS|DCode=71|XSize=2.55mm|YSize=1mm|CornerRadius=0mm|HoleSize=0mm|Usage=FLASHONLY|Rotation=130.000|XOffset=0mm|YOffset=0mm|HoleType=Round|Shape=Rectangle|*
%AMROTATEDRECTD71*
4,1,4,1.2026,-0.6553,0.4365,-1.2981,-1.2026,0.6553,-0.4365,1.2981,1.2026,-0.6553,0.0*
%
%ADD71ROTATEDRECTD71*%

G04:AMPARAMS|DCode=72|XSize=2.55mm|YSize=2.6mm|CornerRadius=0mm|HoleSize=0mm|Usage=FLASHONLY|Rotation=318.000|XOffset=0mm|YOffset=0mm|HoleType=Round|Shape=Rectangle|*
%AMROTATEDRECTD72*
4,1,4,-1.8174,-0.1129,-0.0776,1.8192,1.8174,0.1129,0.0776,-1.8192,-1.8174,-0.1129,0.0*
%
%ADD72ROTATEDRECTD72*%

G04:AMPARAMS|DCode=73|XSize=2.55mm|YSize=1mm|CornerRadius=0mm|HoleSize=0mm|Usage=FLASHONLY|Rotation=318.000|XOffset=0mm|YOffset=0mm|HoleType=Round|Shape=Rectangle|*
%AMROTATEDRECTD73*
4,1,4,-1.2821,0.4816,-0.6129,1.2247,1.2821,-0.4816,0.6129,-1.2247,-1.2821,0.4816,0.0*
%
%ADD73ROTATEDRECTD73*%

G04:AMPARAMS|DCode=74|XSize=2.55mm|YSize=2.6mm|CornerRadius=0mm|HoleSize=0mm|Usage=FLASHONLY|Rotation=154.000|XOffset=0mm|YOffset=0mm|HoleType=Round|Shape=Rectangle|*
%AMROTATEDRECTD74*
4,1,4,1.7159,0.6095,0.5761,-1.7273,-1.7159,-0.6095,-0.5761,1.7273,1.7159,0.6095,0.0*
%
%ADD74ROTATEDRECTD74*%

G04:AMPARAMS|DCode=75|XSize=2.55mm|YSize=1mm|CornerRadius=0mm|HoleSize=0mm|Usage=FLASHONLY|Rotation=154.000|XOffset=0mm|YOffset=0mm|HoleType=Round|Shape=Rectangle|*
%AMROTATEDRECTD75*
4,1,4,1.3651,-0.1095,0.9268,-1.0083,-1.3651,0.1095,-0.9268,1.0083,1.3651,-0.1095,0.0*
%
%ADD75ROTATEDRECTD75*%

G04:AMPARAMS|DCode=76|XSize=2.55mm|YSize=2.6mm|CornerRadius=0mm|HoleSize=0mm|Usage=FLASHONLY|Rotation=342.000|XOffset=0mm|YOffset=0mm|HoleType=Round|Shape=Rectangle|*
%AMROTATEDRECTD76*
4,1,4,-1.6143,-0.8424,-0.8109,1.6304,1.6143,0.8424,0.8109,-1.6304,-1.6143,-0.8424,0.0*
%
%ADD76ROTATEDRECTD76*%

G04:AMPARAMS|DCode=77|XSize=2.55mm|YSize=1mm|CornerRadius=0mm|HoleSize=0mm|Usage=FLASHONLY|Rotation=342.000|XOffset=0mm|YOffset=0mm|HoleType=Round|Shape=Rectangle|*
%AMROTATEDRECTD77*
4,1,4,-1.3671,-0.0815,-1.0581,0.8695,1.3671,0.0815,1.0581,-0.8695,-1.3671,-0.0815,0.0*
%
%ADD77ROTATEDRECTD77*%

G04:AMPARAMS|DCode=78|XSize=2.55mm|YSize=2.6mm|CornerRadius=0mm|HoleSize=0mm|Usage=FLASHONLY|Rotation=170.000|XOffset=0mm|YOffset=0mm|HoleType=Round|Shape=Rectangle|*
%AMROTATEDRECTD78*
4,1,4,1.4814,1.0589,1.0299,-1.5017,-1.4814,-1.0589,-1.0299,1.5017,1.4814,1.0589,0.0*
%
%ADD78ROTATEDRECTD78*%

G04:AMPARAMS|DCode=79|XSize=2.55mm|YSize=1mm|CornerRadius=0mm|HoleSize=0mm|Usage=FLASHONLY|Rotation=170.000|XOffset=0mm|YOffset=0mm|HoleType=Round|Shape=Rectangle|*
%AMROTATEDRECTD79*
4,1,4,1.3425,0.2710,1.1688,-0.7138,-1.3425,-0.2710,-1.1688,0.7138,1.3425,0.2710,0.0*
%
%ADD79ROTATEDRECTD79*%

G04:AMPARAMS|DCode=80|XSize=2.55mm|YSize=2.6mm|CornerRadius=0mm|HoleSize=0mm|Usage=FLASHONLY|Rotation=358.000|XOffset=0mm|YOffset=0mm|HoleType=Round|Shape=Rectangle|*
%AMROTATEDRECTD80*
4,1,4,-1.3196,-1.2547,-1.2289,1.3437,1.3196,1.2547,1.2289,-1.3437,-1.3196,-1.2547,0.0*
%
%ADD80ROTATEDRECTD80*%

G04:AMPARAMS|DCode=81|XSize=2.55mm|YSize=1mm|CornerRadius=0mm|HoleSize=0mm|Usage=FLASHONLY|Rotation=358.000|XOffset=0mm|YOffset=0mm|HoleType=Round|Shape=Rectangle|*
%AMROTATEDRECTD81*
4,1,4,-1.2917,-0.4552,-1.2568,0.5442,1.2917,0.4552,1.2568,-0.5442,-1.2917,-0.4552,0.0*
%
%ADD81ROTATEDRECTD81*%

G04:AMPARAMS|DCode=82|XSize=2.55mm|YSize=2.6mm|CornerRadius=0mm|HoleSize=0mm|Usage=FLASHONLY|Rotation=186.000|XOffset=0mm|YOffset=0mm|HoleType=Round|Shape=Rectangle|*
%AMROTATEDRECTD82*
4,1,4,1.1321,1.4262,1.4039,-1.1596,-1.1321,-1.4262,-1.4039,1.1596,1.1321,1.4262,0.0*
%
%ADD82ROTATEDRECTD82*%

G04:AMPARAMS|DCode=83|XSize=2.55mm|YSize=1mm|CornerRadius=0mm|HoleSize=0mm|Usage=FLASHONLY|Rotation=186.000|XOffset=0mm|YOffset=0mm|HoleType=Round|Shape=Rectangle|*
%AMROTATEDRECTD83*
4,1,4,1.2157,0.6305,1.3203,-0.3640,-1.2157,-0.6305,-1.3203,0.3640,1.2157,0.6305,0.0*
%
%ADD83ROTATEDRECTD83*%

G04:AMPARAMS|DCode=84|XSize=2.55mm|YSize=2.6mm|CornerRadius=0mm|HoleSize=0mm|Usage=FLASHONLY|Rotation=14.000|XOffset=0mm|YOffset=0mm|HoleType=Round|Shape=Rectangle|*
%AMROTATEDRECTD84*
4,1,4,-0.9226,-1.5698,-1.5516,0.9529,0.9226,1.5698,1.5516,-0.9529,-0.9226,-1.5698,0.0*
%
%ADD84ROTATEDRECTD84*%

G04:AMPARAMS|DCode=85|XSize=2.55mm|YSize=1mm|CornerRadius=0mm|HoleSize=0mm|Usage=FLASHONLY|Rotation=14.000|XOffset=0mm|YOffset=0mm|HoleType=Round|Shape=Rectangle|*
%AMROTATEDRECTD85*
4,1,4,-1.1162,-0.7936,-1.3581,0.1767,1.1162,0.7936,1.3581,-0.1767,-1.1162,-0.7936,0.0*
%
%ADD85ROTATEDRECTD85*%

G04:AMPARAMS|DCode=86|XSize=2.55mm|YSize=2.6mm|CornerRadius=0mm|HoleSize=0mm|Usage=FLASHONLY|Rotation=202.000|XOffset=0mm|YOffset=0mm|HoleType=Round|Shape=Rectangle|*
%AMROTATEDRECTD86*
4,1,4,0.6952,1.6830,1.6692,-0.7277,-0.6952,-1.6830,-1.6692,0.7277,0.6952,1.6830,0.0*
%
%ADD86ROTATEDRECTD86*%

G04:AMPARAMS|DCode=87|XSize=2.55mm|YSize=1mm|CornerRadius=0mm|HoleSize=0mm|Usage=FLASHONLY|Rotation=202.000|XOffset=0mm|YOffset=0mm|HoleType=Round|Shape=Rectangle|*
%AMROTATEDRECTD87*
4,1,4,0.9949,0.9412,1.3695,0.0140,-0.9949,-0.9412,-1.3695,-0.0140,0.9949,0.9412,0.0*
%
%ADD87ROTATEDRECTD87*%

G04:AMPARAMS|DCode=88|XSize=2.55mm|YSize=2.6mm|CornerRadius=0mm|HoleSize=0mm|Usage=FLASHONLY|Rotation=30.000|XOffset=0mm|YOffset=0mm|HoleType=Round|Shape=Rectangle|*
%AMROTATEDRECTD88*
4,1,4,-0.4542,-1.7633,-1.7542,0.4883,0.4542,1.7633,1.7542,-0.4883,-0.4542,-1.7633,0.0*
%
%ADD88ROTATEDRECTD88*%

G04:AMPARAMS|DCode=89|XSize=2.55mm|YSize=1mm|CornerRadius=0mm|HoleSize=0mm|Usage=FLASHONLY|Rotation=30.000|XOffset=0mm|YOffset=0mm|HoleType=Round|Shape=Rectangle|*
%AMROTATEDRECTD89*
4,1,4,-0.8542,-1.0705,-1.3542,-0.2045,0.8542,1.0705,1.3542,0.2045,-0.8542,-1.0705,0.0*
%
%ADD89ROTATEDRECTD89*%

G04:AMPARAMS|DCode=90|XSize=2.55mm|YSize=2.6mm|CornerRadius=0mm|HoleSize=0mm|Usage=FLASHONLY|Rotation=218.000|XOffset=0mm|YOffset=0mm|HoleType=Round|Shape=Rectangle|*
%AMROTATEDRECTD90*
4,1,4,0.2044,1.8094,1.8051,-0.2394,-0.2044,-1.8094,-1.8051,0.2394,0.2044,1.8094,0.0*
%
%ADD90ROTATEDRECTD90*%

G04:AMPARAMS|DCode=91|XSize=2.55mm|YSize=1mm|CornerRadius=0mm|HoleSize=0mm|Usage=FLASHONLY|Rotation=218.000|XOffset=0mm|YOffset=0mm|HoleType=Round|Shape=Rectangle|*
%AMROTATEDRECTD91*
4,1,4,0.6969,1.1790,1.3125,0.3910,-0.6969,-1.1790,-1.3125,-0.3910,0.6969,1.1790,0.0*
%
%ADD91ROTATEDRECTD91*%

G04:AMPARAMS|DCode=92|XSize=2.55mm|YSize=2.6mm|CornerRadius=0mm|HoleSize=0mm|Usage=FLASHONLY|Rotation=46.000|XOffset=0mm|YOffset=0mm|HoleType=Round|Shape=Rectangle|*
%AMROTATEDRECTD92*
4,1,4,0.0495,-1.8202,-1.8208,-0.0141,-0.0495,1.8202,1.8208,0.0141,0.0495,-1.8202,0.0*
%
%ADD92ROTATEDRECTD92*%

G04:AMPARAMS|DCode=93|XSize=2.55mm|YSize=1mm|CornerRadius=0mm|HoleSize=0mm|Usage=FLASHONLY|Rotation=46.000|XOffset=0mm|YOffset=0mm|HoleType=Round|Shape=Rectangle|*
%AMROTATEDRECTD93*
4,1,4,-0.5260,-1.2645,-1.2454,-0.5698,0.5260,1.2645,1.2454,0.5698,-0.5260,-1.2645,0.0*
%
%ADD93ROTATEDRECTD93*%

G04:AMPARAMS|DCode=94|XSize=2.55mm|YSize=2.6mm|CornerRadius=0mm|HoleSize=0mm|Usage=FLASHONLY|Rotation=234.000|XOffset=0mm|YOffset=0mm|HoleType=Round|Shape=Rectangle|*
%AMROTATEDRECTD94*
4,1,4,-0.3023,1.7956,1.8012,0.2674,0.3023,-1.7956,-1.8012,-0.2674,-0.3023,1.7956,0.0*
%
%ADD94ROTATEDRECTD94*%

G04:AMPARAMS|DCode=95|XSize=2.55mm|YSize=1mm|CornerRadius=0mm|HoleSize=0mm|Usage=FLASHONLY|Rotation=234.000|XOffset=0mm|YOffset=0mm|HoleType=Round|Shape=Rectangle|*
%AMROTATEDRECTD95*
4,1,4,0.3449,1.3254,1.1539,0.7376,-0.3449,-1.3254,-1.1539,-0.7376,0.3449,1.3254,0.0*
%
%ADD95ROTATEDRECTD95*%

G04:AMPARAMS|DCode=96|XSize=2.55mm|YSize=2.6mm|CornerRadius=0mm|HoleSize=0mm|Usage=FLASHONLY|Rotation=62.000|XOffset=0mm|YOffset=0mm|HoleType=Round|Shape=Rectangle|*
%AMROTATEDRECTD96*
4,1,4,0.5493,-1.7361,-1.7464,-0.5154,-0.5493,1.7361,1.7464,0.5154,0.5493,-1.7361,0.0*
%
%ADD96ROTATEDRECTD96*%

G04:AMPARAMS|DCode=97|XSize=2.55mm|YSize=1mm|CornerRadius=0mm|HoleSize=0mm|Usage=FLASHONLY|Rotation=62.000|XOffset=0mm|YOffset=0mm|HoleType=Round|Shape=Rectangle|*
%AMROTATEDRECTD97*
4,1,4,-0.1571,-1.3605,-1.0400,-0.8910,0.1571,1.3605,1.0400,0.8910,-0.1571,-1.3605,0.0*
%
%ADD97ROTATEDRECTD97*%

G04:AMPARAMS|DCode=98|XSize=2.55mm|YSize=2.6mm|CornerRadius=0mm|HoleSize=0mm|Usage=FLASHONLY|Rotation=250.000|XOffset=0mm|YOffset=0mm|HoleType=Round|Shape=Rectangle|*
%AMROTATEDRECTD98*
4,1,4,-0.7855,1.6427,1.6577,0.7535,0.7855,-1.6427,-1.6577,-0.7535,-0.7855,1.6427,0.0*
%
%ADD98ROTATEDRECTD98*%

G04:AMPARAMS|DCode=99|XSize=2.55mm|YSize=1mm|CornerRadius=0mm|HoleSize=0mm|Usage=FLASHONLY|Rotation=250.000|XOffset=0mm|YOffset=0mm|HoleType=Round|Shape=Rectangle|*
%AMROTATEDRECTD99*
4,1,4,-0.0338,1.3691,0.9059,1.0271,0.0338,-1.3691,-0.9059,-1.0271,-0.0338,1.3691,0.0*
%
%ADD99ROTATEDRECTD99*%

%ADD101C,2.6000*%
%ADD102C,4.5000*%
D11*
X424895Y-20059D02*
D03*
X423576Y-39013D02*
D03*
D12*
X423342Y-89984D02*
D03*
D13*
X446818Y-94974D02*
D03*
D14*
X550000Y-26250D02*
D03*
X550000Y-58750D02*
D03*
D15*
Y33500D02*
D03*
Y51500D02*
D03*
D16*
X-194188Y376474D02*
D03*
X-177111Y384803D02*
D03*
D17*
X473045Y33078D02*
D03*
D18*
X449103Y31404D02*
D03*
D19*
X423342Y89984D02*
D03*
D20*
X446818Y94974D02*
D03*
D21*
X445602Y162186D02*
D03*
D22*
X423050Y153977D02*
D03*
D23*
X382140Y203187D02*
D03*
D24*
X403330Y214455D02*
D03*
D25*
X383636Y278728D02*
D03*
D26*
X364219Y264621D02*
D03*
D27*
X311330Y300648D02*
D03*
D28*
X328595Y317320D02*
D03*
D29*
X291947Y373675D02*
D03*
D30*
X277171Y354762D02*
D03*
D31*
X216400Y374816D02*
D03*
D32*
X228400Y395600D02*
D03*
D33*
X177638Y439671D02*
D03*
D34*
X168648Y417418D02*
D03*
D35*
X104704Y419944D02*
D03*
D36*
X110510Y443231D02*
D03*
D37*
X49567Y471602D02*
D03*
D38*
X47059Y447734D02*
D03*
D39*
X-15105Y432536D02*
D03*
D40*
X-15942Y456522D02*
D03*
D41*
X-82344Y466996D02*
D03*
D42*
X-78176Y443360D02*
D03*
D43*
X-133743Y411617D02*
D03*
D44*
X-141159Y434443D02*
D03*
D45*
X-230094Y-358118D02*
D03*
X-245846Y-347493D02*
D03*
D46*
X-265169Y393130D02*
D03*
D47*
X-251749Y373233D02*
D03*
D48*
X-289600Y321633D02*
D03*
D49*
X-305659Y339469D02*
D03*
D50*
X-363258Y304810D02*
D03*
D51*
X-344873Y289383D02*
D03*
D52*
X-367035Y229349D02*
D03*
D53*
X-387388Y242067D02*
D03*
D54*
X-433203Y192875D02*
D03*
D55*
X-411278Y183113D02*
D03*
D56*
X-416034Y119296D02*
D03*
D57*
X-439104Y125911D02*
D03*
D58*
X-469585Y65996D02*
D03*
D59*
X-445819Y62656D02*
D03*
D60*
X-432800Y0D02*
D03*
D61*
X-456800D02*
D03*
D62*
X-469585Y-65996D02*
D03*
D63*
X-445819Y-62656D02*
D03*
D64*
X-416034Y-119296D02*
D03*
D65*
X-439104Y-125911D02*
D03*
D66*
X-433203Y-192875D02*
D03*
D67*
X-411278Y-183113D02*
D03*
D68*
X-367035Y-229349D02*
D03*
D69*
X-387388Y-242067D02*
D03*
D70*
X-363258Y-304810D02*
D03*
D71*
X-344873Y-289383D02*
D03*
D72*
X-289600Y-321633D02*
D03*
D73*
X-305659Y-339469D02*
D03*
D74*
X-207876Y-426208D02*
D03*
D75*
X-197355Y-404637D02*
D03*
D76*
X-133743Y-411617D02*
D03*
D77*
X-141159Y-434443D02*
D03*
D78*
X-82344Y-466996D02*
D03*
D79*
X-78176Y-443360D02*
D03*
D80*
X-15105Y-432536D02*
D03*
D81*
X-15942Y-456522D02*
D03*
D82*
X49567Y-471602D02*
D03*
D83*
X47059Y-447734D02*
D03*
D84*
X104704Y-419944D02*
D03*
D85*
X110510Y-443231D02*
D03*
D86*
X177638Y-439671D02*
D03*
D87*
X168648Y-417418D02*
D03*
D88*
X216400Y-374816D02*
D03*
D89*
X228400Y-395600D02*
D03*
D90*
X291815Y-373506D02*
D03*
D91*
X277039Y-354594D02*
D03*
D92*
X311330Y-300648D02*
D03*
D93*
X328595Y-317320D02*
D03*
D94*
X383636Y-278728D02*
D03*
D95*
X364219Y-264621D02*
D03*
D96*
X382140Y-203187D02*
D03*
D97*
X403330Y-214455D02*
D03*
D98*
X445602Y-162186D02*
D03*
D99*
X423050Y-153977D02*
D03*
D101*
X642000Y0D02*
D03*
Y50800D02*
D03*
Y-50800D02*
D03*
D102*
X-203634Y417511D02*
D03*
X-261758Y-385779D02*
D03*
X465064Y-32520D02*
D03*
M02*
