G04 Layer_Color=65535*
%FSLAX44Y44*%
%MOMM*%
G71*
G01*
G75*
%ADD52C,0.1270*%
%ADD53C,0.3048*%
%ADD54C,0.2000*%
%ADD55C,0.2032*%
%ADD56C,0.5080*%
%ADD57C,0.2540*%
G36*
X-180682Y-11394D02*
X-183806D01*
Y-8269D01*
X-180682D01*
Y-11394D01*
D02*
G37*
G36*
X-239331Y10884D02*
X-239059D01*
X-238380Y10850D01*
X-237667Y10782D01*
X-236919Y10646D01*
X-236206Y10511D01*
X-235867Y10409D01*
X-235561Y10307D01*
X-235527D01*
X-235493Y10273D01*
X-235289Y10205D01*
X-235018Y10035D01*
X-234678Y9797D01*
X-234271Y9526D01*
X-233863Y9152D01*
X-233456Y8711D01*
X-233082Y8167D01*
X-233048Y8099D01*
X-232946Y7896D01*
X-232776Y7590D01*
X-232607Y7182D01*
X-232437Y6673D01*
X-232267Y6096D01*
X-232165Y5484D01*
X-232131Y4805D01*
Y4771D01*
Y4703D01*
Y4568D01*
X-232165Y4398D01*
Y4194D01*
X-232199Y3956D01*
X-232335Y3413D01*
X-232505Y2768D01*
X-232776Y2122D01*
X-233184Y1443D01*
X-233422Y1104D01*
X-233693Y798D01*
X-233761Y730D01*
X-233863Y662D01*
X-233965Y526D01*
X-234135Y424D01*
X-234338Y255D01*
X-234576Y119D01*
X-234848Y-51D01*
X-235154Y-221D01*
X-235527Y-391D01*
X-235901Y-560D01*
X-236342Y-730D01*
X-236784Y-900D01*
X-237293Y-1036D01*
X-237836Y-1138D01*
X-238414Y-1239D01*
X-238346Y-1274D01*
X-238210Y-1341D01*
X-238006Y-1443D01*
X-237768Y-1579D01*
X-237191Y-1953D01*
X-236886Y-2156D01*
X-236648Y-2360D01*
X-236580Y-2428D01*
X-236410Y-2564D01*
X-236172Y-2836D01*
X-235867Y-3175D01*
X-235493Y-3617D01*
X-235086Y-4126D01*
X-234644Y-4703D01*
X-234203Y-5349D01*
X-230331Y-11394D01*
X-234033D01*
X-236987Y-6775D01*
Y-6741D01*
X-237055Y-6673D01*
X-237123Y-6571D01*
X-237191Y-6435D01*
X-237429Y-6096D01*
X-237735Y-5654D01*
X-238074Y-5145D01*
X-238448Y-4636D01*
X-238787Y-4160D01*
X-239127Y-3719D01*
X-239161Y-3685D01*
X-239263Y-3549D01*
X-239433Y-3345D01*
X-239602Y-3107D01*
X-240112Y-2632D01*
X-240349Y-2394D01*
X-240621Y-2224D01*
X-240655Y-2190D01*
X-240723Y-2156D01*
X-240859Y-2088D01*
X-241029Y-1987D01*
X-241436Y-1783D01*
X-241945Y-1613D01*
X-241980D01*
X-242047Y-1579D01*
X-242183D01*
X-242353Y-1545D01*
X-242591Y-1511D01*
X-242862D01*
X-243202Y-1477D01*
X-247006D01*
Y-11394D01*
X-249960D01*
Y10918D01*
X-239602D01*
X-239331Y10884D01*
D02*
G37*
G36*
X-195285Y10986D02*
X-195115D01*
X-194877Y10952D01*
X-194334Y10884D01*
X-193723Y10714D01*
X-193077Y10511D01*
X-192364Y10239D01*
X-191685Y9831D01*
X-191651D01*
X-191617Y9764D01*
X-191515Y9696D01*
X-191379Y9628D01*
X-191074Y9356D01*
X-190666Y8982D01*
X-190225Y8473D01*
X-189749Y7930D01*
X-189308Y7250D01*
X-188934Y6469D01*
Y6435D01*
X-188900Y6367D01*
X-188832Y6232D01*
X-188798Y6062D01*
X-188696Y5858D01*
X-188629Y5586D01*
X-188561Y5247D01*
X-188459Y4873D01*
X-188357Y4466D01*
X-188289Y3990D01*
X-188187Y3481D01*
X-188119Y2937D01*
X-188085Y2326D01*
X-188017Y1681D01*
X-187983Y968D01*
Y221D01*
Y187D01*
Y17D01*
Y-187D01*
Y-492D01*
X-188017Y-832D01*
Y-1274D01*
X-188051Y-1715D01*
X-188085Y-2224D01*
X-188221Y-3311D01*
X-188391Y-4466D01*
X-188629Y-5586D01*
X-188764Y-6096D01*
X-188934Y-6605D01*
Y-6639D01*
X-188968Y-6707D01*
X-189036Y-6843D01*
X-189104Y-7013D01*
X-189206Y-7250D01*
X-189308Y-7488D01*
X-189613Y-8031D01*
X-190021Y-8677D01*
X-190496Y-9322D01*
X-191040Y-9933D01*
X-191685Y-10477D01*
X-191719D01*
X-191753Y-10545D01*
X-191855Y-10579D01*
X-192025Y-10680D01*
X-192194Y-10782D01*
X-192398Y-10884D01*
X-192908Y-11122D01*
X-193553Y-11359D01*
X-194266Y-11563D01*
X-195115Y-11699D01*
X-195998Y-11767D01*
X-196236D01*
X-196439Y-11733D01*
X-196643D01*
X-196915Y-11699D01*
X-197526Y-11597D01*
X-198205Y-11428D01*
X-198918Y-11156D01*
X-199598Y-10816D01*
X-200277Y-10341D01*
X-200311Y-10307D01*
X-200345Y-10273D01*
X-200548Y-10069D01*
X-200820Y-9729D01*
X-201160Y-9288D01*
X-201499Y-8711D01*
X-201805Y-7997D01*
X-202077Y-7182D01*
X-202246Y-6232D01*
X-199632Y-6028D01*
Y-6062D01*
Y-6096D01*
X-199598Y-6198D01*
X-199564Y-6334D01*
X-199496Y-6673D01*
X-199360Y-7047D01*
X-199190Y-7488D01*
X-198986Y-7930D01*
X-198715Y-8371D01*
X-198375Y-8711D01*
X-198341Y-8745D01*
X-198205Y-8846D01*
X-198001Y-8982D01*
X-197696Y-9118D01*
X-197356Y-9254D01*
X-196949Y-9390D01*
X-196473Y-9492D01*
X-195930Y-9526D01*
X-195726D01*
X-195488Y-9492D01*
X-195183Y-9458D01*
X-194843Y-9390D01*
X-194470Y-9288D01*
X-194096Y-9152D01*
X-193723Y-8948D01*
X-193689Y-8914D01*
X-193553Y-8846D01*
X-193383Y-8711D01*
X-193179Y-8541D01*
X-192908Y-8337D01*
X-192670Y-8065D01*
X-192398Y-7760D01*
X-192160Y-7420D01*
X-192127Y-7386D01*
X-192059Y-7250D01*
X-191957Y-7013D01*
X-191787Y-6707D01*
X-191651Y-6334D01*
X-191481Y-5892D01*
X-191311Y-5383D01*
X-191142Y-4805D01*
Y-4771D01*
X-191108Y-4737D01*
Y-4636D01*
X-191074Y-4534D01*
X-191006Y-4194D01*
X-190938Y-3753D01*
X-190870Y-3243D01*
X-190802Y-2700D01*
X-190734Y-2088D01*
Y-1443D01*
Y-1409D01*
Y-1307D01*
Y-1138D01*
Y-900D01*
X-190768Y-968D01*
X-190904Y-1104D01*
X-191074Y-1375D01*
X-191345Y-1647D01*
X-191651Y-1987D01*
X-192059Y-2360D01*
X-192500Y-2700D01*
X-193009Y-3039D01*
X-193077Y-3073D01*
X-193247Y-3175D01*
X-193553Y-3277D01*
X-193926Y-3413D01*
X-194368Y-3583D01*
X-194877Y-3685D01*
X-195455Y-3787D01*
X-196066Y-3821D01*
X-196338D01*
X-196541Y-3787D01*
X-196779Y-3753D01*
X-197051Y-3719D01*
X-197696Y-3583D01*
X-198443Y-3345D01*
X-198817Y-3175D01*
X-199224Y-2971D01*
X-199598Y-2734D01*
X-200005Y-2462D01*
X-200379Y-2156D01*
X-200752Y-1817D01*
X-200786Y-1783D01*
X-200820Y-1715D01*
X-200922Y-1613D01*
X-201058Y-1443D01*
X-201194Y-1239D01*
X-201364Y-1002D01*
X-201533Y-730D01*
X-201703Y-391D01*
X-201873Y-51D01*
X-202043Y357D01*
X-202213Y798D01*
X-202348Y1274D01*
X-202484Y1783D01*
X-202586Y2292D01*
X-202620Y2870D01*
X-202654Y3481D01*
Y3515D01*
Y3617D01*
Y3821D01*
X-202620Y4058D01*
X-202586Y4330D01*
X-202552Y4669D01*
X-202484Y5043D01*
X-202416Y5451D01*
X-202179Y6300D01*
X-202009Y6775D01*
X-201805Y7217D01*
X-201601Y7692D01*
X-201330Y8133D01*
X-201024Y8541D01*
X-200684Y8948D01*
X-200650Y8982D01*
X-200583Y9050D01*
X-200481Y9152D01*
X-200311Y9288D01*
X-200141Y9424D01*
X-199903Y9594D01*
X-199632Y9797D01*
X-199292Y10001D01*
X-198952Y10171D01*
X-198579Y10375D01*
X-197730Y10714D01*
X-197254Y10816D01*
X-196745Y10918D01*
X-196202Y10986D01*
X-195658Y11020D01*
X-195455D01*
X-195285Y10986D01*
D02*
G37*
G36*
X50495Y-571394D02*
X47744D01*
Y-553938D01*
X47710Y-553972D01*
X47574Y-554108D01*
X47337Y-554278D01*
X47031Y-554515D01*
X46657Y-554821D01*
X46216Y-555127D01*
X45706Y-555500D01*
X45129Y-555840D01*
X45095D01*
X45061Y-555874D01*
X44857Y-556010D01*
X44552Y-556180D01*
X44178Y-556383D01*
X43737Y-556621D01*
X43261Y-556825D01*
X42752Y-557062D01*
X42277Y-557266D01*
Y-554583D01*
X42310D01*
X42378Y-554549D01*
X42514Y-554482D01*
X42650Y-554380D01*
X42854Y-554278D01*
X43092Y-554176D01*
X43635Y-553870D01*
X44246Y-553497D01*
X44925Y-553055D01*
X45605Y-552546D01*
X46250Y-552002D01*
X46284Y-551968D01*
X46318Y-551935D01*
X46521Y-551731D01*
X46827Y-551425D01*
X47201Y-551052D01*
X47608Y-550576D01*
X48016Y-550067D01*
X48389Y-549523D01*
X48695Y-548980D01*
X50495D01*
Y-571394D01*
D02*
G37*
G36*
X65403Y-549014D02*
X65675Y-549048D01*
X65980Y-549082D01*
X66320Y-549116D01*
X66694Y-549218D01*
X67509Y-549422D01*
X68358Y-549727D01*
X68799Y-549931D01*
X69207Y-550169D01*
X69580Y-550474D01*
X69954Y-550780D01*
X69988Y-550814D01*
X70022Y-550848D01*
X70124Y-550950D01*
X70259Y-551086D01*
X70395Y-551289D01*
X70565Y-551493D01*
X70905Y-552002D01*
X71244Y-552648D01*
X71550Y-553395D01*
X71788Y-554244D01*
X71821Y-554719D01*
X71856Y-555195D01*
Y-555263D01*
Y-555432D01*
X71821Y-555704D01*
X71788Y-556044D01*
X71720Y-556451D01*
X71618Y-556893D01*
X71482Y-557368D01*
X71278Y-557844D01*
X71244Y-557911D01*
X71176Y-558081D01*
X71040Y-558319D01*
X70837Y-558659D01*
X70599Y-559066D01*
X70293Y-559542D01*
X69886Y-560017D01*
X69444Y-560560D01*
X69376Y-560628D01*
X69207Y-560832D01*
X68901Y-561138D01*
X68697Y-561341D01*
X68460Y-561579D01*
X68188Y-561851D01*
X67848Y-562156D01*
X67509Y-562462D01*
X67135Y-562836D01*
X66727Y-563209D01*
X66252Y-563617D01*
X65777Y-564024D01*
X65233Y-564500D01*
X65199Y-564534D01*
X65131Y-564602D01*
X64996Y-564703D01*
X64826Y-564839D01*
X64418Y-565179D01*
X63909Y-565620D01*
X63400Y-566096D01*
X62856Y-566571D01*
X62415Y-566979D01*
X62245Y-567149D01*
X62075Y-567318D01*
X62041Y-567352D01*
X61973Y-567454D01*
X61837Y-567590D01*
X61667Y-567794D01*
X61294Y-568235D01*
X60920Y-568779D01*
X71889D01*
Y-571394D01*
X57117D01*
Y-571359D01*
Y-571224D01*
Y-571020D01*
X57151Y-570782D01*
X57185Y-570510D01*
X57219Y-570205D01*
X57321Y-569865D01*
X57422Y-569526D01*
Y-569492D01*
X57456Y-569458D01*
X57524Y-569254D01*
X57660Y-568982D01*
X57864Y-568575D01*
X58102Y-568133D01*
X58441Y-567624D01*
X58781Y-567115D01*
X59222Y-566571D01*
Y-566537D01*
X59290Y-566503D01*
X59460Y-566300D01*
X59732Y-565994D01*
X60139Y-565586D01*
X60649Y-565111D01*
X61260Y-564534D01*
X62007Y-563888D01*
X62822Y-563175D01*
X62856Y-563141D01*
X62992Y-563039D01*
X63162Y-562904D01*
X63400Y-562666D01*
X63705Y-562428D01*
X64045Y-562122D01*
X64792Y-561477D01*
X65607Y-560696D01*
X66422Y-559915D01*
X66829Y-559542D01*
X67169Y-559168D01*
X67475Y-558794D01*
X67746Y-558455D01*
Y-558421D01*
X67814Y-558387D01*
X67882Y-558285D01*
X67950Y-558149D01*
X68154Y-557810D01*
X68392Y-557368D01*
X68629Y-556859D01*
X68833Y-556315D01*
X68969Y-555704D01*
X69037Y-555127D01*
Y-555093D01*
Y-555059D01*
X69003Y-554855D01*
X68969Y-554549D01*
X68901Y-554176D01*
X68731Y-553734D01*
X68527Y-553293D01*
X68256Y-552817D01*
X67848Y-552376D01*
X67780Y-552342D01*
X67644Y-552206D01*
X67373Y-552036D01*
X67033Y-551799D01*
X66592Y-551595D01*
X66082Y-551425D01*
X65471Y-551289D01*
X64792Y-551255D01*
X64588D01*
X64452Y-551289D01*
X64113Y-551323D01*
X63671Y-551391D01*
X63162Y-551561D01*
X62618Y-551765D01*
X62109Y-552070D01*
X61634Y-552478D01*
X61600Y-552546D01*
X61464Y-552682D01*
X61260Y-552953D01*
X61056Y-553327D01*
X60819Y-553802D01*
X60649Y-554346D01*
X60513Y-554991D01*
X60445Y-555738D01*
X57626Y-555432D01*
Y-555398D01*
Y-555297D01*
X57660Y-555127D01*
X57694Y-554923D01*
X57762Y-554651D01*
X57796Y-554346D01*
X58000Y-553666D01*
X58271Y-552885D01*
X58645Y-552104D01*
X59155Y-551323D01*
X59426Y-550984D01*
X59766Y-550644D01*
X59800Y-550610D01*
X59868Y-550576D01*
X59970Y-550474D01*
X60105Y-550372D01*
X60309Y-550271D01*
X60547Y-550101D01*
X60819Y-549965D01*
X61124Y-549795D01*
X61464Y-549659D01*
X61837Y-549489D01*
X62279Y-549354D01*
X62720Y-549252D01*
X63739Y-549048D01*
X64282Y-549014D01*
X64860Y-548980D01*
X65165D01*
X65403Y-549014D01*
D02*
G37*
G36*
X96782Y-571394D02*
X93658D01*
Y-568269D01*
X96782D01*
Y-571394D01*
D02*
G37*
G36*
X-81458Y145668D02*
X-90356D01*
X-91578Y139657D01*
X-91544Y139691D01*
X-91476Y139725D01*
X-91374Y139793D01*
X-91238Y139895D01*
X-91035Y139997D01*
X-90831Y140099D01*
X-90288Y140370D01*
X-89676Y140642D01*
X-88963Y140846D01*
X-88182Y141016D01*
X-87367Y141083D01*
X-87095D01*
X-86892Y141049D01*
X-86620Y141016D01*
X-86348Y140982D01*
X-86009Y140914D01*
X-85669Y140846D01*
X-84888Y140574D01*
X-84480Y140438D01*
X-84073Y140234D01*
X-83631Y139997D01*
X-83224Y139725D01*
X-82816Y139419D01*
X-82443Y139046D01*
X-82409Y139012D01*
X-82341Y138944D01*
X-82239Y138842D01*
X-82137Y138672D01*
X-81967Y138469D01*
X-81798Y138231D01*
X-81628Y137959D01*
X-81424Y137653D01*
X-81220Y137280D01*
X-81051Y136906D01*
X-80881Y136465D01*
X-80711Y136023D01*
X-80609Y135514D01*
X-80507Y135005D01*
X-80439Y134427D01*
X-80405Y133850D01*
Y133816D01*
Y133714D01*
Y133544D01*
X-80439Y133341D01*
X-80473Y133069D01*
X-80507Y132763D01*
X-80541Y132424D01*
X-80609Y132050D01*
X-80847Y131235D01*
X-81152Y130386D01*
X-81356Y129911D01*
X-81594Y129469D01*
X-81866Y129028D01*
X-82171Y128620D01*
X-82205Y128586D01*
X-82273Y128518D01*
X-82409Y128382D01*
X-82579Y128213D01*
X-82782Y128009D01*
X-83054Y127771D01*
X-83360Y127533D01*
X-83733Y127296D01*
X-84107Y127024D01*
X-84548Y126786D01*
X-85058Y126549D01*
X-85567Y126345D01*
X-86145Y126175D01*
X-86722Y126039D01*
X-87367Y125971D01*
X-88046Y125937D01*
X-88352D01*
X-88556Y125971D01*
X-88793Y126005D01*
X-89099Y126039D01*
X-89439Y126073D01*
X-89812Y126141D01*
X-90593Y126345D01*
X-91408Y126650D01*
X-91816Y126854D01*
X-92223Y127092D01*
X-92631Y127330D01*
X-93004Y127635D01*
X-93038Y127669D01*
X-93072Y127703D01*
X-93174Y127805D01*
X-93310Y127941D01*
X-93446Y128111D01*
X-93616Y128315D01*
X-93785Y128552D01*
X-93989Y128824D01*
X-94363Y129469D01*
X-94736Y130250D01*
X-95008Y131133D01*
X-95110Y131643D01*
X-95178Y132152D01*
X-92291Y132356D01*
Y132322D01*
Y132254D01*
X-92257Y132152D01*
X-92223Y132016D01*
X-92121Y131643D01*
X-91986Y131167D01*
X-91816Y130658D01*
X-91544Y130148D01*
X-91238Y129639D01*
X-90831Y129198D01*
X-90763Y129164D01*
X-90627Y129028D01*
X-90389Y128892D01*
X-90050Y128688D01*
X-89642Y128518D01*
X-89167Y128349D01*
X-88624Y128213D01*
X-88046Y128179D01*
X-87843D01*
X-87707Y128213D01*
X-87333Y128247D01*
X-86858Y128349D01*
X-86348Y128552D01*
X-85771Y128790D01*
X-85228Y129164D01*
X-84956Y129367D01*
X-84684Y129639D01*
Y129673D01*
X-84616Y129707D01*
X-84480Y129911D01*
X-84243Y130250D01*
X-84005Y130692D01*
X-83767Y131269D01*
X-83530Y131948D01*
X-83394Y132729D01*
X-83326Y133612D01*
Y133646D01*
Y133714D01*
Y133850D01*
X-83360Y133986D01*
Y134190D01*
X-83394Y134427D01*
X-83496Y134971D01*
X-83631Y135548D01*
X-83869Y136159D01*
X-84209Y136770D01*
X-84650Y137314D01*
X-84718Y137382D01*
X-84888Y137518D01*
X-85160Y137755D01*
X-85567Y137993D01*
X-86043Y138231D01*
X-86654Y138469D01*
X-87333Y138604D01*
X-88080Y138672D01*
X-88318D01*
X-88556Y138638D01*
X-88895Y138604D01*
X-89269Y138502D01*
X-89676Y138401D01*
X-90084Y138231D01*
X-90491Y138027D01*
X-90525Y137993D01*
X-90661Y137925D01*
X-90865Y137789D01*
X-91103Y137619D01*
X-91340Y137382D01*
X-91612Y137110D01*
X-91884Y136805D01*
X-92121Y136465D01*
X-94702Y136838D01*
X-92529Y148283D01*
X-81458D01*
Y145668D01*
D02*
G37*
G36*
X82723Y-549014D02*
X82994Y-549048D01*
X83300Y-549082D01*
X83639Y-549116D01*
X84013Y-549218D01*
X84828Y-549422D01*
X85677Y-549727D01*
X86119Y-549931D01*
X86526Y-550169D01*
X86900Y-550474D01*
X87273Y-550780D01*
X87307Y-550814D01*
X87341Y-550848D01*
X87443Y-550950D01*
X87579Y-551086D01*
X87715Y-551289D01*
X87885Y-551493D01*
X88224Y-552002D01*
X88564Y-552648D01*
X88869Y-553395D01*
X89107Y-554244D01*
X89141Y-554719D01*
X89175Y-555195D01*
Y-555263D01*
Y-555432D01*
X89141Y-555704D01*
X89107Y-556044D01*
X89039Y-556451D01*
X88937Y-556893D01*
X88801Y-557368D01*
X88598Y-557844D01*
X88564Y-557911D01*
X88496Y-558081D01*
X88360Y-558319D01*
X88156Y-558659D01*
X87918Y-559066D01*
X87613Y-559542D01*
X87205Y-560017D01*
X86764Y-560560D01*
X86696Y-560628D01*
X86526Y-560832D01*
X86221Y-561138D01*
X86017Y-561341D01*
X85779Y-561579D01*
X85507Y-561851D01*
X85168Y-562156D01*
X84828Y-562462D01*
X84454Y-562836D01*
X84047Y-563209D01*
X83572Y-563617D01*
X83096Y-564024D01*
X82553Y-564500D01*
X82519Y-564534D01*
X82451Y-564602D01*
X82315Y-564703D01*
X82145Y-564839D01*
X81738Y-565179D01*
X81228Y-565620D01*
X80719Y-566096D01*
X80176Y-566571D01*
X79734Y-566979D01*
X79564Y-567149D01*
X79394Y-567318D01*
X79361Y-567352D01*
X79293Y-567454D01*
X79157Y-567590D01*
X78987Y-567794D01*
X78614Y-568235D01*
X78240Y-568779D01*
X89209D01*
Y-571394D01*
X74436D01*
Y-571359D01*
Y-571224D01*
Y-571020D01*
X74470Y-570782D01*
X74504Y-570510D01*
X74538Y-570205D01*
X74640Y-569865D01*
X74742Y-569526D01*
Y-569492D01*
X74776Y-569458D01*
X74844Y-569254D01*
X74980Y-568982D01*
X75184Y-568575D01*
X75421Y-568133D01*
X75761Y-567624D01*
X76100Y-567115D01*
X76542Y-566571D01*
Y-566537D01*
X76610Y-566503D01*
X76780Y-566300D01*
X77051Y-565994D01*
X77459Y-565586D01*
X77968Y-565111D01*
X78580Y-564534D01*
X79327Y-563888D01*
X80142Y-563175D01*
X80176Y-563141D01*
X80311Y-563039D01*
X80481Y-562904D01*
X80719Y-562666D01*
X81025Y-562428D01*
X81364Y-562122D01*
X82111Y-561477D01*
X82926Y-560696D01*
X83741Y-559915D01*
X84149Y-559542D01*
X84488Y-559168D01*
X84794Y-558794D01*
X85066Y-558455D01*
Y-558421D01*
X85134Y-558387D01*
X85202Y-558285D01*
X85270Y-558149D01*
X85473Y-557810D01*
X85711Y-557368D01*
X85949Y-556859D01*
X86152Y-556315D01*
X86288Y-555704D01*
X86356Y-555127D01*
Y-555093D01*
Y-555059D01*
X86322Y-554855D01*
X86288Y-554549D01*
X86221Y-554176D01*
X86051Y-553734D01*
X85847Y-553293D01*
X85575Y-552817D01*
X85168Y-552376D01*
X85100Y-552342D01*
X84964Y-552206D01*
X84692Y-552036D01*
X84353Y-551799D01*
X83911Y-551595D01*
X83402Y-551425D01*
X82790Y-551289D01*
X82111Y-551255D01*
X81908D01*
X81772Y-551289D01*
X81432Y-551323D01*
X80991Y-551391D01*
X80481Y-551561D01*
X79938Y-551765D01*
X79429Y-552070D01*
X78953Y-552478D01*
X78919Y-552546D01*
X78783Y-552682D01*
X78580Y-552953D01*
X78376Y-553327D01*
X78138Y-553802D01*
X77968Y-554346D01*
X77832Y-554991D01*
X77765Y-555738D01*
X74946Y-555432D01*
Y-555398D01*
Y-555297D01*
X74980Y-555127D01*
X75014Y-554923D01*
X75082Y-554651D01*
X75116Y-554346D01*
X75319Y-553666D01*
X75591Y-552885D01*
X75965Y-552104D01*
X76474Y-551323D01*
X76746Y-550984D01*
X77085Y-550644D01*
X77119Y-550610D01*
X77187Y-550576D01*
X77289Y-550474D01*
X77425Y-550372D01*
X77629Y-550271D01*
X77866Y-550101D01*
X78138Y-549965D01*
X78444Y-549795D01*
X78783Y-549659D01*
X79157Y-549489D01*
X79598Y-549354D01*
X80040Y-549252D01*
X81059Y-549048D01*
X81602Y-549014D01*
X82179Y-548980D01*
X82485D01*
X82723Y-549014D01*
D02*
G37*
G36*
X-151443Y10986D02*
X-151035Y10918D01*
X-150560Y10850D01*
X-150016Y10714D01*
X-149473Y10511D01*
X-148964Y10273D01*
X-148896Y10239D01*
X-148726Y10137D01*
X-148488Y9967D01*
X-148148Y9764D01*
X-147809Y9458D01*
X-147435Y9084D01*
X-147062Y8677D01*
X-146722Y8201D01*
X-146688Y8133D01*
X-146586Y7964D01*
X-146417Y7658D01*
X-146213Y7284D01*
X-146009Y6809D01*
X-145771Y6232D01*
X-145534Y5586D01*
X-145330Y4873D01*
Y4839D01*
X-145296Y4771D01*
Y4669D01*
X-145262Y4500D01*
X-145194Y4330D01*
X-145160Y4092D01*
X-145126Y3787D01*
X-145058Y3481D01*
X-145024Y3107D01*
X-144990Y2734D01*
X-144922Y2292D01*
X-144888Y1817D01*
X-144854Y1308D01*
Y798D01*
X-144820Y-391D01*
Y-424D01*
Y-560D01*
Y-764D01*
Y-1036D01*
X-144854Y-1375D01*
Y-1749D01*
X-144888Y-2190D01*
X-144922Y-2666D01*
X-145024Y-3685D01*
X-145160Y-4737D01*
X-145364Y-5790D01*
X-145500Y-6266D01*
X-145635Y-6741D01*
Y-6775D01*
X-145669Y-6843D01*
X-145703Y-6979D01*
X-145771Y-7149D01*
X-145873Y-7352D01*
X-145975Y-7556D01*
X-146247Y-8099D01*
X-146586Y-8711D01*
X-146994Y-9322D01*
X-147469Y-9933D01*
X-148047Y-10477D01*
X-148081D01*
X-148115Y-10545D01*
X-148216Y-10579D01*
X-148318Y-10680D01*
X-148692Y-10884D01*
X-149133Y-11122D01*
X-149745Y-11359D01*
X-150424Y-11563D01*
X-151205Y-11699D01*
X-152088Y-11767D01*
X-152394D01*
X-152631Y-11733D01*
X-152903Y-11699D01*
X-153209Y-11631D01*
X-153548Y-11563D01*
X-153922Y-11495D01*
X-154737Y-11224D01*
X-155178Y-11020D01*
X-155586Y-10816D01*
X-156027Y-10545D01*
X-156435Y-10239D01*
X-156808Y-9899D01*
X-157182Y-9492D01*
X-157216Y-9458D01*
X-157284Y-9356D01*
X-157386Y-9186D01*
X-157521Y-8948D01*
X-157691Y-8643D01*
X-157861Y-8269D01*
X-158065Y-7828D01*
X-158268Y-7284D01*
X-158472Y-6707D01*
X-158676Y-6028D01*
X-158846Y-5281D01*
X-159016Y-4466D01*
X-159151Y-3549D01*
X-159253Y-2598D01*
X-159321Y-1511D01*
X-159355Y-391D01*
Y-357D01*
Y-221D01*
Y-17D01*
Y255D01*
X-159321Y594D01*
Y968D01*
X-159287Y1409D01*
X-159253Y1885D01*
X-159151Y2904D01*
X-159016Y3956D01*
X-158846Y5009D01*
X-158710Y5484D01*
X-158574Y5960D01*
Y5994D01*
X-158540Y6062D01*
X-158472Y6198D01*
X-158404Y6367D01*
X-158336Y6571D01*
X-158235Y6809D01*
X-157963Y7352D01*
X-157623Y7964D01*
X-157216Y8575D01*
X-156740Y9152D01*
X-156163Y9696D01*
X-156129D01*
X-156095Y9764D01*
X-155993Y9831D01*
X-155857Y9899D01*
X-155518Y10103D01*
X-155042Y10375D01*
X-154465Y10612D01*
X-153752Y10816D01*
X-152971Y10952D01*
X-152088Y11020D01*
X-151782D01*
X-151443Y10986D01*
D02*
G37*
G36*
X-168762D02*
X-168355Y10918D01*
X-167879Y10850D01*
X-167336Y10714D01*
X-166793Y10511D01*
X-166283Y10273D01*
X-166215Y10239D01*
X-166045Y10137D01*
X-165808Y9967D01*
X-165468Y9764D01*
X-165128Y9458D01*
X-164755Y9084D01*
X-164381Y8677D01*
X-164042Y8201D01*
X-164008Y8133D01*
X-163906Y7964D01*
X-163736Y7658D01*
X-163532Y7284D01*
X-163329Y6809D01*
X-163091Y6232D01*
X-162853Y5586D01*
X-162649Y4873D01*
Y4839D01*
X-162615Y4771D01*
Y4669D01*
X-162581Y4500D01*
X-162514Y4330D01*
X-162480Y4092D01*
X-162446Y3787D01*
X-162378Y3481D01*
X-162344Y3107D01*
X-162310Y2734D01*
X-162242Y2292D01*
X-162208Y1817D01*
X-162174Y1308D01*
Y798D01*
X-162140Y-391D01*
Y-424D01*
Y-560D01*
Y-764D01*
Y-1036D01*
X-162174Y-1375D01*
Y-1749D01*
X-162208Y-2190D01*
X-162242Y-2666D01*
X-162344Y-3685D01*
X-162480Y-4737D01*
X-162683Y-5790D01*
X-162819Y-6266D01*
X-162955Y-6741D01*
Y-6775D01*
X-162989Y-6843D01*
X-163023Y-6979D01*
X-163091Y-7149D01*
X-163193Y-7352D01*
X-163295Y-7556D01*
X-163566Y-8099D01*
X-163906Y-8711D01*
X-164313Y-9322D01*
X-164789Y-9933D01*
X-165366Y-10477D01*
X-165400D01*
X-165434Y-10545D01*
X-165536Y-10579D01*
X-165638Y-10680D01*
X-166011Y-10884D01*
X-166453Y-11122D01*
X-167064Y-11359D01*
X-167743Y-11563D01*
X-168524Y-11699D01*
X-169407Y-11767D01*
X-169713D01*
X-169951Y-11733D01*
X-170222Y-11699D01*
X-170528Y-11631D01*
X-170868Y-11563D01*
X-171241Y-11495D01*
X-172056Y-11224D01*
X-172498Y-11020D01*
X-172905Y-10816D01*
X-173347Y-10545D01*
X-173754Y-10239D01*
X-174128Y-9899D01*
X-174501Y-9492D01*
X-174535Y-9458D01*
X-174603Y-9356D01*
X-174705Y-9186D01*
X-174841Y-8948D01*
X-175011Y-8643D01*
X-175180Y-8269D01*
X-175384Y-7828D01*
X-175588Y-7284D01*
X-175792Y-6707D01*
X-175996Y-6028D01*
X-176165Y-5281D01*
X-176335Y-4466D01*
X-176471Y-3549D01*
X-176573Y-2598D01*
X-176641Y-1511D01*
X-176675Y-391D01*
Y-357D01*
Y-221D01*
Y-17D01*
Y255D01*
X-176641Y594D01*
Y968D01*
X-176607Y1409D01*
X-176573Y1885D01*
X-176471Y2904D01*
X-176335Y3956D01*
X-176165Y5009D01*
X-176029Y5484D01*
X-175894Y5960D01*
Y5994D01*
X-175860Y6062D01*
X-175792Y6198D01*
X-175724Y6367D01*
X-175656Y6571D01*
X-175554Y6809D01*
X-175282Y7352D01*
X-174943Y7964D01*
X-174535Y8575D01*
X-174060Y9152D01*
X-173482Y9696D01*
X-173449D01*
X-173415Y9764D01*
X-173313Y9831D01*
X-173177Y9899D01*
X-172837Y10103D01*
X-172362Y10375D01*
X-171784Y10612D01*
X-171071Y10816D01*
X-170290Y10952D01*
X-169407Y11020D01*
X-169102D01*
X-168762Y10986D01*
D02*
G37*
G36*
X-153848Y-440083D02*
X-155692Y-445358D01*
X-155965Y-445255D01*
X-156233Y-445137D01*
X-156494Y-445005D01*
X-156748Y-444860D01*
X-156994Y-444701D01*
X-157232Y-444530D01*
X-157460Y-444347D01*
X-157678Y-444152D01*
X-157886Y-443946D01*
X-158082Y-443730D01*
X-158267Y-443503D01*
X-158440Y-443267D01*
X-158600Y-443022D01*
X-158748Y-442770D01*
X-158882Y-442509D01*
X-159002Y-442243D01*
X-159108Y-441970D01*
X-159199Y-441692D01*
X-159276Y-441410D01*
X-159338Y-441124D01*
X-159385Y-440835D01*
X-159417Y-440544D01*
X-159433Y-440252D01*
X-159434Y-439960D01*
X-159420Y-439667D01*
X-159391Y-439376D01*
X-159346Y-439087D01*
X-159286Y-438801D01*
X-159212Y-438518D01*
X-159123Y-438239D01*
X-153848Y-440083D01*
D02*
G37*
G36*
X155972Y-445260D02*
X155693Y-445350D01*
X155410Y-445425D01*
X155124Y-445484D01*
X154835Y-445529D01*
X154544Y-445559D01*
X154251Y-445573D01*
X153959Y-445572D01*
X153667Y-445556D01*
X153376Y-445524D01*
X153087Y-445477D01*
X152801Y-445416D01*
X152519Y-445339D01*
X152241Y-445248D01*
X151968Y-445142D01*
X151701Y-445022D01*
X151441Y-444888D01*
X151188Y-444741D01*
X150943Y-444581D01*
X150707Y-444408D01*
X150481Y-444223D01*
X150264Y-444027D01*
X150058Y-443819D01*
X149863Y-443601D01*
X149679Y-443373D01*
X149508Y-443136D01*
X149350Y-442890D01*
X149204Y-442636D01*
X149072Y-442375D01*
X148954Y-442107D01*
X148850Y-441834D01*
X154124Y-439987D01*
X155972Y-445260D01*
D02*
G37*
G36*
X429Y-435220D02*
X721Y-435242D01*
X1011Y-435280D01*
X1299Y-435334D01*
X1583Y-435402D01*
X1864Y-435485D01*
X2139Y-435583D01*
X2410Y-435694D01*
X2674Y-435820D01*
X2931Y-435960D01*
X3180Y-436113D01*
X3422Y-436278D01*
X3654Y-436456D01*
X3876Y-436646D01*
X4089Y-436847D01*
X4290Y-437060D01*
X4480Y-437282D01*
X4658Y-437514D01*
X4824Y-437755D01*
X4977Y-438004D01*
X5117Y-438261D01*
X5243Y-438526D01*
X5355Y-438796D01*
X5452Y-439072D01*
X5536Y-439352D01*
X5604Y-439636D01*
X5657Y-439924D01*
X5696Y-440214D01*
X5719Y-440506D01*
X5727Y-440798D01*
X138Y-440800D01*
X137Y-435212D01*
X429Y-435220D01*
D02*
G37*
G36*
X251147Y-399386D02*
X250895Y-399535D01*
X250636Y-399671D01*
X250370Y-399793D01*
X250098Y-399901D01*
X249821Y-399995D01*
X249539Y-400074D01*
X249254Y-400138D01*
X248966Y-400187D01*
X248675Y-400221D01*
X248383Y-400240D01*
X248090Y-400243D01*
X247798Y-400231D01*
X247507Y-400204D01*
X247217Y-400162D01*
X246931Y-400104D01*
X246647Y-400032D01*
X246368Y-399944D01*
X246094Y-399843D01*
X245825Y-399727D01*
X245563Y-399597D01*
X245308Y-399454D01*
X245061Y-399297D01*
X244822Y-399128D01*
X244592Y-398946D01*
X244373Y-398753D01*
X244163Y-398549D01*
X243965Y-398334D01*
X243778Y-398108D01*
X243604Y-397874D01*
X243442Y-397630D01*
X248172Y-394656D01*
X251147Y-399386D01*
D02*
G37*
G36*
X98436Y-424132D02*
X98728Y-424150D01*
X99018Y-424184D01*
X99307Y-424233D01*
X99592Y-424297D01*
X99874Y-424376D01*
X100151Y-424469D01*
X100423Y-424577D01*
X100689Y-424699D01*
X100948Y-424834D01*
X101200Y-424983D01*
X101444Y-425145D01*
X101678Y-425320D01*
X101904Y-425507D01*
X102119Y-425705D01*
X102324Y-425914D01*
X102517Y-426133D01*
X102699Y-426363D01*
X102868Y-426601D01*
X103025Y-426848D01*
X103168Y-427103D01*
X103298Y-427365D01*
X103414Y-427634D01*
X103516Y-427908D01*
X103603Y-428187D01*
X103676Y-428471D01*
X98229Y-429716D01*
X96983Y-424268D01*
X97270Y-424211D01*
X97560Y-424168D01*
X97851Y-424141D01*
X98143Y-424129D01*
X98436Y-424132D01*
D02*
G37*
G36*
X108702Y-549014D02*
X109109Y-549082D01*
X109585Y-549150D01*
X110128Y-549286D01*
X110672Y-549489D01*
X111181Y-549727D01*
X111249Y-549761D01*
X111419Y-549863D01*
X111656Y-550033D01*
X111996Y-550237D01*
X112336Y-550542D01*
X112709Y-550916D01*
X113083Y-551323D01*
X113422Y-551799D01*
X113456Y-551867D01*
X113558Y-552036D01*
X113728Y-552342D01*
X113932Y-552716D01*
X114135Y-553191D01*
X114373Y-553768D01*
X114611Y-554414D01*
X114815Y-555127D01*
Y-555161D01*
X114849Y-555229D01*
Y-555331D01*
X114882Y-555500D01*
X114950Y-555670D01*
X114984Y-555908D01*
X115018Y-556213D01*
X115086Y-556519D01*
X115120Y-556893D01*
X115154Y-557266D01*
X115222Y-557708D01*
X115256Y-558183D01*
X115290Y-558693D01*
Y-559202D01*
X115324Y-560391D01*
Y-560424D01*
Y-560560D01*
Y-560764D01*
Y-561036D01*
X115290Y-561375D01*
Y-561749D01*
X115256Y-562190D01*
X115222Y-562666D01*
X115120Y-563685D01*
X114984Y-564737D01*
X114781Y-565790D01*
X114645Y-566266D01*
X114509Y-566741D01*
Y-566775D01*
X114475Y-566843D01*
X114441Y-566979D01*
X114373Y-567149D01*
X114271Y-567352D01*
X114169Y-567556D01*
X113898Y-568099D01*
X113558Y-568711D01*
X113151Y-569322D01*
X112675Y-569933D01*
X112098Y-570477D01*
X112064D01*
X112030Y-570545D01*
X111928Y-570578D01*
X111826Y-570680D01*
X111453Y-570884D01*
X111011Y-571122D01*
X110400Y-571359D01*
X109721Y-571563D01*
X108940Y-571699D01*
X108057Y-571767D01*
X107751D01*
X107513Y-571733D01*
X107242Y-571699D01*
X106936Y-571631D01*
X106596Y-571563D01*
X106223Y-571495D01*
X105408Y-571224D01*
X104966Y-571020D01*
X104559Y-570816D01*
X104117Y-570545D01*
X103710Y-570239D01*
X103336Y-569899D01*
X102963Y-569492D01*
X102929Y-569458D01*
X102861Y-569356D01*
X102759Y-569186D01*
X102623Y-568948D01*
X102453Y-568643D01*
X102283Y-568269D01*
X102080Y-567828D01*
X101876Y-567284D01*
X101672Y-566707D01*
X101468Y-566028D01*
X101299Y-565281D01*
X101129Y-564466D01*
X100993Y-563549D01*
X100891Y-562598D01*
X100823Y-561511D01*
X100789Y-560391D01*
Y-560357D01*
Y-560221D01*
Y-560017D01*
Y-559745D01*
X100823Y-559406D01*
Y-559032D01*
X100857Y-558591D01*
X100891Y-558115D01*
X100993Y-557096D01*
X101129Y-556044D01*
X101299Y-554991D01*
X101434Y-554515D01*
X101570Y-554040D01*
Y-554006D01*
X101604Y-553938D01*
X101672Y-553802D01*
X101740Y-553633D01*
X101808Y-553429D01*
X101910Y-553191D01*
X102182Y-552648D01*
X102521Y-552036D01*
X102929Y-551425D01*
X103404Y-550848D01*
X103981Y-550304D01*
X104015D01*
X104049Y-550237D01*
X104151Y-550169D01*
X104287Y-550101D01*
X104627Y-549897D01*
X105102Y-549625D01*
X105679Y-549388D01*
X106393Y-549184D01*
X107174Y-549048D01*
X108057Y-548980D01*
X108362D01*
X108702Y-549014D01*
D02*
G37*
G36*
X126021D02*
X126429Y-549082D01*
X126904Y-549150D01*
X127448Y-549286D01*
X127991Y-549489D01*
X128500Y-549727D01*
X128568Y-549761D01*
X128738Y-549863D01*
X128976Y-550033D01*
X129315Y-550237D01*
X129655Y-550542D01*
X130029Y-550916D01*
X130402Y-551323D01*
X130742Y-551799D01*
X130776Y-551867D01*
X130878Y-552036D01*
X131047Y-552342D01*
X131251Y-552716D01*
X131455Y-553191D01*
X131693Y-553768D01*
X131930Y-554414D01*
X132134Y-555127D01*
Y-555161D01*
X132168Y-555229D01*
Y-555331D01*
X132202Y-555500D01*
X132270Y-555670D01*
X132304Y-555908D01*
X132338Y-556213D01*
X132406Y-556519D01*
X132440Y-556893D01*
X132474Y-557266D01*
X132542Y-557708D01*
X132576Y-558183D01*
X132610Y-558693D01*
Y-559202D01*
X132643Y-560391D01*
Y-560424D01*
Y-560560D01*
Y-560764D01*
Y-561036D01*
X132610Y-561375D01*
Y-561749D01*
X132576Y-562190D01*
X132542Y-562666D01*
X132440Y-563685D01*
X132304Y-564737D01*
X132100Y-565790D01*
X131964Y-566266D01*
X131828Y-566741D01*
Y-566775D01*
X131795Y-566843D01*
X131761Y-566979D01*
X131693Y-567149D01*
X131591Y-567352D01*
X131489Y-567556D01*
X131217Y-568099D01*
X130878Y-568711D01*
X130470Y-569322D01*
X129995Y-569933D01*
X129417Y-570477D01*
X129383D01*
X129349Y-570545D01*
X129248Y-570578D01*
X129146Y-570680D01*
X128772Y-570884D01*
X128331Y-571122D01*
X127719Y-571359D01*
X127040Y-571563D01*
X126259Y-571699D01*
X125376Y-571767D01*
X125070D01*
X124833Y-571733D01*
X124561Y-571699D01*
X124255Y-571631D01*
X123916Y-571563D01*
X123542Y-571495D01*
X122727Y-571224D01*
X122286Y-571020D01*
X121878Y-570816D01*
X121437Y-570545D01*
X121029Y-570239D01*
X120656Y-569899D01*
X120282Y-569492D01*
X120248Y-569458D01*
X120180Y-569356D01*
X120078Y-569186D01*
X119943Y-568948D01*
X119773Y-568643D01*
X119603Y-568269D01*
X119399Y-567828D01*
X119195Y-567284D01*
X118992Y-566707D01*
X118788Y-566028D01*
X118618Y-565281D01*
X118448Y-564466D01*
X118313Y-563549D01*
X118211Y-562598D01*
X118143Y-561511D01*
X118109Y-560391D01*
Y-560357D01*
Y-560221D01*
Y-560017D01*
Y-559745D01*
X118143Y-559406D01*
Y-559032D01*
X118177Y-558591D01*
X118211Y-558115D01*
X118313Y-557096D01*
X118448Y-556044D01*
X118618Y-554991D01*
X118754Y-554515D01*
X118890Y-554040D01*
Y-554006D01*
X118924Y-553938D01*
X118992Y-553802D01*
X119060Y-553633D01*
X119128Y-553429D01*
X119229Y-553191D01*
X119501Y-552648D01*
X119841Y-552036D01*
X120248Y-551425D01*
X120724Y-550848D01*
X121301Y-550304D01*
X121335D01*
X121369Y-550237D01*
X121471Y-550169D01*
X121607Y-550101D01*
X121946Y-549897D01*
X122422Y-549625D01*
X122999Y-549388D01*
X123712Y-549184D01*
X124493Y-549048D01*
X125376Y-548980D01*
X125682D01*
X126021Y-549014D01*
D02*
G37*
G36*
X-212332Y10986D02*
X-211891Y10918D01*
X-211382Y10816D01*
X-210804Y10680D01*
X-210227Y10477D01*
X-209650Y10205D01*
X-209616D01*
X-209582Y10171D01*
X-209378Y10069D01*
X-209106Y9899D01*
X-208767Y9662D01*
X-208393Y9356D01*
X-207986Y8982D01*
X-207612Y8541D01*
X-207272Y8066D01*
X-207239Y7997D01*
X-207137Y7828D01*
X-207001Y7556D01*
X-206865Y7217D01*
X-206729Y6775D01*
X-206593Y6300D01*
X-206492Y5790D01*
X-206458Y5213D01*
Y5145D01*
Y4975D01*
X-206492Y4703D01*
X-206559Y4364D01*
X-206661Y3956D01*
X-206797Y3515D01*
X-206967Y3039D01*
X-207239Y2598D01*
X-207272Y2530D01*
X-207374Y2394D01*
X-207578Y2190D01*
X-207816Y1919D01*
X-208155Y1613D01*
X-208529Y1308D01*
X-209004Y968D01*
X-209548Y696D01*
X-209514D01*
X-209446Y662D01*
X-209344D01*
X-209208Y594D01*
X-208869Y492D01*
X-208427Y289D01*
X-207952Y51D01*
X-207442Y-289D01*
X-206933Y-696D01*
X-206492Y-1206D01*
X-206458Y-1274D01*
X-206322Y-1477D01*
X-206152Y-1783D01*
X-205914Y-2190D01*
X-205710Y-2700D01*
X-205541Y-3311D01*
X-205405Y-4024D01*
X-205371Y-4805D01*
Y-4839D01*
Y-4941D01*
Y-5077D01*
X-205405Y-5281D01*
X-205439Y-5552D01*
X-205473Y-5824D01*
X-205541Y-6164D01*
X-205643Y-6503D01*
X-205880Y-7284D01*
X-206050Y-7726D01*
X-206288Y-8133D01*
X-206525Y-8541D01*
X-206797Y-8948D01*
X-207137Y-9356D01*
X-207510Y-9763D01*
X-207544Y-9797D01*
X-207612Y-9865D01*
X-207714Y-9933D01*
X-207884Y-10069D01*
X-208088Y-10239D01*
X-208359Y-10409D01*
X-208665Y-10579D01*
X-208971Y-10748D01*
X-209344Y-10952D01*
X-209752Y-11122D01*
X-210193Y-11292D01*
X-210669Y-11461D01*
X-211178Y-11597D01*
X-211721Y-11665D01*
X-212299Y-11733D01*
X-212876Y-11767D01*
X-213148D01*
X-213351Y-11733D01*
X-213623Y-11699D01*
X-213895Y-11665D01*
X-214234Y-11631D01*
X-214574Y-11563D01*
X-215355Y-11359D01*
X-216170Y-11020D01*
X-216577Y-10850D01*
X-216951Y-10612D01*
X-217359Y-10341D01*
X-217732Y-10035D01*
X-217766Y-10001D01*
X-217800Y-9967D01*
X-217902Y-9865D01*
X-218038Y-9729D01*
X-218174Y-9526D01*
X-218343Y-9322D01*
X-218547Y-9084D01*
X-218717Y-8813D01*
X-219125Y-8133D01*
X-219464Y-7352D01*
X-219770Y-6469D01*
X-219872Y-5994D01*
X-219939Y-5484D01*
X-217189Y-5111D01*
Y-5145D01*
X-217155Y-5213D01*
Y-5349D01*
X-217087Y-5484D01*
X-216985Y-5892D01*
X-216815Y-6401D01*
X-216611Y-6945D01*
X-216340Y-7522D01*
X-216000Y-8031D01*
X-215627Y-8473D01*
X-215559Y-8507D01*
X-215423Y-8643D01*
X-215185Y-8779D01*
X-214846Y-8982D01*
X-214472Y-9152D01*
X-213997Y-9322D01*
X-213453Y-9458D01*
X-212876Y-9492D01*
X-212672D01*
X-212536Y-9458D01*
X-212197Y-9424D01*
X-211755Y-9322D01*
X-211212Y-9152D01*
X-210669Y-8948D01*
X-210125Y-8609D01*
X-209616Y-8167D01*
X-209548Y-8099D01*
X-209412Y-7930D01*
X-209208Y-7658D01*
X-208937Y-7250D01*
X-208699Y-6775D01*
X-208495Y-6198D01*
X-208359Y-5552D01*
X-208291Y-4839D01*
Y-4805D01*
Y-4771D01*
Y-4669D01*
X-208325Y-4534D01*
X-208359Y-4194D01*
X-208461Y-3753D01*
X-208597Y-3277D01*
X-208835Y-2734D01*
X-209140Y-2224D01*
X-209548Y-1749D01*
X-209616Y-1681D01*
X-209752Y-1545D01*
X-210023Y-1375D01*
X-210397Y-1138D01*
X-210838Y-900D01*
X-211382Y-730D01*
X-211959Y-594D01*
X-212638Y-526D01*
X-212944D01*
X-213181Y-560D01*
X-213453Y-594D01*
X-213793Y-628D01*
X-214166Y-696D01*
X-214574Y-798D01*
X-214268Y1613D01*
X-214098D01*
X-213963Y1579D01*
X-213521D01*
X-213216Y1613D01*
X-212774Y1681D01*
X-212299Y1783D01*
X-211789Y1953D01*
X-211246Y2157D01*
X-210702Y2462D01*
X-210635Y2496D01*
X-210465Y2632D01*
X-210261Y2870D01*
X-209989Y3175D01*
X-209718Y3549D01*
X-209514Y4024D01*
X-209344Y4602D01*
X-209276Y5281D01*
Y5315D01*
Y5349D01*
Y5519D01*
X-209344Y5790D01*
X-209412Y6164D01*
X-209514Y6537D01*
X-209718Y6945D01*
X-209955Y7386D01*
X-210295Y7760D01*
X-210329Y7794D01*
X-210465Y7930D01*
X-210702Y8099D01*
X-211008Y8269D01*
X-211382Y8473D01*
X-211823Y8609D01*
X-212332Y8745D01*
X-212910Y8779D01*
X-213181D01*
X-213487Y8711D01*
X-213827Y8643D01*
X-214268Y8541D01*
X-214710Y8337D01*
X-215151Y8099D01*
X-215593Y7760D01*
X-215627Y7726D01*
X-215763Y7590D01*
X-215932Y7352D01*
X-216136Y7013D01*
X-216374Y6605D01*
X-216577Y6096D01*
X-216781Y5484D01*
X-216917Y4771D01*
X-219668Y5247D01*
Y5281D01*
X-219634Y5383D01*
X-219600Y5519D01*
X-219566Y5688D01*
X-219498Y5926D01*
X-219430Y6198D01*
X-219192Y6809D01*
X-218921Y7488D01*
X-218513Y8201D01*
X-218038Y8881D01*
X-217426Y9492D01*
X-217393Y9526D01*
X-217359Y9560D01*
X-217257Y9628D01*
X-217087Y9729D01*
X-216917Y9831D01*
X-216713Y9967D01*
X-216204Y10273D01*
X-215559Y10545D01*
X-214778Y10782D01*
X-213929Y10952D01*
X-213453Y11020D01*
X-212672D01*
X-212332Y10986D01*
D02*
G37*
G36*
X-52056Y-463285D02*
X-52680Y-468838D01*
X-52969Y-468797D01*
X-53257Y-468742D01*
X-53541Y-468672D01*
X-53821Y-468587D01*
X-54096Y-468487D01*
X-54365Y-468373D01*
X-54628Y-468245D01*
X-54884Y-468104D01*
X-55133Y-467949D01*
X-55373Y-467782D01*
X-55603Y-467602D01*
X-55825Y-467410D01*
X-56035Y-467207D01*
X-56235Y-466994D01*
X-56424Y-466770D01*
X-56600Y-466537D01*
X-56764Y-466294D01*
X-56915Y-466044D01*
X-57053Y-465786D01*
X-57177Y-465521D01*
X-57287Y-465250D01*
X-57382Y-464973D01*
X-57464Y-464692D01*
X-57530Y-464407D01*
X-57581Y-464119D01*
X-57617Y-463829D01*
X-57638Y-463537D01*
X-57644Y-463245D01*
X-57634Y-462952D01*
X-57609Y-462661D01*
X-52056Y-463285D01*
D02*
G37*
G36*
X52974Y-468805D02*
X52683Y-468830D01*
X52390Y-468840D01*
X52098Y-468834D01*
X51806Y-468814D01*
X51516Y-468778D01*
X51228Y-468727D01*
X50943Y-468661D01*
X50662Y-468580D01*
X50385Y-468484D01*
X50114Y-468374D01*
X49849Y-468250D01*
X49591Y-468113D01*
X49340Y-467962D01*
X49098Y-467798D01*
X48864Y-467622D01*
X48640Y-467434D01*
X48426Y-467234D01*
X48223Y-467023D01*
X48032Y-466802D01*
X47852Y-466572D01*
X47684Y-466332D01*
X47529Y-466083D01*
X47388Y-465827D01*
X47260Y-465564D01*
X47146Y-465295D01*
X47046Y-465020D01*
X46961Y-464740D01*
X46890Y-464456D01*
X46835Y-464169D01*
X46794Y-463879D01*
X52347Y-463252D01*
X52974Y-468805D01*
D02*
G37*
G36*
X-55886Y126311D02*
X-59011D01*
Y129435D01*
X-55886D01*
Y126311D01*
D02*
G37*
G36*
X614625Y-139014D02*
X614794D01*
X615032Y-139048D01*
X615575Y-139116D01*
X616187Y-139286D01*
X616832Y-139489D01*
X617545Y-139761D01*
X618224Y-140169D01*
X618258D01*
X618292Y-140237D01*
X618394Y-140304D01*
X618530Y-140372D01*
X618836Y-140644D01*
X619243Y-141018D01*
X619685Y-141527D01*
X620160Y-142070D01*
X620602Y-142750D01*
X620975Y-143531D01*
Y-143565D01*
X621009Y-143632D01*
X621077Y-143768D01*
X621111Y-143938D01*
X621213Y-144142D01*
X621281Y-144414D01*
X621349Y-144753D01*
X621451Y-145127D01*
X621552Y-145534D01*
X621620Y-146010D01*
X621722Y-146519D01*
X621790Y-147063D01*
X621824Y-147674D01*
X621892Y-148319D01*
X621926Y-149032D01*
Y-149779D01*
Y-149813D01*
Y-149983D01*
Y-150187D01*
Y-150492D01*
X621892Y-150832D01*
Y-151273D01*
X621858Y-151715D01*
X621824Y-152224D01*
X621688Y-153311D01*
X621518Y-154466D01*
X621281Y-155586D01*
X621145Y-156096D01*
X620975Y-156605D01*
Y-156639D01*
X620941Y-156707D01*
X620873Y-156843D01*
X620805Y-157013D01*
X620703Y-157250D01*
X620602Y-157488D01*
X620296Y-158032D01*
X619888Y-158677D01*
X619413Y-159322D01*
X618870Y-159933D01*
X618224Y-160477D01*
X618190D01*
X618156Y-160544D01*
X618055Y-160578D01*
X617885Y-160680D01*
X617715Y-160782D01*
X617511Y-160884D01*
X617002Y-161122D01*
X616357Y-161360D01*
X615643Y-161563D01*
X614794Y-161699D01*
X613911Y-161767D01*
X613674D01*
X613470Y-161733D01*
X613266D01*
X612994Y-161699D01*
X612383Y-161597D01*
X611704Y-161427D01*
X610991Y-161156D01*
X610312Y-160816D01*
X609632Y-160341D01*
X609599Y-160307D01*
X609565Y-160273D01*
X609361Y-160069D01*
X609089Y-159729D01*
X608750Y-159288D01*
X608410Y-158711D01*
X608104Y-157998D01*
X607833Y-157183D01*
X607663Y-156232D01*
X610278Y-156028D01*
Y-156062D01*
Y-156096D01*
X610312Y-156198D01*
X610346Y-156334D01*
X610414Y-156673D01*
X610549Y-157047D01*
X610719Y-157488D01*
X610923Y-157930D01*
X611195Y-158371D01*
X611534Y-158711D01*
X611568Y-158745D01*
X611704Y-158847D01*
X611908Y-158982D01*
X612213Y-159118D01*
X612553Y-159254D01*
X612961Y-159390D01*
X613436Y-159492D01*
X613979Y-159526D01*
X614183D01*
X614421Y-159492D01*
X614726Y-159458D01*
X615066Y-159390D01*
X615440Y-159288D01*
X615813Y-159152D01*
X616187Y-158948D01*
X616221Y-158914D01*
X616357Y-158847D01*
X616526Y-158711D01*
X616730Y-158541D01*
X617002Y-158337D01*
X617239Y-158065D01*
X617511Y-157760D01*
X617749Y-157420D01*
X617783Y-157386D01*
X617851Y-157250D01*
X617953Y-157013D01*
X618122Y-156707D01*
X618258Y-156334D01*
X618428Y-155892D01*
X618598Y-155383D01*
X618768Y-154805D01*
Y-154771D01*
X618802Y-154737D01*
Y-154635D01*
X618836Y-154534D01*
X618904Y-154194D01*
X618971Y-153752D01*
X619039Y-153243D01*
X619107Y-152700D01*
X619175Y-152088D01*
Y-151443D01*
Y-151409D01*
Y-151307D01*
Y-151138D01*
Y-150900D01*
X619141Y-150968D01*
X619005Y-151104D01*
X618836Y-151375D01*
X618564Y-151647D01*
X618258Y-151987D01*
X617851Y-152360D01*
X617409Y-152700D01*
X616900Y-153039D01*
X616832Y-153073D01*
X616662Y-153175D01*
X616357Y-153277D01*
X615983Y-153413D01*
X615541Y-153583D01*
X615032Y-153685D01*
X614455Y-153786D01*
X613843Y-153820D01*
X613572D01*
X613368Y-153786D01*
X613130Y-153752D01*
X612859Y-153719D01*
X612213Y-153583D01*
X611466Y-153345D01*
X611093Y-153175D01*
X610685Y-152971D01*
X610312Y-152734D01*
X609904Y-152462D01*
X609531Y-152156D01*
X609157Y-151817D01*
X609123Y-151783D01*
X609089Y-151715D01*
X608987Y-151613D01*
X608851Y-151443D01*
X608716Y-151240D01*
X608546Y-151002D01*
X608376Y-150730D01*
X608206Y-150391D01*
X608036Y-150051D01*
X607867Y-149643D01*
X607697Y-149202D01*
X607561Y-148727D01*
X607425Y-148217D01*
X607323Y-147708D01*
X607289Y-147130D01*
X607255Y-146519D01*
Y-146485D01*
Y-146383D01*
Y-146180D01*
X607289Y-145942D01*
X607323Y-145670D01*
X607357Y-145330D01*
X607425Y-144957D01*
X607493Y-144549D01*
X607731Y-143700D01*
X607901Y-143225D01*
X608104Y-142783D01*
X608308Y-142308D01*
X608580Y-141867D01*
X608885Y-141459D01*
X609225Y-141052D01*
X609259Y-141018D01*
X609327Y-140950D01*
X609429Y-140848D01*
X609599Y-140712D01*
X609768Y-140576D01*
X610006Y-140406D01*
X610278Y-140203D01*
X610617Y-139999D01*
X610957Y-139829D01*
X611330Y-139625D01*
X612179Y-139286D01*
X612655Y-139184D01*
X613164Y-139082D01*
X613708Y-139014D01*
X614251Y-138980D01*
X614455D01*
X614625Y-139014D01*
D02*
G37*
G36*
X603248Y-161394D02*
X600124D01*
Y-158269D01*
X603248D01*
Y-161394D01*
D02*
G37*
G36*
X638295Y-142036D02*
X629397D01*
X628175Y-148047D01*
X628209Y-148013D01*
X628276Y-147979D01*
X628378Y-147912D01*
X628514Y-147810D01*
X628718Y-147708D01*
X628922Y-147606D01*
X629465Y-147334D01*
X630076Y-147063D01*
X630789Y-146859D01*
X631571Y-146689D01*
X632386Y-146621D01*
X632657D01*
X632861Y-146655D01*
X633133Y-146689D01*
X633404Y-146723D01*
X633744Y-146791D01*
X634084Y-146859D01*
X634865Y-147130D01*
X635272Y-147266D01*
X635680Y-147470D01*
X636121Y-147708D01*
X636529Y-147979D01*
X636936Y-148285D01*
X637310Y-148659D01*
X637344Y-148693D01*
X637412Y-148760D01*
X637514Y-148862D01*
X637615Y-149032D01*
X637785Y-149236D01*
X637955Y-149474D01*
X638125Y-149745D01*
X638329Y-150051D01*
X638532Y-150424D01*
X638702Y-150798D01*
X638872Y-151240D01*
X639042Y-151681D01*
X639144Y-152190D01*
X639245Y-152700D01*
X639313Y-153277D01*
X639347Y-153854D01*
Y-153888D01*
Y-153990D01*
Y-154160D01*
X639313Y-154364D01*
X639279Y-154635D01*
X639245Y-154941D01*
X639212Y-155281D01*
X639144Y-155654D01*
X638906Y-156469D01*
X638600Y-157318D01*
X638396Y-157794D01*
X638159Y-158235D01*
X637887Y-158677D01*
X637581Y-159084D01*
X637547Y-159118D01*
X637480Y-159186D01*
X637344Y-159322D01*
X637174Y-159492D01*
X636970Y-159696D01*
X636698Y-159933D01*
X636393Y-160171D01*
X636019Y-160409D01*
X635646Y-160680D01*
X635204Y-160918D01*
X634695Y-161156D01*
X634185Y-161360D01*
X633608Y-161529D01*
X633031Y-161665D01*
X632386Y-161733D01*
X631706Y-161767D01*
X631401D01*
X631197Y-161733D01*
X630959Y-161699D01*
X630654Y-161665D01*
X630314Y-161631D01*
X629940Y-161563D01*
X629159Y-161360D01*
X628344Y-161054D01*
X627937Y-160850D01*
X627529Y-160612D01*
X627122Y-160375D01*
X626748Y-160069D01*
X626714Y-160035D01*
X626680Y-160001D01*
X626578Y-159899D01*
X626443Y-159763D01*
X626307Y-159594D01*
X626137Y-159390D01*
X625967Y-159152D01*
X625763Y-158881D01*
X625390Y-158235D01*
X625016Y-157454D01*
X624745Y-156571D01*
X624643Y-156062D01*
X624575Y-155552D01*
X627461Y-155349D01*
Y-155383D01*
Y-155450D01*
X627495Y-155552D01*
X627529Y-155688D01*
X627631Y-156062D01*
X627767Y-156537D01*
X627937Y-157047D01*
X628209Y-157556D01*
X628514Y-158065D01*
X628922Y-158507D01*
X628990Y-158541D01*
X629125Y-158677D01*
X629363Y-158813D01*
X629703Y-159016D01*
X630110Y-159186D01*
X630586Y-159356D01*
X631129Y-159492D01*
X631706Y-159526D01*
X631910D01*
X632046Y-159492D01*
X632420Y-159458D01*
X632895Y-159356D01*
X633404Y-159152D01*
X633982Y-158914D01*
X634525Y-158541D01*
X634797Y-158337D01*
X635068Y-158065D01*
Y-158032D01*
X635136Y-157998D01*
X635272Y-157794D01*
X635510Y-157454D01*
X635748Y-157013D01*
X635985Y-156435D01*
X636223Y-155756D01*
X636359Y-154975D01*
X636427Y-154092D01*
Y-154058D01*
Y-153990D01*
Y-153854D01*
X636393Y-153719D01*
Y-153515D01*
X636359Y-153277D01*
X636257Y-152734D01*
X636121Y-152156D01*
X635883Y-151545D01*
X635544Y-150934D01*
X635102Y-150391D01*
X635034Y-150323D01*
X634865Y-150187D01*
X634593Y-149949D01*
X634185Y-149711D01*
X633710Y-149474D01*
X633099Y-149236D01*
X632420Y-149100D01*
X631672Y-149032D01*
X631435D01*
X631197Y-149066D01*
X630857Y-149100D01*
X630484Y-149202D01*
X630076Y-149304D01*
X629669Y-149474D01*
X629261Y-149677D01*
X629227Y-149711D01*
X629091Y-149779D01*
X628888Y-149915D01*
X628650Y-150085D01*
X628412Y-150323D01*
X628141Y-150594D01*
X627869Y-150900D01*
X627631Y-151240D01*
X625050Y-150866D01*
X627224Y-139422D01*
X638295D01*
Y-142036D01*
D02*
G37*
G36*
X761394Y-39269D02*
X761020D01*
X760782Y-39235D01*
X760510Y-39201D01*
X760205Y-39167D01*
X759865Y-39066D01*
X759526Y-38964D01*
X759492D01*
X759458Y-38930D01*
X759254Y-38862D01*
X758982Y-38726D01*
X758575Y-38522D01*
X758133Y-38284D01*
X757624Y-37945D01*
X757115Y-37605D01*
X756571Y-37164D01*
X756537D01*
X756503Y-37096D01*
X756300Y-36926D01*
X755994Y-36654D01*
X755586Y-36247D01*
X755111Y-35738D01*
X754534Y-35126D01*
X753888Y-34379D01*
X753175Y-33564D01*
X753141Y-33530D01*
X753039Y-33394D01*
X752904Y-33224D01*
X752666Y-32987D01*
X752428Y-32681D01*
X752122Y-32341D01*
X751477Y-31594D01*
X750696Y-30779D01*
X749915Y-29964D01*
X749541Y-29557D01*
X749168Y-29217D01*
X748794Y-28912D01*
X748455Y-28640D01*
X748421D01*
X748387Y-28572D01*
X748285Y-28504D01*
X748149Y-28436D01*
X747810Y-28232D01*
X747368Y-27995D01*
X746859Y-27757D01*
X746315Y-27553D01*
X745704Y-27417D01*
X745127Y-27349D01*
X745059D01*
X744855Y-27383D01*
X744549Y-27417D01*
X744176Y-27485D01*
X743734Y-27655D01*
X743293Y-27859D01*
X742818Y-28131D01*
X742376Y-28538D01*
X742342Y-28606D01*
X742206Y-28742D01*
X742036Y-29014D01*
X741799Y-29353D01*
X741595Y-29795D01*
X741425Y-30304D01*
X741289Y-30915D01*
X741255Y-31594D01*
Y-31628D01*
Y-31696D01*
Y-31798D01*
X741289Y-31934D01*
X741323Y-32274D01*
X741391Y-32715D01*
X741561Y-33224D01*
X741765Y-33768D01*
X742070Y-34277D01*
X742478Y-34753D01*
X742546Y-34787D01*
X742682Y-34922D01*
X742953Y-35126D01*
X743327Y-35330D01*
X743802Y-35568D01*
X744346Y-35738D01*
X744991Y-35873D01*
X745738Y-35941D01*
X745432Y-38760D01*
X745297D01*
X745127Y-38726D01*
X744923Y-38692D01*
X744651Y-38624D01*
X744346Y-38590D01*
X743667Y-38386D01*
X742885Y-38115D01*
X742104Y-37741D01*
X741323Y-37232D01*
X740984Y-36960D01*
X740644Y-36621D01*
X740610Y-36586D01*
X740576Y-36519D01*
X740474Y-36417D01*
X740372Y-36281D01*
X740270Y-36077D01*
X740101Y-35839D01*
X739965Y-35568D01*
X739795Y-35262D01*
X739659Y-34922D01*
X739489Y-34549D01*
X739354Y-34107D01*
X739252Y-33666D01*
X739048Y-32647D01*
X739014Y-32104D01*
X738980Y-31527D01*
Y-31493D01*
Y-31391D01*
Y-31221D01*
X739014Y-30983D01*
X739048Y-30712D01*
X739082Y-30406D01*
X739116Y-30066D01*
X739218Y-29693D01*
X739421Y-28878D01*
X739727Y-28029D01*
X739931Y-27587D01*
X740169Y-27180D01*
X740474Y-26806D01*
X740780Y-26432D01*
X740814Y-26399D01*
X740848Y-26365D01*
X740950Y-26263D01*
X741086Y-26127D01*
X741289Y-25991D01*
X741493Y-25821D01*
X742002Y-25482D01*
X742648Y-25142D01*
X743395Y-24836D01*
X744244Y-24599D01*
X744719Y-24565D01*
X745195Y-24531D01*
X745432D01*
X745704Y-24565D01*
X746044Y-24599D01*
X746451Y-24667D01*
X746893Y-24769D01*
X747368Y-24904D01*
X747843Y-25108D01*
X747912Y-25142D01*
X748081Y-25210D01*
X748319Y-25346D01*
X748659Y-25550D01*
X749066Y-25787D01*
X749541Y-26093D01*
X750017Y-26500D01*
X750560Y-26942D01*
X750628Y-27010D01*
X750832Y-27180D01*
X751138Y-27485D01*
X751341Y-27689D01*
X751579Y-27927D01*
X751851Y-28198D01*
X752156Y-28538D01*
X752462Y-28878D01*
X752836Y-29251D01*
X753209Y-29659D01*
X753617Y-30134D01*
X754024Y-30610D01*
X754500Y-31153D01*
X754534Y-31187D01*
X754602Y-31255D01*
X754703Y-31391D01*
X754839Y-31560D01*
X755179Y-31968D01*
X755620Y-32477D01*
X756096Y-32987D01*
X756571Y-33530D01*
X756979Y-33972D01*
X757149Y-34141D01*
X757318Y-34311D01*
X757352Y-34345D01*
X757454Y-34413D01*
X757590Y-34549D01*
X757794Y-34719D01*
X758235Y-35092D01*
X758779Y-35466D01*
Y-24497D01*
X761394D01*
Y-39269D01*
D02*
G37*
G36*
X-556438Y-3678D02*
X-551106D01*
Y-6428D01*
X-556438D01*
Y-16107D01*
X-558951D01*
X-573384Y-5919D01*
Y-3678D01*
X-558951D01*
Y-655D01*
X-556438D01*
Y-3678D01*
D02*
G37*
G36*
X-561125Y42610D02*
X-560751D01*
X-560310Y42576D01*
X-559834Y42542D01*
X-558815Y42440D01*
X-557763Y42304D01*
X-556710Y42100D01*
X-556234Y41964D01*
X-555759Y41828D01*
X-555725D01*
X-555657Y41795D01*
X-555521Y41761D01*
X-555351Y41693D01*
X-555148Y41591D01*
X-554944Y41489D01*
X-554401Y41217D01*
X-553789Y40878D01*
X-553178Y40470D01*
X-552567Y39995D01*
X-552023Y39417D01*
Y39383D01*
X-551955Y39349D01*
X-551922Y39248D01*
X-551820Y39146D01*
X-551616Y38772D01*
X-551378Y38331D01*
X-551141Y37719D01*
X-550937Y37040D01*
X-550801Y36259D01*
X-550733Y35376D01*
Y35342D01*
Y35240D01*
Y35071D01*
X-550767Y34833D01*
X-550801Y34561D01*
X-550869Y34255D01*
X-550937Y33916D01*
X-551005Y33542D01*
X-551276Y32727D01*
X-551480Y32286D01*
X-551684Y31878D01*
X-551955Y31437D01*
X-552261Y31029D01*
X-552601Y30656D01*
X-553008Y30282D01*
X-553042Y30248D01*
X-553144Y30180D01*
X-553314Y30078D01*
X-553552Y29943D01*
X-553857Y29773D01*
X-554231Y29603D01*
X-554672Y29399D01*
X-555216Y29195D01*
X-555793Y28992D01*
X-556472Y28788D01*
X-557219Y28618D01*
X-558034Y28448D01*
X-558951Y28312D01*
X-559902Y28211D01*
X-560989Y28143D01*
X-562109Y28109D01*
X-562755D01*
X-563094Y28143D01*
X-563468D01*
X-563909Y28177D01*
X-564385Y28211D01*
X-565404Y28312D01*
X-566456Y28448D01*
X-567509Y28618D01*
X-567985Y28754D01*
X-568460Y28890D01*
X-568494D01*
X-568562Y28924D01*
X-568698Y28992D01*
X-568867Y29060D01*
X-569071Y29128D01*
X-569309Y29229D01*
X-569852Y29501D01*
X-570464Y29841D01*
X-571075Y30248D01*
X-571652Y30724D01*
X-572196Y31301D01*
Y31335D01*
X-572263Y31369D01*
X-572331Y31471D01*
X-572399Y31607D01*
X-572603Y31946D01*
X-572875Y32422D01*
X-573112Y32999D01*
X-573316Y33712D01*
X-573452Y34493D01*
X-573520Y35376D01*
Y35410D01*
Y35444D01*
Y35546D01*
Y35682D01*
X-573486Y36021D01*
X-573418Y36429D01*
X-573350Y36904D01*
X-573214Y37448D01*
X-573011Y37991D01*
X-572773Y38500D01*
X-572739Y38568D01*
X-572637Y38738D01*
X-572467Y38976D01*
X-572263Y39315D01*
X-571958Y39655D01*
X-571584Y40029D01*
X-571177Y40402D01*
X-570701Y40742D01*
X-570633Y40776D01*
X-570464Y40878D01*
X-570158Y41047D01*
X-569784Y41251D01*
X-569309Y41455D01*
X-568732Y41693D01*
X-568086Y41930D01*
X-567373Y42134D01*
X-567339D01*
X-567271Y42168D01*
X-567169D01*
X-567000Y42202D01*
X-566830Y42270D01*
X-566592Y42304D01*
X-566287Y42338D01*
X-565981Y42406D01*
X-565607Y42440D01*
X-565234Y42474D01*
X-564792Y42542D01*
X-564317Y42576D01*
X-563807Y42610D01*
X-563298D01*
X-562109Y42643D01*
X-561464D01*
X-561125Y42610D01*
D02*
G37*
G36*
Y25290D02*
X-560751D01*
X-560310Y25256D01*
X-559834Y25222D01*
X-558815Y25120D01*
X-557763Y24984D01*
X-556710Y24781D01*
X-556234Y24645D01*
X-555759Y24509D01*
X-555725D01*
X-555657Y24475D01*
X-555521Y24441D01*
X-555351Y24373D01*
X-555148Y24271D01*
X-554944Y24169D01*
X-554401Y23898D01*
X-553789Y23558D01*
X-553178Y23151D01*
X-552567Y22675D01*
X-552023Y22098D01*
Y22064D01*
X-551955Y22030D01*
X-551922Y21928D01*
X-551820Y21826D01*
X-551616Y21453D01*
X-551378Y21011D01*
X-551141Y20400D01*
X-550937Y19721D01*
X-550801Y18940D01*
X-550733Y18057D01*
Y18023D01*
Y17921D01*
Y17751D01*
X-550767Y17513D01*
X-550801Y17242D01*
X-550869Y16936D01*
X-550937Y16596D01*
X-551005Y16223D01*
X-551276Y15408D01*
X-551480Y14966D01*
X-551684Y14559D01*
X-551955Y14117D01*
X-552261Y13710D01*
X-552601Y13336D01*
X-553008Y12963D01*
X-553042Y12929D01*
X-553144Y12861D01*
X-553314Y12759D01*
X-553552Y12623D01*
X-553857Y12453D01*
X-554231Y12283D01*
X-554672Y12080D01*
X-555216Y11876D01*
X-555793Y11672D01*
X-556472Y11468D01*
X-557219Y11299D01*
X-558034Y11129D01*
X-558951Y10993D01*
X-559902Y10891D01*
X-560989Y10823D01*
X-562109Y10789D01*
X-562755D01*
X-563094Y10823D01*
X-563468D01*
X-563909Y10857D01*
X-564385Y10891D01*
X-565404Y10993D01*
X-566456Y11129D01*
X-567509Y11299D01*
X-567985Y11434D01*
X-568460Y11570D01*
X-568494D01*
X-568562Y11604D01*
X-568698Y11672D01*
X-568867Y11740D01*
X-569071Y11808D01*
X-569309Y11910D01*
X-569852Y12182D01*
X-570464Y12521D01*
X-571075Y12929D01*
X-571652Y13404D01*
X-572196Y13981D01*
Y14015D01*
X-572263Y14049D01*
X-572331Y14151D01*
X-572399Y14287D01*
X-572603Y14627D01*
X-572875Y15102D01*
X-573112Y15679D01*
X-573316Y16393D01*
X-573452Y17174D01*
X-573520Y18057D01*
Y18091D01*
Y18125D01*
Y18226D01*
Y18362D01*
X-573486Y18702D01*
X-573418Y19109D01*
X-573350Y19585D01*
X-573214Y20128D01*
X-573011Y20672D01*
X-572773Y21181D01*
X-572739Y21249D01*
X-572637Y21419D01*
X-572467Y21656D01*
X-572263Y21996D01*
X-571958Y22336D01*
X-571584Y22709D01*
X-571177Y23083D01*
X-570701Y23422D01*
X-570633Y23456D01*
X-570464Y23558D01*
X-570158Y23728D01*
X-569784Y23932D01*
X-569309Y24135D01*
X-568732Y24373D01*
X-568086Y24611D01*
X-567373Y24815D01*
X-567339D01*
X-567271Y24849D01*
X-567169D01*
X-567000Y24883D01*
X-566830Y24950D01*
X-566592Y24984D01*
X-566287Y25018D01*
X-565981Y25086D01*
X-565607Y25120D01*
X-565234Y25154D01*
X-564792Y25222D01*
X-564317Y25256D01*
X-563807Y25290D01*
X-563298D01*
X-562109Y25324D01*
X-561464D01*
X-561125Y25290D01*
D02*
G37*
G36*
X-551106Y3658D02*
X-554231D01*
Y6782D01*
X-551106D01*
Y3658D01*
D02*
G37*
G36*
X574280Y-161394D02*
X571530D01*
Y-143938D01*
X571496Y-143972D01*
X571360Y-144108D01*
X571122Y-144278D01*
X570816Y-144515D01*
X570443Y-144821D01*
X570001Y-145127D01*
X569492Y-145500D01*
X568915Y-145840D01*
X568881D01*
X568847Y-145874D01*
X568643Y-146010D01*
X568337Y-146180D01*
X567964Y-146383D01*
X567522Y-146621D01*
X567047Y-146825D01*
X566538Y-147063D01*
X566062Y-147266D01*
Y-144583D01*
X566096D01*
X566164Y-144549D01*
X566300Y-144481D01*
X566436Y-144380D01*
X566639Y-144278D01*
X566877Y-144176D01*
X567421Y-143870D01*
X568032Y-143497D01*
X568711Y-143055D01*
X569390Y-142546D01*
X570035Y-142002D01*
X570069Y-141968D01*
X570103Y-141934D01*
X570307Y-141731D01*
X570613Y-141425D01*
X570986Y-141052D01*
X571394Y-140576D01*
X571801Y-140067D01*
X572175Y-139523D01*
X572481Y-138980D01*
X574280D01*
Y-161394D01*
D02*
G37*
G36*
X588985Y-139014D02*
X589257D01*
X589528Y-139082D01*
X590207Y-139184D01*
X590955Y-139388D01*
X591736Y-139693D01*
X592143Y-139897D01*
X592517Y-140101D01*
X592890Y-140372D01*
X593230Y-140678D01*
X593264Y-140712D01*
X593298Y-140746D01*
X593400Y-140848D01*
X593502Y-140984D01*
X593637Y-141153D01*
X593807Y-141357D01*
X594147Y-141833D01*
X594453Y-142444D01*
X594758Y-143157D01*
X594962Y-143938D01*
X594996Y-144380D01*
X595030Y-144821D01*
Y-144889D01*
Y-145093D01*
X594996Y-145365D01*
X594928Y-145738D01*
X594826Y-146180D01*
X594690Y-146621D01*
X594486Y-147096D01*
X594215Y-147538D01*
X594181Y-147572D01*
X594079Y-147708D01*
X593875Y-147912D01*
X593604Y-148183D01*
X593264Y-148455D01*
X592822Y-148727D01*
X592313Y-149032D01*
X591736Y-149270D01*
X591770D01*
X591838Y-149304D01*
X591939Y-149338D01*
X592075Y-149406D01*
X592449Y-149576D01*
X592890Y-149779D01*
X593400Y-150085D01*
X593909Y-150458D01*
X594418Y-150934D01*
X594860Y-151443D01*
X594894Y-151511D01*
X595030Y-151715D01*
X595200Y-152021D01*
X595403Y-152462D01*
X595607Y-152971D01*
X595777Y-153583D01*
X595913Y-154262D01*
X595947Y-155009D01*
Y-155043D01*
Y-155145D01*
Y-155281D01*
X595913Y-155485D01*
X595879Y-155722D01*
X595845Y-156028D01*
X595709Y-156707D01*
X595437Y-157454D01*
X595302Y-157862D01*
X595098Y-158269D01*
X594860Y-158677D01*
X594588Y-159084D01*
X594283Y-159458D01*
X593909Y-159831D01*
X593875Y-159865D01*
X593807Y-159899D01*
X593705Y-160001D01*
X593535Y-160137D01*
X593332Y-160273D01*
X593094Y-160443D01*
X592822Y-160612D01*
X592483Y-160782D01*
X592109Y-160986D01*
X591702Y-161156D01*
X591260Y-161326D01*
X590785Y-161461D01*
X590309Y-161597D01*
X589766Y-161699D01*
X589189Y-161733D01*
X588577Y-161767D01*
X588272D01*
X588034Y-161733D01*
X587762Y-161699D01*
X587423Y-161665D01*
X587083Y-161597D01*
X586676Y-161529D01*
X585827Y-161292D01*
X585385Y-161122D01*
X584944Y-160952D01*
X584502Y-160714D01*
X584061Y-160477D01*
X583653Y-160171D01*
X583246Y-159831D01*
X583212Y-159797D01*
X583144Y-159729D01*
X583076Y-159628D01*
X582940Y-159492D01*
X582770Y-159288D01*
X582601Y-159050D01*
X582431Y-158779D01*
X582261Y-158473D01*
X582057Y-158133D01*
X581887Y-157760D01*
X581548Y-156945D01*
X581412Y-156469D01*
X581344Y-155994D01*
X581276Y-155485D01*
X581242Y-154941D01*
Y-154907D01*
Y-154839D01*
Y-154737D01*
X581276Y-154568D01*
Y-154398D01*
X581310Y-154160D01*
X581378Y-153685D01*
X581514Y-153107D01*
X581717Y-152496D01*
X581955Y-151885D01*
X582329Y-151307D01*
Y-151273D01*
X582397Y-151240D01*
X582533Y-151070D01*
X582804Y-150798D01*
X583144Y-150492D01*
X583585Y-150153D01*
X584129Y-149813D01*
X584774Y-149508D01*
X585487Y-149270D01*
X585453D01*
X585419Y-149236D01*
X585215Y-149168D01*
X584910Y-148998D01*
X584536Y-148828D01*
X584095Y-148557D01*
X583687Y-148251D01*
X583280Y-147912D01*
X582940Y-147504D01*
X582906Y-147436D01*
X582804Y-147300D01*
X582668Y-147063D01*
X582533Y-146723D01*
X582397Y-146315D01*
X582261Y-145840D01*
X582159Y-145330D01*
X582125Y-144753D01*
Y-144719D01*
Y-144651D01*
Y-144515D01*
X582159Y-144346D01*
X582193Y-144142D01*
X582227Y-143904D01*
X582329Y-143327D01*
X582533Y-142682D01*
X582872Y-142002D01*
X583042Y-141629D01*
X583280Y-141289D01*
X583551Y-140950D01*
X583857Y-140644D01*
X583891Y-140610D01*
X583925Y-140576D01*
X584027Y-140474D01*
X584163Y-140372D01*
X584366Y-140271D01*
X584570Y-140101D01*
X584808Y-139965D01*
X585113Y-139795D01*
X585759Y-139489D01*
X586574Y-139252D01*
X587491Y-139048D01*
X587966Y-139014D01*
X588509Y-138980D01*
X588781D01*
X588985Y-139014D01*
D02*
G37*
G36*
X-43966Y148690D02*
X-43559Y148623D01*
X-43084Y148554D01*
X-42540Y148419D01*
X-41997Y148215D01*
X-41487Y147977D01*
X-41420Y147943D01*
X-41250Y147841D01*
X-41012Y147672D01*
X-40672Y147468D01*
X-40333Y147162D01*
X-39959Y146789D01*
X-39586Y146381D01*
X-39246Y145906D01*
X-39212Y145838D01*
X-39110Y145668D01*
X-38940Y145362D01*
X-38737Y144989D01*
X-38533Y144513D01*
X-38295Y143936D01*
X-38057Y143291D01*
X-37854Y142578D01*
Y142544D01*
X-37820Y142476D01*
Y142374D01*
X-37786Y142204D01*
X-37718Y142034D01*
X-37684Y141797D01*
X-37650Y141491D01*
X-37582Y141185D01*
X-37548Y140812D01*
X-37514Y140438D01*
X-37446Y139997D01*
X-37412Y139521D01*
X-37378Y139012D01*
Y138502D01*
X-37344Y137314D01*
Y137280D01*
Y137144D01*
Y136940D01*
Y136669D01*
X-37378Y136329D01*
Y135955D01*
X-37412Y135514D01*
X-37446Y135038D01*
X-37548Y134020D01*
X-37684Y132967D01*
X-37888Y131914D01*
X-38024Y131439D01*
X-38159Y130963D01*
Y130929D01*
X-38193Y130862D01*
X-38227Y130726D01*
X-38295Y130556D01*
X-38397Y130352D01*
X-38499Y130148D01*
X-38771Y129605D01*
X-39110Y128994D01*
X-39518Y128382D01*
X-39993Y127771D01*
X-40571Y127228D01*
X-40605D01*
X-40638Y127160D01*
X-40740Y127126D01*
X-40842Y127024D01*
X-41216Y126820D01*
X-41657Y126583D01*
X-42269Y126345D01*
X-42948Y126141D01*
X-43729Y126005D01*
X-44612Y125937D01*
X-44917D01*
X-45155Y125971D01*
X-45427Y126005D01*
X-45732Y126073D01*
X-46072Y126141D01*
X-46446Y126209D01*
X-47261Y126481D01*
X-47702Y126684D01*
X-48110Y126888D01*
X-48551Y127160D01*
X-48959Y127465D01*
X-49332Y127805D01*
X-49706Y128213D01*
X-49740Y128247D01*
X-49808Y128349D01*
X-49910Y128518D01*
X-50045Y128756D01*
X-50215Y129062D01*
X-50385Y129435D01*
X-50589Y129877D01*
X-50792Y130420D01*
X-50996Y130997D01*
X-51200Y131677D01*
X-51370Y132424D01*
X-51540Y133239D01*
X-51675Y134156D01*
X-51777Y135106D01*
X-51845Y136193D01*
X-51879Y137314D01*
Y137348D01*
Y137484D01*
Y137687D01*
Y137959D01*
X-51845Y138299D01*
Y138672D01*
X-51811Y139114D01*
X-51777Y139589D01*
X-51675Y140608D01*
X-51540Y141661D01*
X-51370Y142713D01*
X-51234Y143189D01*
X-51098Y143664D01*
Y143698D01*
X-51064Y143766D01*
X-50996Y143902D01*
X-50928Y144072D01*
X-50860Y144276D01*
X-50758Y144513D01*
X-50487Y145057D01*
X-50147Y145668D01*
X-49740Y146279D01*
X-49264Y146857D01*
X-48687Y147400D01*
X-48653D01*
X-48619Y147468D01*
X-48517Y147536D01*
X-48381Y147604D01*
X-48042Y147807D01*
X-47566Y148079D01*
X-46989Y148317D01*
X-46276Y148521D01*
X-45495Y148656D01*
X-44612Y148724D01*
X-44306D01*
X-43966Y148690D01*
D02*
G37*
G36*
X751375Y36223D02*
X751749D01*
X752190Y36189D01*
X752666Y36155D01*
X753685Y36054D01*
X754737Y35918D01*
X755790Y35714D01*
X756266Y35578D01*
X756741Y35442D01*
X756775D01*
X756843Y35408D01*
X756979Y35374D01*
X757149Y35306D01*
X757352Y35205D01*
X757556Y35103D01*
X758099Y34831D01*
X758711Y34491D01*
X759322Y34084D01*
X759933Y33608D01*
X760477Y33031D01*
Y32997D01*
X760545Y32963D01*
X760579Y32861D01*
X760680Y32759D01*
X760884Y32386D01*
X761122Y31944D01*
X761359Y31333D01*
X761563Y30654D01*
X761699Y29873D01*
X761767Y28990D01*
Y28956D01*
Y28854D01*
Y28684D01*
X761733Y28447D01*
X761699Y28175D01*
X761631Y27869D01*
X761563Y27530D01*
X761495Y27156D01*
X761224Y26341D01*
X761020Y25900D01*
X760816Y25492D01*
X760545Y25050D01*
X760239Y24643D01*
X759899Y24269D01*
X759492Y23896D01*
X759458Y23862D01*
X759356Y23794D01*
X759186Y23692D01*
X758948Y23556D01*
X758643Y23386D01*
X758269Y23217D01*
X757828Y23013D01*
X757284Y22809D01*
X756707Y22605D01*
X756028Y22402D01*
X755281Y22232D01*
X754466Y22062D01*
X753549Y21926D01*
X752598Y21824D01*
X751511Y21756D01*
X750390Y21723D01*
X749745D01*
X749406Y21756D01*
X749032D01*
X748591Y21790D01*
X748115Y21824D01*
X747096Y21926D01*
X746044Y22062D01*
X744991Y22232D01*
X744516Y22368D01*
X744040Y22503D01*
X744006D01*
X743938Y22538D01*
X743802Y22605D01*
X743633Y22673D01*
X743429Y22741D01*
X743191Y22843D01*
X742648Y23115D01*
X742036Y23454D01*
X741425Y23862D01*
X740848Y24337D01*
X740304Y24915D01*
Y24949D01*
X740237Y24983D01*
X740169Y25085D01*
X740101Y25220D01*
X739897Y25560D01*
X739625Y26035D01*
X739388Y26613D01*
X739184Y27326D01*
X739048Y28107D01*
X738980Y28990D01*
Y29024D01*
Y29058D01*
Y29160D01*
Y29295D01*
X739014Y29635D01*
X739082Y30043D01*
X739150Y30518D01*
X739286Y31061D01*
X739489Y31605D01*
X739727Y32114D01*
X739761Y32182D01*
X739863Y32352D01*
X740033Y32590D01*
X740237Y32929D01*
X740542Y33269D01*
X740916Y33642D01*
X741323Y34016D01*
X741799Y34355D01*
X741867Y34390D01*
X742036Y34491D01*
X742342Y34661D01*
X742716Y34865D01*
X743191Y35069D01*
X743768Y35306D01*
X744414Y35544D01*
X745127Y35748D01*
X745161D01*
X745229Y35782D01*
X745331D01*
X745500Y35816D01*
X745670Y35884D01*
X745908Y35918D01*
X746214Y35952D01*
X746519Y36019D01*
X746893Y36054D01*
X747266Y36088D01*
X747708Y36155D01*
X748183Y36189D01*
X748692Y36223D01*
X749202D01*
X750390Y36257D01*
X751036D01*
X751375Y36223D01*
D02*
G37*
G36*
X-26647Y148690D02*
X-26240Y148623D01*
X-25764Y148554D01*
X-25221Y148419D01*
X-24677Y148215D01*
X-24168Y147977D01*
X-24100Y147943D01*
X-23930Y147841D01*
X-23693Y147672D01*
X-23353Y147468D01*
X-23013Y147162D01*
X-22640Y146789D01*
X-22266Y146381D01*
X-21927Y145906D01*
X-21893Y145838D01*
X-21791Y145668D01*
X-21621Y145362D01*
X-21417Y144989D01*
X-21213Y144513D01*
X-20976Y143936D01*
X-20738Y143291D01*
X-20534Y142578D01*
Y142544D01*
X-20500Y142476D01*
Y142374D01*
X-20466Y142204D01*
X-20398Y142034D01*
X-20364Y141797D01*
X-20331Y141491D01*
X-20262Y141185D01*
X-20229Y140812D01*
X-20195Y140438D01*
X-20127Y139997D01*
X-20093Y139521D01*
X-20059Y139012D01*
Y138502D01*
X-20025Y137314D01*
Y137280D01*
Y137144D01*
Y136940D01*
Y136669D01*
X-20059Y136329D01*
Y135955D01*
X-20093Y135514D01*
X-20127Y135038D01*
X-20229Y134020D01*
X-20364Y132967D01*
X-20568Y131914D01*
X-20704Y131439D01*
X-20840Y130963D01*
Y130929D01*
X-20874Y130862D01*
X-20908Y130726D01*
X-20976Y130556D01*
X-21078Y130352D01*
X-21179Y130148D01*
X-21451Y129605D01*
X-21791Y128994D01*
X-22198Y128382D01*
X-22674Y127771D01*
X-23251Y127228D01*
X-23285D01*
X-23319Y127160D01*
X-23421Y127126D01*
X-23523Y127024D01*
X-23896Y126820D01*
X-24338Y126583D01*
X-24949Y126345D01*
X-25628Y126141D01*
X-26409Y126005D01*
X-27292Y125937D01*
X-27598D01*
X-27836Y125971D01*
X-28107Y126005D01*
X-28413Y126073D01*
X-28753Y126141D01*
X-29126Y126209D01*
X-29941Y126481D01*
X-30383Y126684D01*
X-30790Y126888D01*
X-31232Y127160D01*
X-31639Y127465D01*
X-32013Y127805D01*
X-32386Y128213D01*
X-32420Y128247D01*
X-32488Y128349D01*
X-32590Y128518D01*
X-32726Y128756D01*
X-32896Y129062D01*
X-33065Y129435D01*
X-33269Y129877D01*
X-33473Y130420D01*
X-33677Y130997D01*
X-33880Y131677D01*
X-34050Y132424D01*
X-34220Y133239D01*
X-34356Y134156D01*
X-34458Y135106D01*
X-34526Y136193D01*
X-34560Y137314D01*
Y137348D01*
Y137484D01*
Y137687D01*
Y137959D01*
X-34526Y138299D01*
Y138672D01*
X-34492Y139114D01*
X-34458Y139589D01*
X-34356Y140608D01*
X-34220Y141661D01*
X-34050Y142713D01*
X-33914Y143189D01*
X-33779Y143664D01*
Y143698D01*
X-33745Y143766D01*
X-33677Y143902D01*
X-33609Y144072D01*
X-33541Y144276D01*
X-33439Y144513D01*
X-33167Y145057D01*
X-32828Y145668D01*
X-32420Y146279D01*
X-31945Y146857D01*
X-31367Y147400D01*
X-31333D01*
X-31300Y147468D01*
X-31198Y147536D01*
X-31062Y147604D01*
X-30722Y147807D01*
X-30247Y148079D01*
X-29669Y148317D01*
X-28956Y148521D01*
X-28175Y148656D01*
X-27292Y148724D01*
X-26987D01*
X-26647Y148690D01*
D02*
G37*
G36*
X-69946D02*
X-69674Y148656D01*
X-69368Y148623D01*
X-69029Y148588D01*
X-68655Y148487D01*
X-67840Y148283D01*
X-66991Y147977D01*
X-66550Y147774D01*
X-66142Y147536D01*
X-65769Y147230D01*
X-65395Y146924D01*
X-65361Y146890D01*
X-65327Y146857D01*
X-65225Y146755D01*
X-65090Y146619D01*
X-64954Y146415D01*
X-64784Y146211D01*
X-64444Y145702D01*
X-64105Y145057D01*
X-63799Y144310D01*
X-63561Y143461D01*
X-63527Y142985D01*
X-63493Y142510D01*
Y142442D01*
Y142272D01*
X-63527Y142000D01*
X-63561Y141661D01*
X-63629Y141253D01*
X-63731Y140812D01*
X-63867Y140336D01*
X-64071Y139861D01*
X-64105Y139793D01*
X-64173Y139623D01*
X-64308Y139385D01*
X-64512Y139046D01*
X-64750Y138638D01*
X-65055Y138163D01*
X-65463Y137687D01*
X-65904Y137144D01*
X-65972Y137076D01*
X-66142Y136872D01*
X-66448Y136567D01*
X-66652Y136363D01*
X-66889Y136125D01*
X-67161Y135854D01*
X-67501Y135548D01*
X-67840Y135242D01*
X-68214Y134869D01*
X-68621Y134495D01*
X-69097Y134088D01*
X-69572Y133680D01*
X-70115Y133205D01*
X-70149Y133171D01*
X-70217Y133103D01*
X-70353Y133001D01*
X-70523Y132865D01*
X-70931Y132526D01*
X-71440Y132084D01*
X-71949Y131609D01*
X-72493Y131133D01*
X-72934Y130726D01*
X-73104Y130556D01*
X-73274Y130386D01*
X-73308Y130352D01*
X-73376Y130250D01*
X-73512Y130114D01*
X-73681Y129911D01*
X-74055Y129469D01*
X-74428Y128926D01*
X-63459D01*
Y126311D01*
X-78232D01*
Y126345D01*
Y126481D01*
Y126684D01*
X-78198Y126922D01*
X-78164Y127194D01*
X-78130Y127500D01*
X-78028Y127839D01*
X-77926Y128179D01*
Y128213D01*
X-77892Y128247D01*
X-77824Y128450D01*
X-77689Y128722D01*
X-77485Y129129D01*
X-77247Y129571D01*
X-76908Y130080D01*
X-76568Y130590D01*
X-76126Y131133D01*
Y131167D01*
X-76059Y131201D01*
X-75889Y131405D01*
X-75617Y131711D01*
X-75209Y132118D01*
X-74700Y132593D01*
X-74089Y133171D01*
X-73342Y133816D01*
X-72527Y134529D01*
X-72493Y134563D01*
X-72357Y134665D01*
X-72187Y134801D01*
X-71949Y135038D01*
X-71644Y135276D01*
X-71304Y135582D01*
X-70557Y136227D01*
X-69742Y137008D01*
X-68927Y137789D01*
X-68519Y138163D01*
X-68180Y138536D01*
X-67874Y138910D01*
X-67603Y139250D01*
Y139284D01*
X-67535Y139318D01*
X-67467Y139419D01*
X-67399Y139555D01*
X-67195Y139895D01*
X-66957Y140336D01*
X-66720Y140846D01*
X-66516Y141389D01*
X-66380Y142000D01*
X-66312Y142578D01*
Y142612D01*
Y142646D01*
X-66346Y142849D01*
X-66380Y143155D01*
X-66448Y143528D01*
X-66618Y143970D01*
X-66821Y144411D01*
X-67093Y144887D01*
X-67501Y145328D01*
X-67568Y145362D01*
X-67704Y145498D01*
X-67976Y145668D01*
X-68316Y145906D01*
X-68757Y146109D01*
X-69267Y146279D01*
X-69878Y146415D01*
X-70557Y146449D01*
X-70761D01*
X-70897Y146415D01*
X-71236Y146381D01*
X-71678Y146313D01*
X-72187Y146143D01*
X-72730Y145940D01*
X-73240Y145634D01*
X-73715Y145226D01*
X-73749Y145159D01*
X-73885Y145023D01*
X-74089Y144751D01*
X-74293Y144377D01*
X-74530Y143902D01*
X-74700Y143359D01*
X-74836Y142713D01*
X-74904Y141966D01*
X-77723Y142272D01*
Y142306D01*
Y142408D01*
X-77689Y142578D01*
X-77655Y142781D01*
X-77587Y143053D01*
X-77553Y143359D01*
X-77349Y144038D01*
X-77077Y144819D01*
X-76704Y145600D01*
X-76194Y146381D01*
X-75923Y146721D01*
X-75583Y147060D01*
X-75549Y147094D01*
X-75481Y147128D01*
X-75379Y147230D01*
X-75244Y147332D01*
X-75040Y147434D01*
X-74802Y147604D01*
X-74530Y147739D01*
X-74225Y147909D01*
X-73885Y148045D01*
X-73512Y148215D01*
X-73070Y148351D01*
X-72629Y148453D01*
X-71610Y148656D01*
X-71066Y148690D01*
X-70489Y148724D01*
X-70184D01*
X-69946Y148690D01*
D02*
G37*
G36*
X-114535Y148588D02*
X-114263D01*
X-113584Y148554D01*
X-112871Y148487D01*
X-112124Y148351D01*
X-111411Y148215D01*
X-111071Y148113D01*
X-110765Y148011D01*
X-110731D01*
X-110697Y147977D01*
X-110494Y147909D01*
X-110222Y147739D01*
X-109882Y147502D01*
X-109475Y147230D01*
X-109067Y146857D01*
X-108660Y146415D01*
X-108286Y145872D01*
X-108252Y145804D01*
X-108151Y145600D01*
X-107981Y145294D01*
X-107811Y144887D01*
X-107641Y144377D01*
X-107471Y143800D01*
X-107369Y143189D01*
X-107336Y142510D01*
Y142476D01*
Y142408D01*
Y142272D01*
X-107369Y142102D01*
Y141898D01*
X-107403Y141661D01*
X-107539Y141117D01*
X-107709Y140472D01*
X-107981Y139827D01*
X-108388Y139148D01*
X-108626Y138808D01*
X-108898Y138502D01*
X-108966Y138434D01*
X-109067Y138367D01*
X-109169Y138231D01*
X-109339Y138129D01*
X-109543Y137959D01*
X-109781Y137823D01*
X-110052Y137653D01*
X-110358Y137484D01*
X-110731Y137314D01*
X-111105Y137144D01*
X-111546Y136974D01*
X-111988Y136805D01*
X-112497Y136669D01*
X-113041Y136567D01*
X-113618Y136465D01*
X-113550Y136431D01*
X-113414Y136363D01*
X-113210Y136261D01*
X-112973Y136125D01*
X-112395Y135752D01*
X-112090Y135548D01*
X-111852Y135344D01*
X-111784Y135276D01*
X-111614Y135140D01*
X-111377Y134869D01*
X-111071Y134529D01*
X-110697Y134088D01*
X-110290Y133578D01*
X-109848Y133001D01*
X-109407Y132356D01*
X-105536Y126311D01*
X-109237D01*
X-112192Y130929D01*
Y130963D01*
X-112260Y131031D01*
X-112328Y131133D01*
X-112395Y131269D01*
X-112633Y131609D01*
X-112939Y132050D01*
X-113278Y132559D01*
X-113652Y133069D01*
X-113992Y133544D01*
X-114331Y133986D01*
X-114365Y134020D01*
X-114467Y134156D01*
X-114637Y134359D01*
X-114807Y134597D01*
X-115316Y135072D01*
X-115554Y135310D01*
X-115825Y135480D01*
X-115859Y135514D01*
X-115927Y135548D01*
X-116063Y135616D01*
X-116233Y135718D01*
X-116641Y135921D01*
X-117150Y136091D01*
X-117184D01*
X-117252Y136125D01*
X-117388D01*
X-117557Y136159D01*
X-117795Y136193D01*
X-118067D01*
X-118406Y136227D01*
X-122210D01*
Y126311D01*
X-125164D01*
Y148623D01*
X-114807D01*
X-114535Y148588D01*
D02*
G37*
G36*
X-561125Y-18009D02*
X-560751D01*
X-560310Y-18043D01*
X-559834Y-18077D01*
X-558815Y-18178D01*
X-557763Y-18314D01*
X-556710Y-18518D01*
X-556234Y-18654D01*
X-555759Y-18790D01*
X-555725D01*
X-555657Y-18824D01*
X-555521Y-18858D01*
X-555351Y-18926D01*
X-555148Y-19028D01*
X-554944Y-19129D01*
X-554401Y-19401D01*
X-553789Y-19741D01*
X-553178Y-20148D01*
X-552567Y-20624D01*
X-552023Y-21201D01*
Y-21235D01*
X-551955Y-21269D01*
X-551922Y-21371D01*
X-551820Y-21473D01*
X-551616Y-21846D01*
X-551378Y-22288D01*
X-551141Y-22899D01*
X-550937Y-23578D01*
X-550801Y-24359D01*
X-550733Y-25242D01*
Y-25276D01*
Y-25378D01*
Y-25548D01*
X-550767Y-25786D01*
X-550801Y-26057D01*
X-550869Y-26363D01*
X-550937Y-26702D01*
X-551005Y-27076D01*
X-551276Y-27891D01*
X-551480Y-28333D01*
X-551684Y-28740D01*
X-551955Y-29181D01*
X-552261Y-29589D01*
X-552601Y-29963D01*
X-553008Y-30336D01*
X-553042Y-30370D01*
X-553144Y-30438D01*
X-553314Y-30540D01*
X-553552Y-30676D01*
X-553857Y-30845D01*
X-554231Y-31015D01*
X-554672Y-31219D01*
X-555216Y-31423D01*
X-555793Y-31627D01*
X-556472Y-31830D01*
X-557219Y-32000D01*
X-558034Y-32170D01*
X-558951Y-32306D01*
X-559902Y-32408D01*
X-560989Y-32476D01*
X-562109Y-32510D01*
X-562755D01*
X-563094Y-32476D01*
X-563468D01*
X-563909Y-32442D01*
X-564385Y-32408D01*
X-565404Y-32306D01*
X-566456Y-32170D01*
X-567509Y-32000D01*
X-567985Y-31864D01*
X-568460Y-31728D01*
X-568494D01*
X-568562Y-31695D01*
X-568698Y-31627D01*
X-568867Y-31559D01*
X-569071Y-31491D01*
X-569309Y-31389D01*
X-569852Y-31117D01*
X-570464Y-30778D01*
X-571075Y-30370D01*
X-571652Y-29895D01*
X-572196Y-29317D01*
Y-29283D01*
X-572263Y-29249D01*
X-572331Y-29148D01*
X-572399Y-29012D01*
X-572603Y-28672D01*
X-572875Y-28197D01*
X-573112Y-27619D01*
X-573316Y-26906D01*
X-573452Y-26125D01*
X-573520Y-25242D01*
Y-25208D01*
Y-25174D01*
Y-25072D01*
Y-24936D01*
X-573486Y-24597D01*
X-573418Y-24189D01*
X-573350Y-23714D01*
X-573214Y-23171D01*
X-573011Y-22627D01*
X-572773Y-22118D01*
X-572739Y-22050D01*
X-572637Y-21880D01*
X-572467Y-21642D01*
X-572263Y-21303D01*
X-571958Y-20963D01*
X-571584Y-20590D01*
X-571177Y-20216D01*
X-570701Y-19877D01*
X-570633Y-19842D01*
X-570464Y-19741D01*
X-570158Y-19571D01*
X-569784Y-19367D01*
X-569309Y-19163D01*
X-568732Y-18926D01*
X-568086Y-18688D01*
X-567373Y-18484D01*
X-567339D01*
X-567271Y-18450D01*
X-567169D01*
X-567000Y-18416D01*
X-566830Y-18348D01*
X-566592Y-18314D01*
X-566287Y-18280D01*
X-565981Y-18212D01*
X-565607Y-18178D01*
X-565234Y-18145D01*
X-564792Y-18077D01*
X-564317Y-18043D01*
X-563807Y-18009D01*
X-563298D01*
X-562109Y-17975D01*
X-561464D01*
X-561125Y-18009D01*
D02*
G37*
G36*
X751375Y-7075D02*
X751749D01*
X752190Y-7109D01*
X752666Y-7143D01*
X753685Y-7245D01*
X754737Y-7381D01*
X755790Y-7585D01*
X756266Y-7721D01*
X756741Y-7857D01*
X756775D01*
X756843Y-7890D01*
X756979Y-7924D01*
X757149Y-7992D01*
X757352Y-8094D01*
X757556Y-8196D01*
X758099Y-8468D01*
X758711Y-8807D01*
X759322Y-9215D01*
X759933Y-9690D01*
X760477Y-10268D01*
Y-10302D01*
X760545Y-10336D01*
X760579Y-10438D01*
X760680Y-10539D01*
X760884Y-10913D01*
X761122Y-11354D01*
X761359Y-11966D01*
X761563Y-12645D01*
X761699Y-13426D01*
X761767Y-14309D01*
Y-14343D01*
Y-14445D01*
Y-14614D01*
X761733Y-14852D01*
X761699Y-15124D01*
X761631Y-15430D01*
X761563Y-15769D01*
X761495Y-16143D01*
X761224Y-16958D01*
X761020Y-17399D01*
X760816Y-17807D01*
X760545Y-18248D01*
X760239Y-18656D01*
X759899Y-19029D01*
X759492Y-19403D01*
X759458Y-19437D01*
X759356Y-19505D01*
X759186Y-19607D01*
X758948Y-19742D01*
X758643Y-19912D01*
X758269Y-20082D01*
X757828Y-20286D01*
X757284Y-20490D01*
X756707Y-20693D01*
X756028Y-20897D01*
X755281Y-21067D01*
X754466Y-21237D01*
X753549Y-21372D01*
X752598Y-21474D01*
X751511Y-21542D01*
X750390Y-21576D01*
X749745D01*
X749406Y-21542D01*
X749032D01*
X748591Y-21508D01*
X748115Y-21474D01*
X747096Y-21372D01*
X746044Y-21237D01*
X744991Y-21067D01*
X744516Y-20931D01*
X744040Y-20795D01*
X744006D01*
X743938Y-20761D01*
X743802Y-20693D01*
X743633Y-20625D01*
X743429Y-20557D01*
X743191Y-20456D01*
X742648Y-20184D01*
X742036Y-19844D01*
X741425Y-19437D01*
X740848Y-18961D01*
X740304Y-18384D01*
Y-18350D01*
X740237Y-18316D01*
X740169Y-18214D01*
X740101Y-18078D01*
X739897Y-17739D01*
X739625Y-17263D01*
X739388Y-16686D01*
X739184Y-15973D01*
X739048Y-15192D01*
X738980Y-14309D01*
Y-14275D01*
Y-14241D01*
Y-14139D01*
Y-14003D01*
X739014Y-13664D01*
X739082Y-13256D01*
X739150Y-12781D01*
X739286Y-12237D01*
X739489Y-11694D01*
X739727Y-11185D01*
X739761Y-11117D01*
X739863Y-10947D01*
X740033Y-10709D01*
X740237Y-10369D01*
X740542Y-10030D01*
X740916Y-9656D01*
X741323Y-9283D01*
X741799Y-8943D01*
X741867Y-8909D01*
X742036Y-8807D01*
X742342Y-8638D01*
X742716Y-8434D01*
X743191Y-8230D01*
X743768Y-7992D01*
X744414Y-7755D01*
X745127Y-7551D01*
X745161D01*
X745229Y-7517D01*
X745331D01*
X745500Y-7483D01*
X745670Y-7415D01*
X745908Y-7381D01*
X746214Y-7347D01*
X746519Y-7279D01*
X746893Y-7245D01*
X747266Y-7211D01*
X747708Y-7143D01*
X748183Y-7109D01*
X748692Y-7075D01*
X749202D01*
X750390Y-7042D01*
X751036D01*
X751375Y-7075D01*
D02*
G37*
G36*
X761394Y-2729D02*
X758269D01*
Y396D01*
X761394D01*
Y-2729D01*
D02*
G37*
G36*
X-551106Y-42256D02*
X-568562D01*
X-568528Y-42290D01*
X-568392Y-42426D01*
X-568222Y-42663D01*
X-567985Y-42969D01*
X-567679Y-43343D01*
X-567373Y-43784D01*
X-567000Y-44294D01*
X-566660Y-44871D01*
Y-44905D01*
X-566626Y-44939D01*
X-566490Y-45143D01*
X-566320Y-45448D01*
X-566117Y-45822D01*
X-565879Y-46263D01*
X-565675Y-46739D01*
X-565438Y-47248D01*
X-565234Y-47723D01*
X-567917D01*
Y-47690D01*
X-567951Y-47622D01*
X-568018Y-47486D01*
X-568120Y-47350D01*
X-568222Y-47146D01*
X-568324Y-46908D01*
X-568630Y-46365D01*
X-569003Y-45754D01*
X-569445Y-45075D01*
X-569954Y-44395D01*
X-570498Y-43750D01*
X-570532Y-43716D01*
X-570565Y-43682D01*
X-570769Y-43479D01*
X-571075Y-43173D01*
X-571448Y-42799D01*
X-571924Y-42392D01*
X-572433Y-41984D01*
X-572977Y-41611D01*
X-573520Y-41305D01*
Y-39505D01*
X-551106D01*
Y-42256D01*
D02*
G37*
G36*
X751375Y18904D02*
X751749D01*
X752190Y18870D01*
X752666Y18836D01*
X753685Y18734D01*
X754737Y18598D01*
X755790Y18394D01*
X756266Y18259D01*
X756741Y18123D01*
X756775D01*
X756843Y18089D01*
X756979Y18055D01*
X757149Y17987D01*
X757352Y17885D01*
X757556Y17783D01*
X758099Y17511D01*
X758711Y17172D01*
X759322Y16764D01*
X759933Y16289D01*
X760477Y15712D01*
Y15678D01*
X760545Y15644D01*
X760579Y15542D01*
X760680Y15440D01*
X760884Y15066D01*
X761122Y14625D01*
X761359Y14014D01*
X761563Y13334D01*
X761699Y12553D01*
X761767Y11670D01*
Y11636D01*
Y11535D01*
Y11365D01*
X761733Y11127D01*
X761699Y10855D01*
X761631Y10550D01*
X761563Y10210D01*
X761495Y9837D01*
X761224Y9021D01*
X761020Y8580D01*
X760816Y8173D01*
X760545Y7731D01*
X760239Y7323D01*
X759899Y6950D01*
X759492Y6576D01*
X759458Y6542D01*
X759356Y6474D01*
X759186Y6373D01*
X758948Y6237D01*
X758643Y6067D01*
X758269Y5897D01*
X757828Y5693D01*
X757284Y5490D01*
X756707Y5286D01*
X756028Y5082D01*
X755281Y4912D01*
X754466Y4743D01*
X753549Y4607D01*
X752598Y4505D01*
X751511Y4437D01*
X750390Y4403D01*
X749745D01*
X749406Y4437D01*
X749032D01*
X748591Y4471D01*
X748115Y4505D01*
X747096Y4607D01*
X746044Y4743D01*
X744991Y4912D01*
X744516Y5048D01*
X744040Y5184D01*
X744006D01*
X743938Y5218D01*
X743802Y5286D01*
X743633Y5354D01*
X743429Y5422D01*
X743191Y5524D01*
X742648Y5795D01*
X742036Y6135D01*
X741425Y6542D01*
X740848Y7018D01*
X740304Y7595D01*
Y7629D01*
X740237Y7663D01*
X740169Y7765D01*
X740101Y7901D01*
X739897Y8240D01*
X739625Y8716D01*
X739388Y9293D01*
X739184Y10006D01*
X739048Y10787D01*
X738980Y11670D01*
Y11704D01*
Y11738D01*
Y11840D01*
Y11976D01*
X739014Y12316D01*
X739082Y12723D01*
X739150Y13199D01*
X739286Y13742D01*
X739489Y14285D01*
X739727Y14795D01*
X739761Y14863D01*
X739863Y15032D01*
X740033Y15270D01*
X740237Y15610D01*
X740542Y15949D01*
X740916Y16323D01*
X741323Y16696D01*
X741799Y17036D01*
X741867Y17070D01*
X742036Y17172D01*
X742342Y17342D01*
X742716Y17545D01*
X743191Y17749D01*
X743768Y17987D01*
X744414Y18225D01*
X745127Y18428D01*
X745161D01*
X745229Y18462D01*
X745331D01*
X745500Y18496D01*
X745670Y18564D01*
X745908Y18598D01*
X746214Y18632D01*
X746519Y18700D01*
X746893Y18734D01*
X747266Y18768D01*
X747708Y18836D01*
X748183Y18870D01*
X748692Y18904D01*
X749202D01*
X750390Y18938D01*
X751036D01*
X751375Y18904D01*
D02*
G37*
G36*
X-188460Y-392300D02*
X-188207Y-392447D01*
X-187962Y-392607D01*
X-187726Y-392780D01*
X-187499Y-392965D01*
X-187283Y-393161D01*
X-187076Y-393369D01*
X-186881Y-393587D01*
X-186698Y-393815D01*
X-186527Y-394052D01*
X-186369Y-394298D01*
X-186223Y-394552D01*
X-186091Y-394813D01*
X-185973Y-395081D01*
X-185869Y-395354D01*
X-185780Y-395633D01*
X-185705Y-395916D01*
X-185645Y-396202D01*
X-185600Y-396491D01*
X-185571Y-396782D01*
X-185557Y-397075D01*
X-185557Y-397367D01*
X-185574Y-397659D01*
X-185605Y-397950D01*
X-185652Y-398239D01*
X-185714Y-398525D01*
X-185791Y-398807D01*
X-185882Y-399085D01*
X-185988Y-399358D01*
X-186108Y-399624D01*
X-191143Y-397201D01*
X-188720Y-392166D01*
X-188460Y-392300D01*
D02*
G37*
G36*
X-340307Y271294D02*
X-340495Y271070D01*
X-340695Y270857D01*
X-340906Y270654D01*
X-341127Y270462D01*
X-341357Y270282D01*
X-341597Y270114D01*
X-341846Y269960D01*
X-342102Y269818D01*
X-342365Y269690D01*
X-342634Y269576D01*
X-342909Y269476D01*
X-343189Y269391D01*
X-343473Y269321D01*
X-343760Y269265D01*
X-344050Y269225D01*
X-344342Y269200D01*
X-344634Y269190D01*
X-344926Y269195D01*
X-345218Y269216D01*
X-345508Y269252D01*
X-345797Y269303D01*
X-346082Y269369D01*
X-346363Y269450D01*
X-346639Y269546D01*
X-346910Y269655D01*
X-347175Y269779D01*
X-347434Y269917D01*
X-347684Y270068D01*
X-347926Y270232D01*
X-348160Y270408D01*
X-344677Y274778D01*
X-340307Y271294D01*
D02*
G37*
G36*
X-394577Y253550D02*
X-394286Y253531D01*
X-393995Y253497D01*
X-393707Y253448D01*
X-393421Y253384D01*
X-393139Y253305D01*
X-392862Y253212D01*
X-392590Y253104D01*
X-392324Y252982D01*
X-392065Y252847D01*
X-391813Y252697D01*
X-394785Y247965D01*
X-399518Y250938D01*
X-399356Y251181D01*
X-399181Y251416D01*
X-398994Y251641D01*
X-398796Y251856D01*
X-398587Y252061D01*
X-398367Y252254D01*
X-398138Y252436D01*
X-397900Y252605D01*
X-397652Y252762D01*
X-397397Y252905D01*
X-397135Y253035D01*
X-396867Y253151D01*
X-396592Y253253D01*
X-396313Y253340D01*
X-396030Y253413D01*
X-395743Y253471D01*
X-395454Y253513D01*
X-395162Y253541D01*
X-394870Y253553D01*
X-394577Y253550D01*
D02*
G37*
G36*
X344619Y274850D02*
X340250Y271366D01*
X340074Y271599D01*
X339910Y271841D01*
X339759Y272092D01*
X339621Y272350D01*
X339497Y272615D01*
X339387Y272886D01*
X339292Y273162D01*
X339211Y273444D01*
X339145Y273729D01*
X339093Y274017D01*
X339057Y274307D01*
X339037Y274599D01*
X339031Y274891D01*
X339041Y275184D01*
X339066Y275475D01*
X339106Y275765D01*
X339162Y276052D01*
X339232Y276336D01*
X339318Y276616D01*
X339417Y276891D01*
X339531Y277160D01*
X339659Y277424D01*
X339800Y277680D01*
X339955Y277928D01*
X340123Y278168D01*
X340303Y278399D01*
X340494Y278620D01*
X340697Y278830D01*
X340911Y279030D01*
X341135Y279219D01*
X344619Y274850D01*
D02*
G37*
G36*
X-329413Y335182D02*
X-329122Y335159D01*
X-328832Y335121D01*
X-328544Y335067D01*
X-328260Y334999D01*
X-327979Y334916D01*
X-327703Y334819D01*
X-327433Y334707D01*
X-327169Y334581D01*
X-326912Y334441D01*
X-326662Y334288D01*
X-326421Y334123D01*
X-326189Y333945D01*
X-325966Y333755D01*
X-325754Y333553D01*
X-329705Y329601D01*
X-333657Y333552D01*
X-333445Y333754D01*
X-333222Y333943D01*
X-332990Y334122D01*
X-332749Y334287D01*
X-332500Y334440D01*
X-332243Y334580D01*
X-331979Y334706D01*
X-331708Y334818D01*
X-331433Y334916D01*
X-331152Y334999D01*
X-330868Y335067D01*
X-330580Y335121D01*
X-330290Y335159D01*
X-329998Y335182D01*
X-329706Y335189D01*
X-329413Y335182D01*
D02*
G37*
G36*
X333788Y333410D02*
X333978Y333187D01*
X334156Y332955D01*
X334322Y332714D01*
X334475Y332465D01*
X334615Y332208D01*
X334741Y331944D01*
X334853Y331673D01*
X334950Y331398D01*
X335033Y331117D01*
X335102Y330832D01*
X335155Y330545D01*
X335193Y330255D01*
X335216Y329963D01*
X335224Y329671D01*
X335216Y329378D01*
X335193Y329087D01*
X335155Y328797D01*
X335102Y328509D01*
X335034Y328224D01*
X334950Y327944D01*
X334853Y327668D01*
X334741Y327398D01*
X334615Y327134D01*
X334475Y326877D01*
X334323Y326627D01*
X334157Y326386D01*
X333979Y326154D01*
X333789Y325932D01*
X333587Y325719D01*
X329636Y329670D01*
X333587Y333622D01*
X333788Y333410D01*
D02*
G37*
G36*
X445399Y155553D02*
X445473Y155270D01*
X445533Y154984D01*
X445578Y154695D01*
X445607Y154404D01*
X445621Y154111D01*
X445620Y153819D01*
X445604Y153527D01*
X445572Y153236D01*
X445526Y152947D01*
X445464Y152661D01*
X445387Y152379D01*
X445295Y152101D01*
X445190Y151828D01*
X445070Y151561D01*
X444936Y151301D01*
X444789Y151049D01*
X444628Y150804D01*
X444455Y150568D01*
X444271Y150341D01*
X444074Y150124D01*
X443866Y149918D01*
X443648Y149723D01*
X443420Y149540D01*
X443183Y149369D01*
X442937Y149211D01*
X442683Y149065D01*
X442422Y148933D01*
X442154Y148815D01*
X441881Y148712D01*
X440035Y153986D01*
X445309Y155832D01*
X445399Y155553D01*
D02*
G37*
G36*
X429747Y98094D02*
X424299Y96850D01*
X424241Y97137D01*
X424199Y97426D01*
X424171Y97718D01*
X424159Y98010D01*
X424163Y98302D01*
X424181Y98595D01*
X424215Y98885D01*
X424264Y99173D01*
X424328Y99459D01*
X424407Y99741D01*
X424501Y100018D01*
X424608Y100290D01*
X424730Y100556D01*
X424866Y100815D01*
X425015Y101067D01*
X425177Y101310D01*
X425352Y101545D01*
X425538Y101770D01*
X425737Y101985D01*
X425946Y102190D01*
X426166Y102383D01*
X426395Y102565D01*
X426633Y102734D01*
X426881Y102891D01*
X427136Y103034D01*
X427398Y103164D01*
X427666Y103280D01*
X427941Y103382D01*
X428220Y103469D01*
X428503Y103541D01*
X429747Y98094D01*
D02*
G37*
G36*
X-439651Y159466D02*
X-439360Y159437D01*
X-439071Y159392D01*
X-438784Y159333D01*
X-438501Y159258D01*
X-438223Y159169D01*
X-440067Y153894D01*
X-445342Y155738D01*
X-445238Y156012D01*
X-445120Y156280D01*
X-444988Y156541D01*
X-444843Y156795D01*
X-444685Y157041D01*
X-444514Y157278D01*
X-444331Y157506D01*
X-444136Y157724D01*
X-443930Y157932D01*
X-443713Y158129D01*
X-443486Y158314D01*
X-443250Y158487D01*
X-443006Y158647D01*
X-442753Y158794D01*
X-442493Y158928D01*
X-442226Y159048D01*
X-441953Y159154D01*
X-441675Y159245D01*
X-441393Y159322D01*
X-441107Y159384D01*
X-440818Y159431D01*
X-440527Y159463D01*
X-440235Y159479D01*
X-439943Y159480D01*
X-439651Y159466D01*
D02*
G37*
G36*
X399614Y250770D02*
X399750Y250510D01*
X399872Y250245D01*
X399980Y249973D01*
X400073Y249695D01*
X400152Y249414D01*
X400216Y249128D01*
X400265Y248840D01*
X400299Y248549D01*
X400318Y248257D01*
X400321Y247965D01*
X400309Y247672D01*
X400282Y247381D01*
X400239Y247092D01*
X400182Y246805D01*
X400109Y246521D01*
X400022Y246242D01*
X399920Y245968D01*
X399804Y245699D01*
X399674Y245437D01*
X399531Y245182D01*
X399374Y244935D01*
X399205Y244697D01*
X399023Y244467D01*
X398830Y244247D01*
X398625Y244038D01*
X398410Y243840D01*
X398185Y243653D01*
X397950Y243479D01*
X397707Y243317D01*
X394734Y248048D01*
X399465Y251021D01*
X399614Y250770D01*
D02*
G37*
G36*
X397141Y191268D02*
X392107Y188843D01*
X391987Y189110D01*
X391881Y189383D01*
X391790Y189661D01*
X391713Y189943D01*
X391651Y190229D01*
X391604Y190518D01*
X391572Y190808D01*
X391556Y191101D01*
X391555Y191393D01*
X391569Y191685D01*
X391599Y191976D01*
X391643Y192265D01*
X391703Y192552D01*
X391777Y192835D01*
X391867Y193113D01*
X391971Y193387D01*
X392089Y193654D01*
X392220Y193916D01*
X392366Y194170D01*
X392524Y194415D01*
X392695Y194653D01*
X392879Y194881D01*
X393074Y195099D01*
X393280Y195307D01*
X393496Y195503D01*
X393723Y195688D01*
X393959Y195861D01*
X394204Y196021D01*
X394456Y196169D01*
X394717Y196302D01*
X397141Y191268D01*
D02*
G37*
G36*
X-271401Y340222D02*
X-271635Y340045D01*
X-271877Y339882D01*
X-272127Y339730D01*
X-272386Y339593D01*
X-272651Y339469D01*
X-272922Y339359D01*
X-273198Y339263D01*
X-273479Y339182D01*
X-273764Y339116D01*
X-274052Y339065D01*
X-274342Y339029D01*
X-274634Y339008D01*
X-274927Y339002D01*
X-275219Y339012D01*
X-275511Y339037D01*
X-275800Y339077D01*
X-276088Y339133D01*
X-276372Y339203D01*
X-276652Y339288D01*
X-276927Y339388D01*
X-277196Y339502D01*
X-277459Y339630D01*
X-277715Y339771D01*
X-277964Y339926D01*
X-278204Y340094D01*
X-278434Y340273D01*
X-278655Y340465D01*
X-278866Y340668D01*
X-279066Y340882D01*
X-279254Y341105D01*
X-274886Y344590D01*
X-271401Y340222D01*
D02*
G37*
G36*
X156059Y445222D02*
X156326Y445104D01*
X156587Y444972D01*
X156841Y444827D01*
X157087Y444668D01*
X157325Y444497D01*
X157553Y444314D01*
X157771Y444119D01*
X157979Y443913D01*
X158175Y443696D01*
X158360Y443470D01*
X158533Y443234D01*
X158693Y442989D01*
X158841Y442736D01*
X158974Y442476D01*
X159094Y442209D01*
X159200Y441936D01*
X159292Y441659D01*
X159368Y441376D01*
X159430Y441090D01*
X159477Y440802D01*
X159509Y440511D01*
X159525Y440219D01*
X159527Y439926D01*
X159512Y439634D01*
X159483Y439343D01*
X159438Y439054D01*
X159378Y438767D01*
X159304Y438484D01*
X159214Y438206D01*
X153940Y440051D01*
X155785Y445326D01*
X156059Y445222D01*
D02*
G37*
G36*
X-46Y435212D02*
X-338Y435220D01*
X-630Y435243D01*
X-920Y435281D01*
X-1207Y435334D01*
X-1492Y435402D01*
X-1772Y435485D01*
X-2048Y435583D01*
X-2318Y435695D01*
X-2582Y435821D01*
X-2840Y435960D01*
X-3089Y436113D01*
X-3330Y436279D01*
X-3562Y436457D01*
X-3785Y436647D01*
X-3997Y436848D01*
X-4198Y437061D01*
X-4388Y437283D01*
X-4567Y437515D01*
X-4732Y437756D01*
X-4885Y438005D01*
X-5025Y438263D01*
X-5151Y438527D01*
X-5263Y438797D01*
X-5361Y439073D01*
X-5444Y439353D01*
X-5512Y439638D01*
X-5565Y439925D01*
X-5604Y440215D01*
X-5627Y440507D01*
X-5634Y440799D01*
X-46Y440800D01*
X-46Y435212D01*
D02*
G37*
G36*
X-153866Y445604D02*
X-153574Y445588D01*
X-153283Y445556D01*
X-152994Y445509D01*
X-152708Y445448D01*
X-152426Y445371D01*
X-152148Y445280D01*
X-151875Y445174D01*
X-151608Y445054D01*
X-151348Y444920D01*
X-151095Y444773D01*
X-150850Y444613D01*
X-150614Y444440D01*
X-150388Y444255D01*
X-150171Y444058D01*
X-149965Y443851D01*
X-149770Y443633D01*
X-149586Y443405D01*
X-149415Y443167D01*
X-149257Y442921D01*
X-149112Y442667D01*
X-148980Y442406D01*
X-148862Y442139D01*
X-148758Y441865D01*
X-154032Y440019D01*
X-155878Y445293D01*
X-155600Y445382D01*
X-155317Y445457D01*
X-155030Y445517D01*
X-154741Y445562D01*
X-154450Y445591D01*
X-154158Y445605D01*
X-153866Y445604D01*
D02*
G37*
G36*
X-52000Y468845D02*
X-51708Y468825D01*
X-51418Y468788D01*
X-51129Y468737D01*
X-50845Y468671D01*
X-50563Y468590D01*
X-50287Y468495D01*
X-50016Y468385D01*
X-49751Y468261D01*
X-49493Y468123D01*
X-49242Y467972D01*
X-49000Y467808D01*
X-48766Y467632D01*
X-48542Y467444D01*
X-48329Y467244D01*
X-48126Y467033D01*
X-47934Y466812D01*
X-47754Y466581D01*
X-47587Y466342D01*
X-47432Y466093D01*
X-47290Y465837D01*
X-47162Y465574D01*
X-47048Y465305D01*
X-46948Y465030D01*
X-46863Y464750D01*
X-46793Y464466D01*
X-46737Y464179D01*
X-46697Y463889D01*
X-52250Y463263D01*
X-52876Y468816D01*
X-52585Y468841D01*
X-52292Y468851D01*
X-52000Y468845D01*
D02*
G37*
G36*
X53068Y468786D02*
X53355Y468731D01*
X53639Y468661D01*
X53919Y468575D01*
X54194Y468476D01*
X54463Y468362D01*
X54726Y468234D01*
X54983Y468092D01*
X55231Y467938D01*
X55471Y467770D01*
X55701Y467590D01*
X55922Y467399D01*
X56133Y467196D01*
X56333Y466982D01*
X56521Y466758D01*
X56698Y466525D01*
X56862Y466283D01*
X57013Y466032D01*
X57150Y465774D01*
X57274Y465509D01*
X57384Y465238D01*
X57480Y464961D01*
X57561Y464680D01*
X57627Y464395D01*
X57678Y464107D01*
X57714Y463817D01*
X57735Y463525D01*
X57741Y463232D01*
X57731Y462940D01*
X57706Y462649D01*
X52153Y463274D01*
X52778Y468827D01*
X53068Y468786D01*
D02*
G37*
G36*
X251223Y399329D02*
X251458Y399155D01*
X251683Y398968D01*
X251898Y398770D01*
X252103Y398561D01*
X252296Y398341D01*
X252478Y398112D01*
X252647Y397873D01*
X252804Y397626D01*
X252947Y397371D01*
X253077Y397109D01*
X253193Y396840D01*
X253295Y396566D01*
X253382Y396287D01*
X253455Y396003D01*
X253512Y395717D01*
X253555Y395427D01*
X253582Y395136D01*
X253594Y394843D01*
X253591Y394551D01*
X253572Y394259D01*
X253538Y393968D01*
X253489Y393680D01*
X253426Y393395D01*
X253347Y393113D01*
X253253Y392836D01*
X253145Y392564D01*
X253023Y392298D01*
X252888Y392039D01*
X252738Y391787D01*
X248007Y394759D01*
X250979Y399491D01*
X251223Y399329D01*
D02*
G37*
G36*
X-188884Y392087D02*
X-189151Y391967D01*
X-189424Y391861D01*
X-189702Y391770D01*
X-189984Y391693D01*
X-190270Y391631D01*
X-190559Y391584D01*
X-190849Y391552D01*
X-191141Y391536D01*
X-191434Y391535D01*
X-191726Y391549D01*
X-192017Y391578D01*
X-192306Y391623D01*
X-192593Y391683D01*
X-192876Y391757D01*
X-193154Y391847D01*
X-193428Y391950D01*
X-193696Y392068D01*
X-193957Y392200D01*
X-194211Y392346D01*
X-194457Y392504D01*
X-194694Y392675D01*
X-194922Y392858D01*
X-195140Y393053D01*
X-195348Y393259D01*
X-195544Y393476D01*
X-195730Y393702D01*
X-195902Y393938D01*
X-196063Y394183D01*
X-196210Y394436D01*
X-196344Y394696D01*
X-191309Y397121D01*
X-188884Y392087D01*
D02*
G37*
G36*
X191226Y397161D02*
X188802Y392127D01*
X188542Y392260D01*
X188289Y392407D01*
X188044Y392568D01*
X187808Y392741D01*
X187582Y392926D01*
X187365Y393122D01*
X187159Y393330D01*
X186964Y393548D01*
X186781Y393776D01*
X186609Y394013D01*
X186451Y394259D01*
X186306Y394513D01*
X186174Y394774D01*
X186056Y395042D01*
X185952Y395315D01*
X185863Y395594D01*
X185788Y395877D01*
X185728Y396163D01*
X185683Y396452D01*
X185654Y396743D01*
X185640Y397036D01*
X185641Y397328D01*
X185657Y397620D01*
X185689Y397911D01*
X185736Y398200D01*
X185797Y398486D01*
X185874Y398768D01*
X185966Y399046D01*
X186071Y399319D01*
X186191Y399586D01*
X191226Y397161D01*
D02*
G37*
G36*
X98049Y429757D02*
X96806Y424309D01*
X96522Y424381D01*
X96243Y424469D01*
X95969Y424571D01*
X95700Y424687D01*
X95438Y424816D01*
X95183Y424960D01*
X94936Y425116D01*
X94697Y425286D01*
X94468Y425467D01*
X94248Y425660D01*
X94039Y425865D01*
X93841Y426080D01*
X93654Y426305D01*
X93479Y426540D01*
X93317Y426784D01*
X93168Y427035D01*
X93033Y427294D01*
X92910Y427560D01*
X92803Y427832D01*
X92709Y428110D01*
X92630Y428391D01*
X92566Y428677D01*
X92517Y428965D01*
X92483Y429256D01*
X92465Y429548D01*
X92461Y429840D01*
X92473Y430132D01*
X92501Y430424D01*
X92543Y430713D01*
X92601Y431000D01*
X98049Y429757D01*
D02*
G37*
G36*
X-247714Y400283D02*
X-247423Y400256D01*
X-247134Y400213D01*
X-246847Y400156D01*
X-246563Y400083D01*
X-246284Y399996D01*
X-246010Y399894D01*
X-245741Y399778D01*
X-245479Y399648D01*
X-245224Y399505D01*
X-244977Y399348D01*
X-244738Y399179D01*
X-244509Y398998D01*
X-244289Y398804D01*
X-244080Y398600D01*
X-243882Y398385D01*
X-243695Y398159D01*
X-243521Y397925D01*
X-243358Y397681D01*
X-248089Y394708D01*
X-251063Y399439D01*
X-250811Y399588D01*
X-250552Y399724D01*
X-250286Y399846D01*
X-250014Y399953D01*
X-249737Y400047D01*
X-249456Y400126D01*
X-249170Y400190D01*
X-248882Y400239D01*
X-248591Y400273D01*
X-248299Y400292D01*
X-248007Y400295D01*
X-247714Y400283D01*
D02*
G37*
G36*
X399570Y-250854D02*
X399408Y-251098D01*
X399234Y-251332D01*
X399047Y-251558D01*
X398849Y-251773D01*
X398640Y-251978D01*
X398420Y-252171D01*
X398191Y-252353D01*
X397952Y-252522D01*
X397705Y-252679D01*
X397450Y-252822D01*
X397188Y-252952D01*
X396920Y-253068D01*
X396646Y-253170D01*
X396366Y-253258D01*
X396083Y-253330D01*
X395796Y-253388D01*
X395507Y-253431D01*
X395215Y-253458D01*
X394923Y-253470D01*
X394631Y-253467D01*
X394339Y-253449D01*
X394048Y-253415D01*
X393760Y-253366D01*
X393474Y-253302D01*
X393192Y-253223D01*
X392915Y-253130D01*
X392643Y-253022D01*
X392377Y-252900D01*
X392118Y-252764D01*
X391866Y-252615D01*
X394837Y-247883D01*
X399570Y-250854D01*
D02*
G37*
G36*
X344983Y-269123D02*
X345275Y-269144D01*
X345565Y-269179D01*
X345853Y-269231D01*
X346138Y-269297D01*
X346419Y-269377D01*
X346696Y-269473D01*
X346967Y-269583D01*
X347232Y-269707D01*
X347490Y-269844D01*
X347741Y-269995D01*
X347983Y-270159D01*
X348217Y-270335D01*
X344734Y-274705D01*
X340364Y-271223D01*
X340552Y-270999D01*
X340752Y-270785D01*
X340962Y-270582D01*
X341183Y-270390D01*
X341414Y-270210D01*
X341654Y-270043D01*
X341902Y-269888D01*
X342158Y-269746D01*
X342421Y-269618D01*
X342691Y-269504D01*
X342966Y-269405D01*
X343246Y-269319D01*
X343529Y-269249D01*
X343817Y-269193D01*
X344106Y-269153D01*
X344398Y-269128D01*
X344690Y-269118D01*
X344983Y-269123D01*
D02*
G37*
G36*
X-394682Y-248131D02*
X-399412Y-251105D01*
X-399562Y-250853D01*
X-399697Y-250594D01*
X-399819Y-250328D01*
X-399927Y-250056D01*
X-400021Y-249779D01*
X-400100Y-249498D01*
X-400164Y-249212D01*
X-400213Y-248924D01*
X-400247Y-248633D01*
X-400266Y-248341D01*
X-400269Y-248049D01*
X-400257Y-247756D01*
X-400230Y-247465D01*
X-400187Y-247176D01*
X-400130Y-246889D01*
X-400057Y-246605D01*
X-399970Y-246326D01*
X-399868Y-246052D01*
X-399753Y-245783D01*
X-399623Y-245521D01*
X-399479Y-245266D01*
X-399323Y-245019D01*
X-399154Y-244780D01*
X-398972Y-244551D01*
X-398779Y-244331D01*
X-398574Y-244122D01*
X-398359Y-243924D01*
X-398134Y-243737D01*
X-397899Y-243562D01*
X-397656Y-243400D01*
X-394682Y-248131D01*
D02*
G37*
G36*
X445375Y-155645D02*
X445271Y-155919D01*
X445153Y-156187D01*
X445021Y-156448D01*
X444876Y-156702D01*
X444718Y-156948D01*
X444547Y-157185D01*
X444364Y-157413D01*
X444169Y-157631D01*
X443963Y-157839D01*
X443746Y-158036D01*
X443520Y-158221D01*
X443284Y-158394D01*
X443039Y-158554D01*
X442786Y-158701D01*
X442526Y-158835D01*
X442259Y-158955D01*
X441987Y-159061D01*
X441709Y-159153D01*
X441426Y-159230D01*
X441141Y-159292D01*
X440852Y-159339D01*
X440561Y-159371D01*
X440269Y-159387D01*
X439976Y-159388D01*
X439684Y-159374D01*
X439393Y-159345D01*
X439104Y-159300D01*
X438817Y-159241D01*
X438535Y-159166D01*
X438256Y-159077D01*
X440099Y-153802D01*
X445375Y-155645D01*
D02*
G37*
G36*
X397387Y-185516D02*
X397679Y-185532D01*
X397969Y-185564D01*
X398258Y-185611D01*
X398544Y-185672D01*
X398826Y-185749D01*
X399104Y-185840D01*
X399377Y-185946D01*
X399644Y-186066D01*
X397221Y-191101D01*
X392186Y-188679D01*
X392320Y-188419D01*
X392467Y-188166D01*
X392627Y-187921D01*
X392800Y-187685D01*
X392985Y-187458D01*
X393181Y-187241D01*
X393388Y-187035D01*
X393607Y-186840D01*
X393835Y-186657D01*
X394072Y-186486D01*
X394318Y-186327D01*
X394572Y-186182D01*
X394833Y-186050D01*
X395100Y-185932D01*
X395374Y-185828D01*
X395652Y-185738D01*
X395935Y-185664D01*
X396222Y-185604D01*
X396511Y-185559D01*
X396802Y-185529D01*
X397094Y-185515D01*
X397387Y-185516D01*
D02*
G37*
G36*
X-340017Y-271670D02*
X-339853Y-271912D01*
X-339702Y-272163D01*
X-339564Y-272421D01*
X-339440Y-272686D01*
X-339330Y-272957D01*
X-339235Y-273234D01*
X-339154Y-273515D01*
X-339087Y-273800D01*
X-339036Y-274088D01*
X-339000Y-274378D01*
X-338979Y-274670D01*
X-338974Y-274962D01*
X-338983Y-275255D01*
X-339008Y-275546D01*
X-339049Y-275836D01*
X-339104Y-276123D01*
X-339174Y-276407D01*
X-339259Y-276687D01*
X-339359Y-276962D01*
X-339473Y-277232D01*
X-339601Y-277495D01*
X-339742Y-277751D01*
X-339897Y-277999D01*
X-340065Y-278239D01*
X-340244Y-278470D01*
X-340436Y-278691D01*
X-340639Y-278902D01*
X-340852Y-279102D01*
X-341076Y-279290D01*
X-344561Y-274922D01*
X-340193Y-271437D01*
X-340017Y-271670D01*
D02*
G37*
G36*
X191808Y-391509D02*
X192099Y-391538D01*
X192388Y-391583D01*
X192675Y-391642D01*
X192958Y-391717D01*
X193236Y-391806D01*
X193510Y-391910D01*
X193778Y-392028D01*
X194039Y-392160D01*
X194293Y-392305D01*
X194539Y-392463D01*
X194776Y-392634D01*
X195004Y-392817D01*
X195222Y-393012D01*
X195430Y-393218D01*
X195627Y-393435D01*
X195812Y-393661D01*
X195985Y-393897D01*
X196145Y-394142D01*
X196292Y-394395D01*
X196426Y-394655D01*
X191393Y-397081D01*
X188966Y-392048D01*
X189233Y-391927D01*
X189506Y-391821D01*
X189784Y-391730D01*
X190066Y-391653D01*
X190352Y-391591D01*
X190641Y-391544D01*
X190931Y-391512D01*
X191224Y-391496D01*
X191516Y-391495D01*
X191808Y-391509D01*
D02*
G37*
G36*
X-247924Y-394812D02*
X-250896Y-399544D01*
X-251139Y-399382D01*
X-251374Y-399207D01*
X-251600Y-399021D01*
X-251815Y-398823D01*
X-252019Y-398613D01*
X-252213Y-398394D01*
X-252394Y-398164D01*
X-252564Y-397926D01*
X-252720Y-397679D01*
X-252864Y-397424D01*
X-252994Y-397162D01*
X-253110Y-396893D01*
X-253212Y-396619D01*
X-253299Y-396340D01*
X-253372Y-396056D01*
X-253429Y-395770D01*
X-253472Y-395480D01*
X-253499Y-395189D01*
X-253511Y-394897D01*
X-253508Y-394604D01*
X-253490Y-394312D01*
X-253456Y-394021D01*
X-253407Y-393733D01*
X-253343Y-393448D01*
X-253264Y-393166D01*
X-253171Y-392889D01*
X-253063Y-392617D01*
X-252941Y-392351D01*
X-252805Y-392091D01*
X-252656Y-391840D01*
X-247924Y-394812D01*
D02*
G37*
G36*
X-271035Y-340524D02*
X-270821Y-340723D01*
X-270618Y-340934D01*
X-270426Y-341155D01*
X-270246Y-341386D01*
X-270079Y-341626D01*
X-269924Y-341874D01*
X-269782Y-342130D01*
X-269654Y-342393D01*
X-269540Y-342662D01*
X-269440Y-342937D01*
X-269355Y-343217D01*
X-269285Y-343501D01*
X-269229Y-343788D01*
X-269189Y-344078D01*
X-269164Y-344370D01*
X-269154Y-344662D01*
X-269159Y-344954D01*
X-269180Y-345246D01*
X-269216Y-345537D01*
X-269267Y-345825D01*
X-269333Y-346110D01*
X-269414Y-346391D01*
X-269509Y-346667D01*
X-269619Y-346939D01*
X-269743Y-347204D01*
X-269881Y-347462D01*
X-270032Y-347712D01*
X-270195Y-347955D01*
X-270372Y-348188D01*
X-274741Y-344705D01*
X-271259Y-340336D01*
X-271035Y-340524D01*
D02*
G37*
G36*
X-329567Y-329739D02*
X-333517Y-333692D01*
X-333719Y-333480D01*
X-333909Y-333257D01*
X-334087Y-333025D01*
X-334253Y-332784D01*
X-334406Y-332535D01*
X-334545Y-332278D01*
X-334671Y-332014D01*
X-334783Y-331743D01*
X-334881Y-331468D01*
X-334964Y-331187D01*
X-335033Y-330903D01*
X-335086Y-330615D01*
X-335124Y-330325D01*
X-335147Y-330033D01*
X-335155Y-329741D01*
X-335147Y-329449D01*
X-335124Y-329157D01*
X-335086Y-328867D01*
X-335033Y-328579D01*
X-334965Y-328295D01*
X-334882Y-328014D01*
X-334784Y-327738D01*
X-334672Y-327468D01*
X-334547Y-327204D01*
X-334407Y-326947D01*
X-334254Y-326697D01*
X-334089Y-326456D01*
X-333910Y-326224D01*
X-333721Y-326002D01*
X-333519Y-325789D01*
X-329567Y-329739D01*
D02*
G37*
G36*
X333727Y-333482D02*
X333515Y-333684D01*
X333292Y-333874D01*
X333060Y-334052D01*
X332819Y-334218D01*
X332570Y-334371D01*
X332313Y-334510D01*
X332049Y-334636D01*
X331778Y-334748D01*
X331503Y-334846D01*
X331222Y-334929D01*
X330938Y-334998D01*
X330650Y-335051D01*
X330360Y-335089D01*
X330069Y-335113D01*
X329776Y-335120D01*
X329484Y-335113D01*
X329192Y-335090D01*
X328902Y-335052D01*
X328614Y-334999D01*
X328330Y-334930D01*
X328049Y-334847D01*
X327773Y-334750D01*
X327503Y-334638D01*
X327239Y-334512D01*
X326982Y-334373D01*
X326732Y-334220D01*
X326491Y-334054D01*
X326259Y-333876D01*
X326036Y-333686D01*
X325824Y-333485D01*
X329774Y-329532D01*
X333727Y-333482D01*
D02*
G37*
G36*
X-462946Y57682D02*
X-462655Y57657D01*
X-463279Y52104D01*
X-468832Y52729D01*
X-468792Y53019D01*
X-468736Y53306D01*
X-468666Y53590D01*
X-468581Y53870D01*
X-468481Y54145D01*
X-468367Y54414D01*
X-468240Y54677D01*
X-468098Y54933D01*
X-467943Y55182D01*
X-467776Y55422D01*
X-467596Y55652D01*
X-467405Y55873D01*
X-467202Y56084D01*
X-466988Y56284D01*
X-466764Y56472D01*
X-466531Y56649D01*
X-466288Y56813D01*
X-466038Y56964D01*
X-465780Y57101D01*
X-465515Y57226D01*
X-465244Y57336D01*
X-464967Y57431D01*
X-464686Y57512D01*
X-464401Y57578D01*
X-464113Y57630D01*
X-463823Y57666D01*
X-463531Y57687D01*
X-463238Y57692D01*
X-462946Y57682D01*
D02*
G37*
G36*
X-463257Y-52298D02*
X-468810Y-52925D01*
X-468835Y-52634D01*
X-468845Y-52341D01*
X-468840Y-52049D01*
X-468819Y-51757D01*
X-468783Y-51467D01*
X-468732Y-51179D01*
X-468666Y-50894D01*
X-468585Y-50613D01*
X-468489Y-50336D01*
X-468380Y-50065D01*
X-468256Y-49800D01*
X-468118Y-49542D01*
X-467967Y-49291D01*
X-467803Y-49049D01*
X-467627Y-48815D01*
X-467439Y-48591D01*
X-467239Y-48378D01*
X-467028Y-48175D01*
X-466807Y-47983D01*
X-466577Y-47803D01*
X-466337Y-47635D01*
X-466088Y-47481D01*
X-465832Y-47339D01*
X-465569Y-47211D01*
X-465300Y-47097D01*
X-465025Y-46997D01*
X-464745Y-46912D01*
X-464461Y-46842D01*
X-464174Y-46786D01*
X-463884Y-46746D01*
X-463257Y-52298D01*
D02*
G37*
G36*
X468846Y52536D02*
X468856Y52243D01*
X468851Y51951D01*
X468830Y51659D01*
X468794Y51368D01*
X468743Y51080D01*
X468676Y50795D01*
X468596Y50514D01*
X468500Y50238D01*
X468390Y49967D01*
X468266Y49702D01*
X468128Y49444D01*
X467977Y49193D01*
X467813Y48951D01*
X467637Y48717D01*
X467449Y48493D01*
X467249Y48280D01*
X467038Y48077D01*
X466817Y47885D01*
X466586Y47705D01*
X466347Y47538D01*
X466098Y47383D01*
X465842Y47242D01*
X465579Y47114D01*
X465310Y47000D01*
X465035Y46900D01*
X464755Y46815D01*
X464471Y46744D01*
X464184Y46689D01*
X463894Y46648D01*
X463268Y52201D01*
X468821Y52827D01*
X468846Y52536D01*
D02*
G37*
G36*
X-435220Y-384D02*
X-435243Y-675D01*
X-435281Y-965D01*
X-435334Y-1253D01*
X-435402Y-1538D01*
X-435485Y-1818D01*
X-435583Y-2094D01*
X-435695Y-2364D01*
X-435821Y-2628D01*
X-435960Y-2885D01*
X-436113Y-3135D01*
X-436278Y-3376D01*
X-436457Y-3608D01*
X-436646Y-3831D01*
X-436848Y-4043D01*
X-437060Y-4244D01*
X-437282Y-4434D01*
X-437514Y-4612D01*
X-437756Y-4778D01*
X-438005Y-4931D01*
X-438262Y-5071D01*
X-438526Y-5197D01*
X-438796Y-5309D01*
X-439072Y-5407D01*
X-439353Y-5490D01*
X-439637Y-5558D01*
X-439925Y-5611D01*
X-440215Y-5650D01*
X-440506Y-5673D01*
X-440799Y-5680D01*
X-440800Y-92D01*
X-435212Y-91D01*
X-435220Y-384D01*
D02*
G37*
G36*
X468843Y-52631D02*
X468803Y-52920D01*
X468748Y-53208D01*
X468677Y-53492D01*
X468592Y-53772D01*
X468493Y-54047D01*
X468379Y-54316D01*
X468251Y-54579D01*
X468110Y-54835D01*
X467955Y-55084D01*
X467788Y-55324D01*
X467608Y-55554D01*
X467416Y-55776D01*
X467213Y-55986D01*
X467000Y-56186D01*
X466776Y-56375D01*
X466543Y-56551D01*
X466300Y-56715D01*
X466050Y-56866D01*
X465792Y-57004D01*
X465527Y-57128D01*
X465256Y-57238D01*
X464979Y-57334D01*
X464698Y-57415D01*
X464413Y-57481D01*
X464125Y-57533D01*
X463835Y-57568D01*
X463543Y-57590D01*
X463251Y-57595D01*
X462958Y-57585D01*
X462667Y-57560D01*
X463290Y-52007D01*
X468843Y-52631D01*
D02*
G37*
G36*
X-424221Y-97226D02*
X-424178Y-97515D01*
X-424151Y-97807D01*
X-424139Y-98099D01*
X-424142Y-98391D01*
X-424161Y-98683D01*
X-424194Y-98974D01*
X-424243Y-99262D01*
X-424307Y-99548D01*
X-424386Y-99830D01*
X-424480Y-100107D01*
X-424587Y-100379D01*
X-424709Y-100645D01*
X-424845Y-100904D01*
X-424994Y-101156D01*
X-425156Y-101399D01*
X-425331Y-101634D01*
X-425517Y-101859D01*
X-425715Y-102074D01*
X-425924Y-102279D01*
X-426144Y-102472D01*
X-426373Y-102654D01*
X-426612Y-102823D01*
X-426859Y-102980D01*
X-427114Y-103124D01*
X-427376Y-103253D01*
X-427645Y-103370D01*
X-427919Y-103471D01*
X-428198Y-103559D01*
X-428481Y-103631D01*
X-429726Y-98184D01*
X-424279Y-96939D01*
X-424221Y-97226D01*
D02*
G37*
G36*
X-440003Y-154078D02*
X-445277Y-155925D01*
X-445366Y-155646D01*
X-445441Y-155364D01*
X-445501Y-155077D01*
X-445545Y-154788D01*
X-445575Y-154497D01*
X-445589Y-154205D01*
X-445588Y-153912D01*
X-445572Y-153620D01*
X-445540Y-153329D01*
X-445494Y-153041D01*
X-445432Y-152755D01*
X-445355Y-152472D01*
X-445264Y-152194D01*
X-445158Y-151922D01*
X-445038Y-151655D01*
X-444904Y-151395D01*
X-444757Y-151142D01*
X-444597Y-150897D01*
X-444424Y-150661D01*
X-444239Y-150434D01*
X-444043Y-150217D01*
X-443835Y-150011D01*
X-443617Y-149816D01*
X-443389Y-149633D01*
X-443152Y-149462D01*
X-442906Y-149303D01*
X-442652Y-149158D01*
X-442391Y-149026D01*
X-442123Y-148908D01*
X-441850Y-148804D01*
X-440003Y-154078D01*
D02*
G37*
G36*
X-424319Y96761D02*
X-424392Y96478D01*
X-424479Y96199D01*
X-424581Y95924D01*
X-424697Y95656D01*
X-424826Y95393D01*
X-424970Y95139D01*
X-425126Y94891D01*
X-425295Y94653D01*
X-425477Y94423D01*
X-425670Y94204D01*
X-425875Y93994D01*
X-426090Y93796D01*
X-426315Y93610D01*
X-426550Y93435D01*
X-426793Y93273D01*
X-427045Y93124D01*
X-427304Y92988D01*
X-427570Y92866D01*
X-427842Y92758D01*
X-428119Y92664D01*
X-428401Y92585D01*
X-428686Y92521D01*
X-428975Y92472D01*
X-429265Y92438D01*
X-429557Y92420D01*
X-429850Y92416D01*
X-430142Y92428D01*
X-430433Y92455D01*
X-430723Y92498D01*
X-431010Y92556D01*
X-429767Y98004D01*
X-424319Y96761D01*
D02*
G37*
G36*
X430161Y-92338D02*
X430453Y-92365D01*
X430742Y-92408D01*
X431029Y-92465D01*
X429788Y-97914D01*
X424339Y-96672D01*
X424412Y-96389D01*
X424499Y-96110D01*
X424601Y-95835D01*
X424716Y-95567D01*
X424846Y-95305D01*
X424990Y-95049D01*
X425146Y-94802D01*
X425315Y-94564D01*
X425497Y-94334D01*
X425690Y-94115D01*
X425894Y-93905D01*
X426110Y-93707D01*
X426335Y-93520D01*
X426569Y-93345D01*
X426813Y-93183D01*
X427065Y-93034D01*
X427324Y-92898D01*
X427589Y-92776D01*
X427861Y-92668D01*
X428139Y-92575D01*
X428420Y-92496D01*
X428706Y-92431D01*
X428994Y-92382D01*
X429285Y-92348D01*
X429577Y-92330D01*
X429869Y-92326D01*
X430161Y-92338D01*
D02*
G37*
%LPC*%
G36*
X-239976Y8439D02*
X-247006D01*
Y1070D01*
X-240349D01*
X-239976Y1104D01*
X-239534Y1138D01*
X-239025Y1172D01*
X-238482Y1239D01*
X-237972Y1341D01*
X-237531Y1477D01*
X-237463Y1511D01*
X-237327Y1545D01*
X-237123Y1647D01*
X-236886Y1783D01*
X-236614Y1987D01*
X-236308Y2224D01*
X-236036Y2496D01*
X-235799Y2802D01*
X-235765Y2836D01*
X-235697Y2971D01*
X-235595Y3141D01*
X-235493Y3413D01*
X-235391Y3685D01*
X-235289Y4024D01*
X-235221Y4398D01*
X-235187Y4805D01*
Y4839D01*
Y4873D01*
Y5077D01*
X-235255Y5349D01*
X-235323Y5722D01*
X-235459Y6130D01*
X-235663Y6571D01*
X-235969Y7013D01*
X-236342Y7420D01*
X-236410Y7454D01*
X-236546Y7590D01*
X-236852Y7760D01*
X-237225Y7930D01*
X-237735Y8133D01*
X-238346Y8269D01*
X-239093Y8405D01*
X-239976Y8439D01*
D02*
G37*
G36*
X-195319Y8745D02*
X-195488D01*
X-195624Y8711D01*
X-195964Y8677D01*
X-196405Y8575D01*
X-196915Y8371D01*
X-197424Y8099D01*
X-197967Y7760D01*
X-198239Y7522D01*
X-198511Y7250D01*
X-198579Y7182D01*
X-198715Y6979D01*
X-198918Y6639D01*
X-199156Y6198D01*
X-199428Y5654D01*
X-199632Y4975D01*
X-199767Y4228D01*
X-199835Y3379D01*
Y3345D01*
Y3277D01*
Y3175D01*
X-199801Y3039D01*
X-199767Y2632D01*
X-199666Y2157D01*
X-199530Y1579D01*
X-199292Y1002D01*
X-198986Y459D01*
X-198579Y-85D01*
X-198511Y-153D01*
X-198341Y-289D01*
X-198069Y-492D01*
X-197696Y-730D01*
X-197220Y-1002D01*
X-196677Y-1206D01*
X-196066Y-1341D01*
X-195387Y-1409D01*
X-195217D01*
X-195081Y-1375D01*
X-194741Y-1341D01*
X-194300Y-1239D01*
X-193825Y-1070D01*
X-193281Y-866D01*
X-192772Y-526D01*
X-192296Y-85D01*
X-192228Y-17D01*
X-192092Y153D01*
X-191889Y459D01*
X-191651Y866D01*
X-191447Y1409D01*
X-191243Y2021D01*
X-191108Y2768D01*
X-191040Y3583D01*
Y3617D01*
Y3685D01*
Y3821D01*
X-191074Y3990D01*
Y4194D01*
X-191108Y4398D01*
X-191210Y4941D01*
X-191345Y5552D01*
X-191583Y6164D01*
X-191889Y6775D01*
X-192296Y7352D01*
X-192364Y7420D01*
X-192534Y7556D01*
X-192772Y7794D01*
X-193145Y8066D01*
X-193587Y8303D01*
X-194096Y8541D01*
X-194673Y8677D01*
X-195319Y8745D01*
D02*
G37*
G36*
X-152122D02*
X-152292D01*
X-152428Y8711D01*
X-152767Y8677D01*
X-153209Y8541D01*
X-153684Y8337D01*
X-154193Y8066D01*
X-154703Y7658D01*
X-154941Y7386D01*
X-155144Y7115D01*
Y7081D01*
X-155212Y7013D01*
X-155280Y6877D01*
X-155348Y6707D01*
X-155450Y6469D01*
X-155586Y6198D01*
X-155722Y5824D01*
X-155823Y5417D01*
X-155959Y4941D01*
X-156095Y4398D01*
X-156197Y3787D01*
X-156333Y3073D01*
X-156401Y2326D01*
X-156469Y1511D01*
X-156537Y594D01*
Y-391D01*
Y-458D01*
Y-628D01*
Y-900D01*
X-156503Y-1274D01*
Y-1715D01*
X-156469Y-2224D01*
X-156435Y-2802D01*
X-156367Y-3379D01*
X-156231Y-4602D01*
X-155993Y-5824D01*
X-155857Y-6367D01*
X-155688Y-6877D01*
X-155484Y-7352D01*
X-155280Y-7726D01*
Y-7760D01*
X-155212Y-7794D01*
X-155042Y-7997D01*
X-154771Y-8303D01*
X-154397Y-8609D01*
X-153922Y-8948D01*
X-153378Y-9254D01*
X-152767Y-9458D01*
X-152428Y-9492D01*
X-152088Y-9526D01*
X-151918D01*
X-151782Y-9492D01*
X-151443Y-9424D01*
X-151001Y-9288D01*
X-150492Y-9084D01*
X-149982Y-8779D01*
X-149711Y-8575D01*
X-149439Y-8303D01*
X-149167Y-8031D01*
X-148930Y-7726D01*
Y-7692D01*
X-148862Y-7624D01*
X-148794Y-7522D01*
X-148726Y-7352D01*
X-148624Y-7149D01*
X-148522Y-6843D01*
X-148420Y-6503D01*
X-148284Y-6130D01*
X-148148Y-5654D01*
X-148047Y-5145D01*
X-147945Y-4534D01*
X-147843Y-3854D01*
X-147741Y-3107D01*
X-147707Y-2292D01*
X-147639Y-1375D01*
Y-391D01*
Y-323D01*
Y-153D01*
Y119D01*
X-147673Y492D01*
Y934D01*
X-147707Y1443D01*
X-147741Y1987D01*
X-147809Y2598D01*
X-147945Y3821D01*
X-148182Y5009D01*
X-148318Y5586D01*
X-148488Y6096D01*
X-148692Y6537D01*
X-148930Y6911D01*
Y6945D01*
X-148997Y6979D01*
X-149167Y7182D01*
X-149439Y7488D01*
X-149813Y7828D01*
X-150288Y8167D01*
X-150831Y8473D01*
X-151443Y8677D01*
X-151782Y8711D01*
X-152122Y8745D01*
D02*
G37*
G36*
X-169441D02*
X-169611D01*
X-169747Y8711D01*
X-170087Y8677D01*
X-170528Y8541D01*
X-171003Y8337D01*
X-171513Y8066D01*
X-172022Y7658D01*
X-172260Y7386D01*
X-172464Y7115D01*
Y7081D01*
X-172532Y7013D01*
X-172600Y6877D01*
X-172668Y6707D01*
X-172769Y6469D01*
X-172905Y6198D01*
X-173041Y5824D01*
X-173143Y5417D01*
X-173279Y4941D01*
X-173415Y4398D01*
X-173517Y3787D01*
X-173652Y3073D01*
X-173720Y2326D01*
X-173788Y1511D01*
X-173856Y594D01*
Y-391D01*
Y-458D01*
Y-628D01*
Y-900D01*
X-173822Y-1274D01*
Y-1715D01*
X-173788Y-2224D01*
X-173754Y-2802D01*
X-173686Y-3379D01*
X-173550Y-4602D01*
X-173313Y-5824D01*
X-173177Y-6367D01*
X-173007Y-6877D01*
X-172803Y-7352D01*
X-172600Y-7726D01*
Y-7760D01*
X-172532Y-7794D01*
X-172362Y-7997D01*
X-172090Y-8303D01*
X-171717Y-8609D01*
X-171241Y-8948D01*
X-170698Y-9254D01*
X-170087Y-9458D01*
X-169747Y-9492D01*
X-169407Y-9526D01*
X-169238D01*
X-169102Y-9492D01*
X-168762Y-9424D01*
X-168321Y-9288D01*
X-167811Y-9084D01*
X-167302Y-8779D01*
X-167030Y-8575D01*
X-166758Y-8303D01*
X-166487Y-8031D01*
X-166249Y-7726D01*
Y-7692D01*
X-166181Y-7624D01*
X-166113Y-7522D01*
X-166045Y-7352D01*
X-165944Y-7149D01*
X-165842Y-6843D01*
X-165740Y-6503D01*
X-165604Y-6130D01*
X-165468Y-5654D01*
X-165366Y-5145D01*
X-165264Y-4534D01*
X-165162Y-3854D01*
X-165061Y-3107D01*
X-165026Y-2292D01*
X-164959Y-1375D01*
Y-391D01*
Y-323D01*
Y-153D01*
Y119D01*
X-164993Y492D01*
Y934D01*
X-165026Y1443D01*
X-165061Y1987D01*
X-165128Y2598D01*
X-165264Y3821D01*
X-165502Y5009D01*
X-165638Y5586D01*
X-165808Y6096D01*
X-166011Y6537D01*
X-166249Y6911D01*
Y6945D01*
X-166317Y6979D01*
X-166487Y7182D01*
X-166758Y7488D01*
X-167132Y7828D01*
X-167607Y8167D01*
X-168151Y8473D01*
X-168762Y8677D01*
X-169102Y8711D01*
X-169441Y8745D01*
D02*
G37*
G36*
X108023Y-551255D02*
X107853D01*
X107717Y-551289D01*
X107377Y-551323D01*
X106936Y-551459D01*
X106461Y-551663D01*
X105951Y-551935D01*
X105442Y-552342D01*
X105204Y-552614D01*
X105000Y-552885D01*
Y-552919D01*
X104932Y-552987D01*
X104864Y-553123D01*
X104796Y-553293D01*
X104695Y-553531D01*
X104559Y-553802D01*
X104423Y-554176D01*
X104321Y-554583D01*
X104185Y-555059D01*
X104049Y-555602D01*
X103947Y-556213D01*
X103812Y-556927D01*
X103744Y-557674D01*
X103676Y-558489D01*
X103608Y-559406D01*
Y-560391D01*
Y-560458D01*
Y-560628D01*
Y-560900D01*
X103642Y-561273D01*
Y-561715D01*
X103676Y-562224D01*
X103710Y-562802D01*
X103778Y-563379D01*
X103913Y-564602D01*
X104151Y-565824D01*
X104287Y-566367D01*
X104457Y-566877D01*
X104661Y-567352D01*
X104864Y-567726D01*
Y-567760D01*
X104932Y-567794D01*
X105102Y-567998D01*
X105374Y-568303D01*
X105747Y-568609D01*
X106223Y-568948D01*
X106766Y-569254D01*
X107377Y-569458D01*
X107717Y-569492D01*
X108057Y-569526D01*
X108226D01*
X108362Y-569492D01*
X108702Y-569424D01*
X109143Y-569288D01*
X109653Y-569084D01*
X110162Y-568779D01*
X110434Y-568575D01*
X110705Y-568303D01*
X110977Y-568032D01*
X111215Y-567726D01*
Y-567692D01*
X111283Y-567624D01*
X111351Y-567522D01*
X111419Y-567352D01*
X111521Y-567149D01*
X111622Y-566843D01*
X111724Y-566503D01*
X111860Y-566130D01*
X111996Y-565654D01*
X112098Y-565145D01*
X112200Y-564534D01*
X112302Y-563854D01*
X112403Y-563107D01*
X112437Y-562292D01*
X112505Y-561375D01*
Y-560391D01*
Y-560323D01*
Y-560153D01*
Y-559881D01*
X112471Y-559508D01*
Y-559066D01*
X112437Y-558557D01*
X112403Y-558013D01*
X112336Y-557402D01*
X112200Y-556180D01*
X111962Y-554991D01*
X111826Y-554414D01*
X111656Y-553904D01*
X111453Y-553463D01*
X111215Y-553089D01*
Y-553055D01*
X111147Y-553021D01*
X110977Y-552817D01*
X110705Y-552512D01*
X110332Y-552172D01*
X109857Y-551833D01*
X109313Y-551527D01*
X108702Y-551323D01*
X108362Y-551289D01*
X108023Y-551255D01*
D02*
G37*
G36*
X125342D02*
X125172D01*
X125036Y-551289D01*
X124697Y-551323D01*
X124255Y-551459D01*
X123780Y-551663D01*
X123271Y-551935D01*
X122761Y-552342D01*
X122523Y-552614D01*
X122320Y-552885D01*
Y-552919D01*
X122252Y-552987D01*
X122184Y-553123D01*
X122116Y-553293D01*
X122014Y-553531D01*
X121878Y-553802D01*
X121742Y-554176D01*
X121641Y-554583D01*
X121505Y-555059D01*
X121369Y-555602D01*
X121267Y-556213D01*
X121131Y-556927D01*
X121063Y-557674D01*
X120995Y-558489D01*
X120927Y-559406D01*
Y-560391D01*
Y-560458D01*
Y-560628D01*
Y-560900D01*
X120961Y-561273D01*
Y-561715D01*
X120995Y-562224D01*
X121029Y-562802D01*
X121097Y-563379D01*
X121233Y-564602D01*
X121471Y-565824D01*
X121607Y-566367D01*
X121776Y-566877D01*
X121980Y-567352D01*
X122184Y-567726D01*
Y-567760D01*
X122252Y-567794D01*
X122422Y-567998D01*
X122693Y-568303D01*
X123067Y-568609D01*
X123542Y-568948D01*
X124086Y-569254D01*
X124697Y-569458D01*
X125036Y-569492D01*
X125376Y-569526D01*
X125546D01*
X125682Y-569492D01*
X126021Y-569424D01*
X126463Y-569288D01*
X126972Y-569084D01*
X127482Y-568779D01*
X127753Y-568575D01*
X128025Y-568303D01*
X128297Y-568032D01*
X128534Y-567726D01*
Y-567692D01*
X128602Y-567624D01*
X128670Y-567522D01*
X128738Y-567352D01*
X128840Y-567149D01*
X128942Y-566843D01*
X129044Y-566503D01*
X129180Y-566130D01*
X129315Y-565654D01*
X129417Y-565145D01*
X129519Y-564534D01*
X129621Y-563854D01*
X129723Y-563107D01*
X129757Y-562292D01*
X129825Y-561375D01*
Y-560391D01*
Y-560323D01*
Y-560153D01*
Y-559881D01*
X129791Y-559508D01*
Y-559066D01*
X129757Y-558557D01*
X129723Y-558013D01*
X129655Y-557402D01*
X129519Y-556180D01*
X129282Y-554991D01*
X129146Y-554414D01*
X128976Y-553904D01*
X128772Y-553463D01*
X128534Y-553089D01*
Y-553055D01*
X128466Y-553021D01*
X128297Y-552817D01*
X128025Y-552512D01*
X127651Y-552172D01*
X127176Y-551833D01*
X126633Y-551527D01*
X126021Y-551323D01*
X125682Y-551289D01*
X125342Y-551255D01*
D02*
G37*
G36*
X614591Y-141255D02*
X614421D01*
X614285Y-141289D01*
X613945Y-141323D01*
X613504Y-141425D01*
X612994Y-141629D01*
X612485Y-141901D01*
X611942Y-142240D01*
X611670Y-142478D01*
X611398Y-142750D01*
X611330Y-142817D01*
X611195Y-143021D01*
X610991Y-143361D01*
X610753Y-143802D01*
X610481Y-144346D01*
X610278Y-145025D01*
X610142Y-145772D01*
X610074Y-146621D01*
Y-146655D01*
Y-146723D01*
Y-146825D01*
X610108Y-146961D01*
X610142Y-147368D01*
X610244Y-147844D01*
X610380Y-148421D01*
X610617Y-148998D01*
X610923Y-149542D01*
X611330Y-150085D01*
X611398Y-150153D01*
X611568Y-150289D01*
X611840Y-150492D01*
X612213Y-150730D01*
X612689Y-151002D01*
X613232Y-151206D01*
X613843Y-151341D01*
X614523Y-151409D01*
X614692D01*
X614828Y-151375D01*
X615168Y-151341D01*
X615609Y-151240D01*
X616085Y-151070D01*
X616628Y-150866D01*
X617138Y-150526D01*
X617613Y-150085D01*
X617681Y-150017D01*
X617817Y-149847D01*
X618021Y-149542D01*
X618258Y-149134D01*
X618462Y-148591D01*
X618666Y-147979D01*
X618802Y-147232D01*
X618870Y-146417D01*
Y-146383D01*
Y-146315D01*
Y-146180D01*
X618836Y-146010D01*
Y-145806D01*
X618802Y-145602D01*
X618700Y-145059D01*
X618564Y-144448D01*
X618326Y-143836D01*
X618021Y-143225D01*
X617613Y-142648D01*
X617545Y-142580D01*
X617375Y-142444D01*
X617138Y-142206D01*
X616764Y-141934D01*
X616323Y-141697D01*
X615813Y-141459D01*
X615236Y-141323D01*
X614591Y-141255D01*
D02*
G37*
G36*
X-558951Y-6428D02*
X-568935D01*
X-558951Y-13424D01*
Y-6428D01*
D02*
G37*
G36*
X-561125Y39825D02*
X-562619D01*
X-562992Y39791D01*
X-563434D01*
X-563943Y39757D01*
X-564487Y39723D01*
X-565098Y39655D01*
X-566320Y39519D01*
X-567509Y39281D01*
X-568086Y39146D01*
X-568596Y38976D01*
X-569037Y38772D01*
X-569411Y38534D01*
X-569445D01*
X-569479Y38466D01*
X-569683Y38297D01*
X-569988Y38025D01*
X-570328Y37651D01*
X-570667Y37176D01*
X-570973Y36633D01*
X-571177Y36021D01*
X-571211Y35682D01*
X-571245Y35342D01*
Y35308D01*
Y35274D01*
Y35172D01*
X-571211Y35036D01*
X-571177Y34697D01*
X-571041Y34255D01*
X-570837Y33780D01*
X-570565Y33271D01*
X-570158Y32761D01*
X-569886Y32524D01*
X-569615Y32320D01*
X-569581D01*
X-569513Y32252D01*
X-569377Y32184D01*
X-569207Y32116D01*
X-568969Y32014D01*
X-568698Y31878D01*
X-568324Y31742D01*
X-567917Y31641D01*
X-567441Y31505D01*
X-566898Y31369D01*
X-566287Y31267D01*
X-565573Y31131D01*
X-564826Y31063D01*
X-564011Y30995D01*
X-563094Y30927D01*
X-561600D01*
X-561227Y30961D01*
X-560785D01*
X-560276Y30995D01*
X-559698Y31029D01*
X-559121Y31097D01*
X-557898Y31233D01*
X-556676Y31471D01*
X-556133Y31607D01*
X-555623Y31776D01*
X-555148Y31980D01*
X-554774Y32184D01*
X-554740D01*
X-554706Y32252D01*
X-554502Y32422D01*
X-554197Y32693D01*
X-553891Y33067D01*
X-553552Y33542D01*
X-553246Y34086D01*
X-553042Y34697D01*
X-553008Y35036D01*
X-552974Y35376D01*
Y35410D01*
Y35444D01*
Y35546D01*
X-553008Y35682D01*
X-553076Y36021D01*
X-553212Y36463D01*
X-553416Y36972D01*
X-553721Y37482D01*
X-553925Y37753D01*
X-554197Y38025D01*
X-554468Y38297D01*
X-554774Y38534D01*
X-554808D01*
X-554876Y38602D01*
X-554978Y38670D01*
X-555148Y38738D01*
X-555351Y38840D01*
X-555657Y38942D01*
X-555997Y39044D01*
X-556370Y39180D01*
X-556846Y39315D01*
X-557355Y39417D01*
X-557966Y39519D01*
X-558646Y39621D01*
X-559393Y39723D01*
X-560208Y39757D01*
X-561125Y39825D01*
D02*
G37*
G36*
Y22505D02*
X-562619D01*
X-562992Y22471D01*
X-563434D01*
X-563943Y22437D01*
X-564487Y22404D01*
X-565098Y22336D01*
X-566320Y22200D01*
X-567509Y21962D01*
X-568086Y21826D01*
X-568596Y21656D01*
X-569037Y21453D01*
X-569411Y21215D01*
X-569445D01*
X-569479Y21147D01*
X-569683Y20977D01*
X-569988Y20705D01*
X-570328Y20332D01*
X-570667Y19856D01*
X-570973Y19313D01*
X-571177Y18702D01*
X-571211Y18362D01*
X-571245Y18023D01*
Y17989D01*
Y17955D01*
Y17853D01*
X-571211Y17717D01*
X-571177Y17377D01*
X-571041Y16936D01*
X-570837Y16460D01*
X-570565Y15951D01*
X-570158Y15442D01*
X-569886Y15204D01*
X-569615Y15000D01*
X-569581D01*
X-569513Y14932D01*
X-569377Y14864D01*
X-569207Y14797D01*
X-568969Y14695D01*
X-568698Y14559D01*
X-568324Y14423D01*
X-567917Y14321D01*
X-567441Y14185D01*
X-566898Y14049D01*
X-566287Y13947D01*
X-565573Y13812D01*
X-564826Y13744D01*
X-564011Y13676D01*
X-563094Y13608D01*
X-561600D01*
X-561227Y13642D01*
X-560785D01*
X-560276Y13676D01*
X-559698Y13710D01*
X-559121Y13778D01*
X-557898Y13914D01*
X-556676Y14151D01*
X-556133Y14287D01*
X-555623Y14457D01*
X-555148Y14661D01*
X-554774Y14864D01*
X-554740D01*
X-554706Y14932D01*
X-554502Y15102D01*
X-554197Y15374D01*
X-553891Y15747D01*
X-553552Y16223D01*
X-553246Y16766D01*
X-553042Y17377D01*
X-553008Y17717D01*
X-552974Y18057D01*
Y18091D01*
Y18125D01*
Y18226D01*
X-553008Y18362D01*
X-553076Y18702D01*
X-553212Y19143D01*
X-553416Y19653D01*
X-553721Y20162D01*
X-553925Y20434D01*
X-554197Y20705D01*
X-554468Y20977D01*
X-554774Y21215D01*
X-554808D01*
X-554876Y21283D01*
X-554978Y21351D01*
X-555148Y21419D01*
X-555351Y21521D01*
X-555657Y21622D01*
X-555997Y21724D01*
X-556370Y21860D01*
X-556846Y21996D01*
X-557355Y22098D01*
X-557966Y22200D01*
X-558646Y22302D01*
X-559393Y22404D01*
X-560208Y22437D01*
X-561125Y22505D01*
D02*
G37*
G36*
X588509Y-150458D02*
X588340D01*
X588204Y-150492D01*
X587830Y-150526D01*
X587389Y-150628D01*
X586879Y-150764D01*
X586336Y-151002D01*
X585827Y-151307D01*
X585317Y-151749D01*
X585249Y-151817D01*
X585113Y-151987D01*
X584910Y-152258D01*
X584706Y-152632D01*
X584468Y-153107D01*
X584264Y-153651D01*
X584129Y-154296D01*
X584061Y-154975D01*
Y-155009D01*
Y-155179D01*
X584095Y-155383D01*
X584129Y-155688D01*
X584197Y-156028D01*
X584299Y-156435D01*
X584434Y-156843D01*
X584604Y-157250D01*
X584638Y-157284D01*
X584706Y-157420D01*
X584842Y-157624D01*
X585012Y-157862D01*
X585249Y-158133D01*
X585521Y-158439D01*
X585861Y-158711D01*
X586234Y-158948D01*
X586302Y-158982D01*
X586438Y-159050D01*
X586642Y-159118D01*
X586947Y-159220D01*
X587321Y-159356D01*
X587695Y-159424D01*
X588136Y-159492D01*
X588611Y-159526D01*
X588815D01*
X588951Y-159492D01*
X589291Y-159458D01*
X589766Y-159356D01*
X590275Y-159220D01*
X590819Y-158982D01*
X591328Y-158677D01*
X591838Y-158269D01*
X591906Y-158201D01*
X592041Y-158032D01*
X592245Y-157760D01*
X592483Y-157386D01*
X592720Y-156945D01*
X592924Y-156368D01*
X593060Y-155756D01*
X593128Y-155043D01*
Y-155009D01*
Y-154941D01*
Y-154839D01*
X593094Y-154703D01*
X593060Y-154364D01*
X592958Y-153888D01*
X592822Y-153379D01*
X592585Y-152836D01*
X592245Y-152292D01*
X591804Y-151783D01*
X591736Y-151715D01*
X591566Y-151579D01*
X591294Y-151375D01*
X590921Y-151104D01*
X590445Y-150866D01*
X589868Y-150662D01*
X589223Y-150526D01*
X588509Y-150458D01*
D02*
G37*
G36*
X588577Y-141221D02*
X588306D01*
X588034Y-141289D01*
X587660Y-141357D01*
X587253Y-141459D01*
X586811Y-141663D01*
X586370Y-141901D01*
X585962Y-142240D01*
X585928Y-142274D01*
X585793Y-142410D01*
X585657Y-142648D01*
X585453Y-142919D01*
X585283Y-143259D01*
X585113Y-143700D01*
X584978Y-144142D01*
X584944Y-144651D01*
Y-144719D01*
Y-144923D01*
X585012Y-145195D01*
X585080Y-145568D01*
X585181Y-145976D01*
X585351Y-146383D01*
X585589Y-146825D01*
X585928Y-147232D01*
X585962Y-147266D01*
X586098Y-147368D01*
X586336Y-147538D01*
X586642Y-147708D01*
X587015Y-147912D01*
X587491Y-148047D01*
X588000Y-148183D01*
X588577Y-148217D01*
X588849D01*
X589121Y-148149D01*
X589494Y-148081D01*
X589902Y-147979D01*
X590343Y-147810D01*
X590785Y-147572D01*
X591192Y-147232D01*
X591226Y-147198D01*
X591362Y-147063D01*
X591532Y-146859D01*
X591702Y-146553D01*
X591906Y-146214D01*
X592041Y-145772D01*
X592177Y-145297D01*
X592211Y-144787D01*
Y-144753D01*
Y-144719D01*
Y-144549D01*
X592143Y-144244D01*
X592075Y-143904D01*
X591939Y-143531D01*
X591770Y-143089D01*
X591498Y-142682D01*
X591158Y-142274D01*
X591124Y-142240D01*
X590989Y-142104D01*
X590751Y-141934D01*
X590445Y-141731D01*
X590072Y-141561D01*
X589630Y-141391D01*
X589155Y-141255D01*
X588577Y-141221D01*
D02*
G37*
G36*
X-44646Y146449D02*
X-44816D01*
X-44951Y146415D01*
X-45291Y146381D01*
X-45732Y146245D01*
X-46208Y146041D01*
X-46717Y145770D01*
X-47227Y145362D01*
X-47464Y145091D01*
X-47668Y144819D01*
Y144785D01*
X-47736Y144717D01*
X-47804Y144581D01*
X-47872Y144411D01*
X-47974Y144174D01*
X-48110Y143902D01*
X-48245Y143528D01*
X-48347Y143121D01*
X-48483Y142646D01*
X-48619Y142102D01*
X-48721Y141491D01*
X-48857Y140778D01*
X-48925Y140031D01*
X-48993Y139216D01*
X-49061Y138299D01*
Y137314D01*
Y137246D01*
Y137076D01*
Y136805D01*
X-49026Y136431D01*
Y135989D01*
X-48993Y135480D01*
X-48959Y134903D01*
X-48891Y134325D01*
X-48755Y133103D01*
X-48517Y131880D01*
X-48381Y131337D01*
X-48211Y130828D01*
X-48008Y130352D01*
X-47804Y129979D01*
Y129945D01*
X-47736Y129911D01*
X-47566Y129707D01*
X-47295Y129401D01*
X-46921Y129096D01*
X-46446Y128756D01*
X-45902Y128450D01*
X-45291Y128247D01*
X-44951Y128213D01*
X-44612Y128179D01*
X-44442D01*
X-44306Y128213D01*
X-43966Y128280D01*
X-43525Y128416D01*
X-43016Y128620D01*
X-42506Y128926D01*
X-42235Y129129D01*
X-41963Y129401D01*
X-41691Y129673D01*
X-41453Y129979D01*
Y130013D01*
X-41385Y130080D01*
X-41318Y130182D01*
X-41250Y130352D01*
X-41148Y130556D01*
X-41046Y130862D01*
X-40944Y131201D01*
X-40808Y131575D01*
X-40672Y132050D01*
X-40571Y132559D01*
X-40469Y133171D01*
X-40367Y133850D01*
X-40265Y134597D01*
X-40231Y135412D01*
X-40163Y136329D01*
Y137314D01*
Y137382D01*
Y137552D01*
Y137823D01*
X-40197Y138197D01*
Y138638D01*
X-40231Y139148D01*
X-40265Y139691D01*
X-40333Y140302D01*
X-40469Y141525D01*
X-40706Y142713D01*
X-40842Y143291D01*
X-41012Y143800D01*
X-41216Y144242D01*
X-41453Y144615D01*
Y144649D01*
X-41521Y144683D01*
X-41691Y144887D01*
X-41963Y145192D01*
X-42336Y145532D01*
X-42812Y145872D01*
X-43355Y146177D01*
X-43966Y146381D01*
X-44306Y146415D01*
X-44646Y146449D01*
D02*
G37*
G36*
X751375Y33439D02*
X749881D01*
X749508Y33405D01*
X749066D01*
X748557Y33371D01*
X748013Y33337D01*
X747402Y33269D01*
X746180Y33133D01*
X744991Y32895D01*
X744414Y32759D01*
X743904Y32590D01*
X743463Y32386D01*
X743089Y32148D01*
X743055D01*
X743021Y32080D01*
X742818Y31910D01*
X742512Y31639D01*
X742172Y31265D01*
X741833Y30790D01*
X741527Y30246D01*
X741323Y29635D01*
X741289Y29295D01*
X741255Y28956D01*
Y28922D01*
Y28888D01*
Y28786D01*
X741289Y28650D01*
X741323Y28311D01*
X741459Y27869D01*
X741663Y27394D01*
X741935Y26884D01*
X742342Y26375D01*
X742614Y26137D01*
X742885Y25933D01*
X742919D01*
X742987Y25866D01*
X743123Y25798D01*
X743293Y25730D01*
X743531Y25628D01*
X743802Y25492D01*
X744176Y25356D01*
X744583Y25254D01*
X745059Y25118D01*
X745602Y24983D01*
X746214Y24881D01*
X746927Y24745D01*
X747674Y24677D01*
X748489Y24609D01*
X749406Y24541D01*
X750900D01*
X751273Y24575D01*
X751715D01*
X752224Y24609D01*
X752802Y24643D01*
X753379Y24711D01*
X754602Y24847D01*
X755824Y25085D01*
X756367Y25220D01*
X756877Y25390D01*
X757352Y25594D01*
X757726Y25798D01*
X757760D01*
X757794Y25866D01*
X757998Y26035D01*
X758303Y26307D01*
X758609Y26681D01*
X758948Y27156D01*
X759254Y27699D01*
X759458Y28311D01*
X759492Y28650D01*
X759526Y28990D01*
Y29024D01*
Y29058D01*
Y29160D01*
X759492Y29295D01*
X759424Y29635D01*
X759288Y30077D01*
X759084Y30586D01*
X758779Y31095D01*
X758575Y31367D01*
X758303Y31639D01*
X758031Y31910D01*
X757726Y32148D01*
X757692D01*
X757624Y32216D01*
X757522Y32284D01*
X757352Y32352D01*
X757149Y32454D01*
X756843Y32556D01*
X756503Y32657D01*
X756130Y32793D01*
X755654Y32929D01*
X755145Y33031D01*
X754534Y33133D01*
X753854Y33235D01*
X753107Y33337D01*
X752292Y33371D01*
X751375Y33439D01*
D02*
G37*
G36*
X-27326Y146449D02*
X-27496D01*
X-27632Y146415D01*
X-27971Y146381D01*
X-28413Y146245D01*
X-28888Y146041D01*
X-29398Y145770D01*
X-29907Y145362D01*
X-30145Y145091D01*
X-30349Y144819D01*
Y144785D01*
X-30417Y144717D01*
X-30484Y144581D01*
X-30552Y144411D01*
X-30654Y144174D01*
X-30790Y143902D01*
X-30926Y143528D01*
X-31028Y143121D01*
X-31164Y142646D01*
X-31300Y142102D01*
X-31401Y141491D01*
X-31537Y140778D01*
X-31605Y140031D01*
X-31673Y139216D01*
X-31741Y138299D01*
Y137314D01*
Y137246D01*
Y137076D01*
Y136805D01*
X-31707Y136431D01*
Y135989D01*
X-31673Y135480D01*
X-31639Y134903D01*
X-31571Y134325D01*
X-31435Y133103D01*
X-31198Y131880D01*
X-31062Y131337D01*
X-30892Y130828D01*
X-30688Y130352D01*
X-30484Y129979D01*
Y129945D01*
X-30417Y129911D01*
X-30247Y129707D01*
X-29975Y129401D01*
X-29602Y129096D01*
X-29126Y128756D01*
X-28583Y128450D01*
X-27971Y128247D01*
X-27632Y128213D01*
X-27292Y128179D01*
X-27122D01*
X-26987Y128213D01*
X-26647Y128280D01*
X-26205Y128416D01*
X-25696Y128620D01*
X-25187Y128926D01*
X-24915Y129129D01*
X-24643Y129401D01*
X-24372Y129673D01*
X-24134Y129979D01*
Y130013D01*
X-24066Y130080D01*
X-23998Y130182D01*
X-23930Y130352D01*
X-23828Y130556D01*
X-23726Y130862D01*
X-23625Y131201D01*
X-23489Y131575D01*
X-23353Y132050D01*
X-23251Y132559D01*
X-23149Y133171D01*
X-23047Y133850D01*
X-22945Y134597D01*
X-22911Y135412D01*
X-22843Y136329D01*
Y137314D01*
Y137382D01*
Y137552D01*
Y137823D01*
X-22877Y138197D01*
Y138638D01*
X-22911Y139148D01*
X-22945Y139691D01*
X-23013Y140302D01*
X-23149Y141525D01*
X-23387Y142713D01*
X-23523Y143291D01*
X-23693Y143800D01*
X-23896Y144242D01*
X-24134Y144615D01*
Y144649D01*
X-24202Y144683D01*
X-24372Y144887D01*
X-24643Y145192D01*
X-25017Y145532D01*
X-25492Y145872D01*
X-26036Y146177D01*
X-26647Y146381D01*
X-26987Y146415D01*
X-27326Y146449D01*
D02*
G37*
G36*
X-115180Y146143D02*
X-122210D01*
Y138774D01*
X-115554D01*
X-115180Y138808D01*
X-114739Y138842D01*
X-114229Y138876D01*
X-113686Y138944D01*
X-113177Y139046D01*
X-112735Y139182D01*
X-112667Y139216D01*
X-112531Y139250D01*
X-112328Y139351D01*
X-112090Y139487D01*
X-111818Y139691D01*
X-111512Y139929D01*
X-111241Y140200D01*
X-111003Y140506D01*
X-110969Y140540D01*
X-110901Y140676D01*
X-110799Y140846D01*
X-110697Y141117D01*
X-110596Y141389D01*
X-110494Y141729D01*
X-110426Y142102D01*
X-110392Y142510D01*
Y142544D01*
Y142578D01*
Y142781D01*
X-110460Y143053D01*
X-110528Y143427D01*
X-110663Y143834D01*
X-110867Y144276D01*
X-111173Y144717D01*
X-111546Y145125D01*
X-111614Y145159D01*
X-111750Y145294D01*
X-112056Y145464D01*
X-112429Y145634D01*
X-112939Y145838D01*
X-113550Y145974D01*
X-114297Y146109D01*
X-115180Y146143D01*
D02*
G37*
G36*
X-561125Y-20793D02*
X-562619D01*
X-562992Y-20827D01*
X-563434D01*
X-563943Y-20861D01*
X-564487Y-20895D01*
X-565098Y-20963D01*
X-566320Y-21099D01*
X-567509Y-21337D01*
X-568086Y-21473D01*
X-568596Y-21642D01*
X-569037Y-21846D01*
X-569411Y-22084D01*
X-569445D01*
X-569479Y-22152D01*
X-569683Y-22322D01*
X-569988Y-22593D01*
X-570328Y-22967D01*
X-570667Y-23442D01*
X-570973Y-23986D01*
X-571177Y-24597D01*
X-571211Y-24936D01*
X-571245Y-25276D01*
Y-25310D01*
Y-25344D01*
Y-25446D01*
X-571211Y-25582D01*
X-571177Y-25921D01*
X-571041Y-26363D01*
X-570837Y-26838D01*
X-570565Y-27348D01*
X-570158Y-27857D01*
X-569886Y-28095D01*
X-569615Y-28298D01*
X-569581D01*
X-569513Y-28366D01*
X-569377Y-28434D01*
X-569207Y-28502D01*
X-568969Y-28604D01*
X-568698Y-28740D01*
X-568324Y-28876D01*
X-567917Y-28978D01*
X-567441Y-29114D01*
X-566898Y-29249D01*
X-566287Y-29351D01*
X-565573Y-29487D01*
X-564826Y-29555D01*
X-564011Y-29623D01*
X-563094Y-29691D01*
X-561600D01*
X-561227Y-29657D01*
X-560785D01*
X-560276Y-29623D01*
X-559698Y-29589D01*
X-559121Y-29521D01*
X-557898Y-29385D01*
X-556676Y-29148D01*
X-556133Y-29012D01*
X-555623Y-28842D01*
X-555148Y-28638D01*
X-554774Y-28434D01*
X-554740D01*
X-554706Y-28366D01*
X-554502Y-28197D01*
X-554197Y-27925D01*
X-553891Y-27551D01*
X-553552Y-27076D01*
X-553246Y-26533D01*
X-553042Y-25921D01*
X-553008Y-25582D01*
X-552974Y-25242D01*
Y-25208D01*
Y-25174D01*
Y-25072D01*
X-553008Y-24936D01*
X-553076Y-24597D01*
X-553212Y-24155D01*
X-553416Y-23646D01*
X-553721Y-23137D01*
X-553925Y-22865D01*
X-554197Y-22593D01*
X-554468Y-22322D01*
X-554774Y-22084D01*
X-554808D01*
X-554876Y-22016D01*
X-554978Y-21948D01*
X-555148Y-21880D01*
X-555351Y-21778D01*
X-555657Y-21676D01*
X-555997Y-21574D01*
X-556370Y-21439D01*
X-556846Y-21303D01*
X-557355Y-21201D01*
X-557966Y-21099D01*
X-558646Y-20997D01*
X-559393Y-20895D01*
X-560208Y-20861D01*
X-561125Y-20793D01*
D02*
G37*
G36*
X751375Y-9860D02*
X749881D01*
X749508Y-9894D01*
X749066D01*
X748557Y-9928D01*
X748013Y-9962D01*
X747402Y-10030D01*
X746180Y-10166D01*
X744991Y-10403D01*
X744414Y-10539D01*
X743904Y-10709D01*
X743463Y-10913D01*
X743089Y-11151D01*
X743055D01*
X743021Y-11219D01*
X742818Y-11388D01*
X742512Y-11660D01*
X742172Y-12034D01*
X741833Y-12509D01*
X741527Y-13052D01*
X741323Y-13664D01*
X741289Y-14003D01*
X741255Y-14343D01*
Y-14377D01*
Y-14411D01*
Y-14513D01*
X741289Y-14648D01*
X741323Y-14988D01*
X741459Y-15430D01*
X741663Y-15905D01*
X741935Y-16414D01*
X742342Y-16924D01*
X742614Y-17162D01*
X742885Y-17365D01*
X742919D01*
X742987Y-17433D01*
X743123Y-17501D01*
X743293Y-17569D01*
X743531Y-17671D01*
X743802Y-17807D01*
X744176Y-17943D01*
X744583Y-18045D01*
X745059Y-18180D01*
X745602Y-18316D01*
X746214Y-18418D01*
X746927Y-18554D01*
X747674Y-18622D01*
X748489Y-18690D01*
X749406Y-18758D01*
X750900D01*
X751273Y-18724D01*
X751715D01*
X752224Y-18690D01*
X752802Y-18656D01*
X753379Y-18588D01*
X754602Y-18452D01*
X755824Y-18214D01*
X756367Y-18078D01*
X756877Y-17909D01*
X757352Y-17705D01*
X757726Y-17501D01*
X757760D01*
X757794Y-17433D01*
X757998Y-17263D01*
X758303Y-16992D01*
X758609Y-16618D01*
X758948Y-16143D01*
X759254Y-15599D01*
X759458Y-14988D01*
X759492Y-14648D01*
X759526Y-14309D01*
Y-14275D01*
Y-14241D01*
Y-14139D01*
X759492Y-14003D01*
X759424Y-13664D01*
X759288Y-13222D01*
X759084Y-12713D01*
X758779Y-12203D01*
X758575Y-11932D01*
X758303Y-11660D01*
X758031Y-11388D01*
X757726Y-11151D01*
X757692D01*
X757624Y-11083D01*
X757522Y-11015D01*
X757352Y-10947D01*
X757149Y-10845D01*
X756843Y-10743D01*
X756503Y-10641D01*
X756130Y-10505D01*
X755654Y-10369D01*
X755145Y-10268D01*
X754534Y-10166D01*
X753854Y-10064D01*
X753107Y-9962D01*
X752292Y-9928D01*
X751375Y-9860D01*
D02*
G37*
G36*
Y16119D02*
X749881D01*
X749508Y16085D01*
X749066D01*
X748557Y16051D01*
X748013Y16017D01*
X747402Y15949D01*
X746180Y15813D01*
X744991Y15576D01*
X744414Y15440D01*
X743904Y15270D01*
X743463Y15066D01*
X743089Y14829D01*
X743055D01*
X743021Y14761D01*
X742818Y14591D01*
X742512Y14319D01*
X742172Y13946D01*
X741833Y13470D01*
X741527Y12927D01*
X741323Y12316D01*
X741289Y11976D01*
X741255Y11636D01*
Y11602D01*
Y11568D01*
Y11467D01*
X741289Y11331D01*
X741323Y10991D01*
X741459Y10550D01*
X741663Y10074D01*
X741935Y9565D01*
X742342Y9056D01*
X742614Y8818D01*
X742885Y8614D01*
X742919D01*
X742987Y8546D01*
X743123Y8478D01*
X743293Y8410D01*
X743531Y8308D01*
X743802Y8173D01*
X744176Y8037D01*
X744583Y7935D01*
X745059Y7799D01*
X745602Y7663D01*
X746214Y7561D01*
X746927Y7425D01*
X747674Y7358D01*
X748489Y7290D01*
X749406Y7222D01*
X750900D01*
X751273Y7256D01*
X751715D01*
X752224Y7290D01*
X752802Y7323D01*
X753379Y7391D01*
X754602Y7527D01*
X755824Y7765D01*
X756367Y7901D01*
X756877Y8071D01*
X757352Y8274D01*
X757726Y8478D01*
X757760D01*
X757794Y8546D01*
X757998Y8716D01*
X758303Y8988D01*
X758609Y9361D01*
X758948Y9837D01*
X759254Y10380D01*
X759458Y10991D01*
X759492Y11331D01*
X759526Y11670D01*
Y11704D01*
Y11738D01*
Y11840D01*
X759492Y11976D01*
X759424Y12316D01*
X759288Y12757D01*
X759084Y13267D01*
X758779Y13776D01*
X758575Y14047D01*
X758303Y14319D01*
X758031Y14591D01*
X757726Y14829D01*
X757692D01*
X757624Y14897D01*
X757522Y14964D01*
X757352Y15032D01*
X757149Y15134D01*
X756843Y15236D01*
X756503Y15338D01*
X756130Y15474D01*
X755654Y15610D01*
X755145Y15712D01*
X754534Y15813D01*
X753854Y15915D01*
X753107Y16017D01*
X752292Y16051D01*
X751375Y16119D01*
D02*
G37*
%LPD*%
D52*
X468867Y-52007D02*
G03*
X468867Y-52007I-5576J0D01*
G01*
X-389105Y-248131D02*
G03*
X-389105Y-248131I-5576J0D01*
G01*
X-338985Y-274922D02*
G03*
X-338985Y-274922I-5576J0D01*
G01*
X-323990Y-329739D02*
G03*
X-323990Y-329739I-5576J0D01*
G01*
X-269165Y-344705D02*
G03*
X-269165Y-344705I-5576J0D01*
G01*
X-242348Y-394812D02*
G03*
X-242348Y-394812I-5576J0D01*
G01*
X-185567Y-397201D02*
G03*
X-185567Y-397201I-5576J0D01*
G01*
X-148271Y-440083D02*
G03*
X-148271Y-440083I-5576J0D01*
G01*
X-434491Y153894D02*
G03*
X-434491Y153894I-5576J0D01*
G01*
X-424191Y98004D02*
G03*
X-424191Y98004I-5576J0D01*
G01*
X-457703Y52104D02*
G03*
X-457703Y52104I-5576J0D01*
G01*
X-435224Y-92D02*
G03*
X-435224Y-92I-5576J0D01*
G01*
X-457681Y-52298D02*
G03*
X-457681Y-52298I-5576J0D01*
G01*
X-424150Y-98184D02*
G03*
X-424150Y-98184I-5576J0D01*
G01*
X-434426Y-154078D02*
G03*
X-434426Y-154078I-5576J0D01*
G01*
X-148456Y440019D02*
G03*
X-148456Y440019I-5576J0D01*
G01*
X-185733Y397121D02*
G03*
X-185733Y397121I-5576J0D01*
G01*
X-245122Y389986D02*
G03*
X-245122Y389986I-2968J4721D01*
G01*
X-269309Y344590D02*
G03*
X-269309Y344590I-5576J0D01*
G01*
X-324128Y329601D02*
G03*
X-324128Y329601I-5576J0D01*
G01*
X-339100Y274778D02*
G03*
X-339100Y274778I-5576J0D01*
G01*
X-389209Y247965D02*
G03*
X-389209Y247965I-5576J0D01*
G01*
X468845Y52201D02*
G03*
X468845Y52201I-5576J0D01*
G01*
X435323Y98094D02*
G03*
X435323Y98094I-5576J0D01*
G01*
X445611Y153986D02*
G03*
X445611Y153986I-5576J0D01*
G01*
X402718Y191268D02*
G03*
X402718Y191268I-5576J0D01*
G01*
X400310Y248048D02*
G03*
X400310Y248048I-5576J0D01*
G01*
X350195Y274850D02*
G03*
X350195Y274850I-5576J0D01*
G01*
X335212Y329670D02*
G03*
X335212Y329670I-5576J0D01*
G01*
X-46479Y-463285D02*
G03*
X-46479Y-463285I-5576J0D01*
G01*
X5715Y-440800D02*
G03*
X5715Y-440800I-5576J0D01*
G01*
X57923Y-463252D02*
G03*
X57923Y-463252I-5576J0D01*
G01*
X103805Y-429716D02*
G03*
X103805Y-429716I-5576J0D01*
G01*
X159701Y-439987D02*
G03*
X159701Y-439987I-5576J0D01*
G01*
X193814Y-402105D02*
G03*
X193814Y-402105I-2421J5023D01*
G01*
X253749Y-394656D02*
G03*
X253749Y-394656I-5576J0D01*
G01*
X253583Y394759D02*
G03*
X253583Y394759I-5576J0D01*
G01*
X196803Y397161D02*
G03*
X196803Y397161I-5576J0D01*
G01*
X159516Y440051D02*
G03*
X159516Y440051I-5576J0D01*
G01*
X103625Y429757D02*
G03*
X103625Y429757I-5576J0D01*
G01*
X57729Y463274D02*
G03*
X57729Y463274I-5576J0D01*
G01*
X5530Y440800D02*
G03*
X5530Y440800I-5576J0D01*
G01*
X-46673Y463263D02*
G03*
X-46673Y463263I-5576J0D01*
G01*
X335350Y-329532D02*
G03*
X335350Y-329532I-5576J0D01*
G01*
X350311Y-274705D02*
G03*
X350311Y-274705I-5576J0D01*
G01*
X400414Y-247883D02*
G03*
X400414Y-247883I-5576J0D01*
G01*
X402798Y-191101D02*
G03*
X402798Y-191101I-5576J0D01*
G01*
X445676Y-153802D02*
G03*
X445676Y-153802I-5576J0D01*
G01*
X435364Y-97914D02*
G03*
X435364Y-97914I-5576J0D01*
G01*
D53*
X480781Y-71486D02*
G03*
X480781Y-71486I-508J0D01*
G01*
X-419595Y-243486D02*
G03*
X-419595Y-243486I-508J0D01*
G01*
X-318271Y-276691D02*
G03*
X-318271Y-276691I-508J0D01*
G01*
X-354877Y-330869D02*
G03*
X-354877Y-330869I-508J0D01*
G01*
X-248704Y-340692D02*
G03*
X-248704Y-340692I-508J0D01*
G01*
X-272335Y-401658D02*
G03*
X-272335Y-401658I-508J0D01*
G01*
X-166639Y-387608D02*
G03*
X-166639Y-387608I-508J0D01*
G01*
X-176110Y-452303D02*
G03*
X-176110Y-452303I-508J0D01*
G01*
X-451777Y176666D02*
G03*
X-451777Y176666I-508J0D01*
G01*
X-414568Y76743D02*
G03*
X-414568Y76743I-508J0D01*
G01*
X-479750Y71586D02*
G03*
X-479750Y71586I-508J0D01*
G01*
X-421238Y-17551D02*
G03*
X-421238Y-17551I-508J0D01*
G01*
X-483638Y-37083D02*
G03*
X-483638Y-37083I-508J0D01*
G01*
X-406757Y-110964D02*
G03*
X-406757Y-110964I-508J0D01*
G01*
X-463246Y-143893D02*
G03*
X-463246Y-143893I-508J0D01*
G01*
X-143336Y463769D02*
G03*
X-143336Y463769I-508J0D01*
G01*
X-198266Y372380D02*
G03*
X-198266Y372380I-508J0D01*
G01*
X-243172Y419699D02*
G03*
X-243172Y419699I-270J430D01*
G01*
X-276149Y318808D02*
G03*
X-276149Y318808I-508J0D01*
G01*
X-330323Y355420D02*
G03*
X-330323Y355420I-508J0D01*
G01*
X-340158Y249248D02*
G03*
X-340158Y249248I-508J0D01*
G01*
X-401121Y272885D02*
G03*
X-401121Y272885I-508J0D01*
G01*
X484662Y36982D02*
G03*
X484662Y36982I-508J0D01*
G01*
X407796Y110879D02*
G03*
X407796Y110879I-508J0D01*
G01*
X464292Y143796D02*
G03*
X464292Y143796I-508J0D01*
G01*
X372909Y198735D02*
G03*
X372909Y198735I-508J0D01*
G01*
X420662Y243398D02*
G03*
X420662Y243398I-508J0D01*
G01*
X319345Y276624D02*
G03*
X319345Y276624I-508J0D01*
G01*
X355962Y330794D02*
G03*
X355962Y330794I-508J0D01*
G01*
X-71028Y-480266D02*
G03*
X-71028Y-480266I-508J0D01*
G01*
X18103Y-421744D02*
G03*
X18103Y-421744I-508J0D01*
G01*
X37642Y-484142D02*
G03*
X37642Y-484142I-508J0D01*
G01*
X111515Y-407254D02*
G03*
X111515Y-407254I-508J0D01*
G01*
X144449Y-463739D02*
G03*
X144449Y-463739I-508J0D01*
G01*
X199072Y-372796D02*
G03*
X199072Y-372796I-221J458D01*
G01*
X244038Y-420078D02*
G03*
X244038Y-420078I-508J0D01*
G01*
X273435Y401601D02*
G03*
X273435Y401601I-508J0D01*
G01*
X167736Y387573D02*
G03*
X167736Y387573I-508J0D01*
G01*
X177221Y452266D02*
G03*
X177221Y452266I-508J0D01*
G01*
X77294Y415069D02*
G03*
X77294Y415069I-508J0D01*
G01*
X72145Y480251D02*
G03*
X72145Y480251I-508J0D01*
G01*
X-16999Y421748D02*
G03*
X-16999Y421748I-508J0D01*
G01*
X-36524Y484150D02*
G03*
X-36524Y484150I-508J0D01*
G01*
X331414Y-355350D02*
G03*
X331414Y-355350I-508J0D01*
G01*
X341226Y-249177D02*
G03*
X341226Y-249177I-508J0D01*
G01*
X402194Y-272801D02*
G03*
X402194Y-272801I-508J0D01*
G01*
X388133Y-167106D02*
G03*
X388133Y-167106I-508J0D01*
G01*
X452830Y-176571D02*
G03*
X452830Y-176571I-508J0D01*
G01*
X415601Y-76656D02*
G03*
X415601Y-76656I-508J0D01*
G01*
D54*
X419399Y-23553D02*
X430382Y-24170D01*
X558000Y-50500D02*
Y-34500D01*
X542000Y-50500D02*
Y-34500D01*
X543750Y42000D02*
Y43000D01*
X556250Y42000D02*
Y43000D01*
X-119333Y-414213D02*
X-116287Y-403643D01*
X-398247Y-164960D02*
X-388085Y-160750D01*
X-377217Y208612D02*
X-367703Y203091D01*
X279906Y313214D02*
X287235Y321417D01*
X243077Y-342584D02*
X249442Y-351556D01*
X-72205Y424970D02*
X-70363Y414125D01*
D55*
X444834Y-64023D02*
X478622Y-67816D01*
X447958Y-36198D02*
X481746Y-39991D01*
X-416525Y-245327D02*
X-387741Y-227230D01*
X-401622Y-269031D02*
X-372838Y-250935D01*
X-349118Y-296468D02*
X-322541Y-275263D01*
X-366581Y-274581D02*
X-340005Y-253376D01*
X-351487Y-331866D02*
X-327451Y-307819D01*
X-331682Y-351660D02*
X-307647Y-327612D01*
X-274389Y-366725D02*
X-253198Y-340137D01*
X-296285Y-349273D02*
X-275094Y-322685D01*
X-268821Y-401763D02*
X-250740Y-372970D01*
X-245109Y-416653D02*
X-227027Y-387860D01*
X-185899Y-418591D02*
X-171156Y-387954D01*
X-211130Y-406449D02*
X-196387Y-375812D01*
X-172673Y-451511D02*
X-161453Y-419416D01*
X-146242Y-460751D02*
X-135022Y-428656D01*
X-451493Y172721D02*
X-419399Y161497D01*
X-460736Y146290D02*
X-428642Y135067D01*
X-449454Y88134D02*
X-416305Y80574D01*
X-443229Y115433D02*
X-410080Y107874D01*
X-478608Y67916D02*
X-444821Y64117D01*
X-481737Y40092D02*
X-447950Y36292D01*
X-457797Y-14096D02*
X-423797Y-14089D01*
X-457803Y13904D02*
X-423803Y13911D01*
X-481721Y-40294D02*
X-447935Y-36480D01*
X-478579Y-68117D02*
X-444794Y-64303D01*
X-443181Y-115618D02*
X-410035Y-108045D01*
X-449417Y-88322D02*
X-416272Y-80749D01*
X-460674Y-146483D02*
X-428585Y-135246D01*
X-451420Y-172910D02*
X-419331Y-161673D01*
X-146435Y460690D02*
X-135202Y428599D01*
X-172863Y451438D02*
X-161629Y419348D01*
X-211300Y406361D02*
X-196544Y375730D01*
X-186075Y418513D02*
X-171319Y387882D01*
X-245283Y416551D02*
X-227190Y387765D01*
X-268989Y401651D02*
X-250896Y372864D01*
X-296432Y349149D02*
X-275229Y322570D01*
X-274543Y366610D02*
X-253340Y340031D01*
X-331830Y351521D02*
X-307784Y327483D01*
X-351626Y331719D02*
X-327580Y307681D01*
X-366697Y274428D02*
X-340111Y253233D01*
X-349242Y296322D02*
X-322657Y275128D01*
X-401735Y268863D02*
X-372943Y250779D01*
X-416628Y245152D02*
X-387836Y227068D01*
X447943Y36386D02*
X481729Y40193D01*
X444808Y64210D02*
X478594Y68017D01*
X410057Y107959D02*
X443205Y115526D01*
X416289Y80662D02*
X449436Y88228D01*
X428613Y135157D02*
X460705Y146387D01*
X419365Y161585D02*
X451457Y172815D01*
X375750Y196505D02*
X406383Y211258D01*
X387900Y171278D02*
X418532Y186031D01*
X387789Y227149D02*
X416576Y245239D01*
X372891Y250857D02*
X401679Y268947D01*
X322599Y275195D02*
X349180Y296395D01*
X340058Y253305D02*
X366639Y274504D01*
X327516Y307750D02*
X351556Y331793D01*
X307716Y327548D02*
X331756Y351591D01*
X-67866Y-478615D02*
X-64070Y-444828D01*
X-40041Y-481741D02*
X-36245Y-447954D01*
X14133Y-423796D02*
X14144Y-457796D01*
X-13867Y-423804D02*
X-13856Y-457804D01*
X36527Y-447931D02*
X40344Y-481716D01*
X64349Y-444787D02*
X68167Y-478572D01*
X108088Y-410024D02*
X115665Y-443169D01*
X80792Y-416263D02*
X88369Y-449408D01*
X135291Y-428571D02*
X146531Y-460659D01*
X161717Y-419314D02*
X172957Y-451402D01*
X196623Y-375689D02*
X211385Y-406316D01*
X171400Y-387846D02*
X186162Y-418474D01*
X227271Y-387717D02*
X245370Y-416499D01*
X250974Y-372812D02*
X269073Y-401594D01*
X250818Y372917D02*
X268905Y401707D01*
X227109Y387812D02*
X245196Y416602D01*
X171237Y387918D02*
X185987Y418552D01*
X196465Y375771D02*
X211215Y406405D01*
X161541Y419382D02*
X172768Y451475D01*
X135112Y428627D02*
X146339Y460720D01*
X80618Y416297D02*
X88181Y449445D01*
X107916Y410069D02*
X115479Y443217D01*
X64163Y444814D02*
X67967Y478601D01*
X36339Y447947D02*
X40142Y481733D01*
X-14048Y457799D02*
X-14044Y423798D01*
X13952Y457802D02*
X13956Y423801D01*
X-40243Y481725D02*
X-36433Y447939D01*
X-68067Y478587D02*
X-64256Y444801D01*
X307853Y-327419D02*
X331903Y-351452D01*
X327645Y-307613D02*
X351695Y-331646D01*
X340164Y-253162D02*
X366754Y-274351D01*
X322714Y-275060D02*
X349304Y-296249D01*
X372996Y-250701D02*
X401791Y-268779D01*
X387884Y-226987D02*
X416679Y-245065D01*
X387972Y-171115D02*
X418610Y-185856D01*
X375833Y-196347D02*
X406471Y-211087D01*
X419432Y-161409D02*
X451529Y-172626D01*
X428670Y-134977D02*
X460766Y-146194D01*
X416322Y-80487D02*
X449473Y-88040D01*
X410103Y-107788D02*
X443253Y-115340D01*
D56*
X-326250Y0D02*
X-262500D01*
X-390000D02*
X-326250D01*
X-390000D02*
X-377460Y-4180D01*
X-390000Y0D02*
X-377460Y4180D01*
X-252700Y252700D02*
X-137704Y137704D01*
X-367696Y367696D02*
X-252700Y252700D01*
X-367696Y367696D02*
X-360511Y353327D01*
X-367696Y367696D02*
X-353327Y360511D01*
D57*
X703810Y-99000D02*
X752540D01*
X703810Y101000D02*
X752540D01*
X750000Y-99000D02*
Y-41809D01*
Y38797D02*
Y101000D01*
Y-99000D02*
X755080Y-83760D01*
X744920D02*
X750000Y-99000D01*
X744920Y85760D02*
X750000Y101000D01*
X755080Y85760D01*
X700000Y-152540D02*
Y-102810D01*
X510489Y-152540D02*
Y-102808D01*
X641887Y-150000D02*
X700000D01*
X510489D02*
X563522D01*
X684760Y-144920D02*
X700000Y-150000D01*
X684760Y-155080D02*
X700000Y-150000D01*
X510489D02*
X525729Y-155080D01*
X510489Y-150000D02*
X525729Y-144920D01*
X-565040Y-520000D02*
X-3810D01*
X-565040Y520000D02*
X-3810D01*
X-562500Y-520000D02*
Y-50264D01*
Y45184D02*
Y520000D01*
Y-520000D02*
X-557420Y-504760D01*
X-567580D02*
X-562500Y-520000D01*
X-567580Y504760D02*
X-562500Y520000D01*
X-557420Y504760D01*
X700000Y-562540D02*
Y-102810D01*
X-520000Y-562540D02*
Y-3810D01*
X135183Y-560000D02*
X700000D01*
X-520000D02*
X39736D01*
X684760Y-554920D02*
X700000Y-560000D01*
X684760Y-565080D02*
X700000Y-560000D01*
X-520000D02*
X-504760Y-565080D01*
X-520000Y-560000D02*
X-504760Y-554920D01*
M02*
