G04 Layer_Color=16711935*
%FSLAX44Y44*%
%MOMM*%
G71*
G01*
G75*
%ADD62C,0.1270*%
%ADD116C,0.1000*%
D62*
X476064Y32520D02*
G03*
X476064Y32520I-11000J0D01*
G01*
D02*
G03*
X476064Y32520I-11000J0D01*
G01*
X420168Y-91648D02*
G03*
X420168Y-91648I11000J0D01*
G01*
D02*
G03*
X420168Y-91648I11000J0D01*
G01*
X449085Y-159450D02*
G03*
X449085Y-159450I-11000J0D01*
G01*
D02*
G03*
X449085Y-159450I-11000J0D01*
G01*
X378203Y-206943D02*
G03*
X378203Y-206943I11000J0D01*
G01*
D02*
G03*
X378203Y-206943I11000J0D01*
G01*
X388057Y-272495D02*
G03*
X388057Y-272495I-10893J-1531D01*
G01*
D02*
G03*
X388057Y-272495I-10893J-1531D01*
G01*
X328085Y-306205D02*
G03*
X328085Y-306205I-11000J0D01*
G01*
D02*
G03*
X328085Y-306205I-11000J0D01*
G01*
X297890Y-367202D02*
G03*
X297890Y-367202I-11000J0D01*
G01*
D02*
G03*
X297890Y-367202I-11000J0D01*
G01*
X209400Y-381744D02*
G03*
X209400Y-381744I11000J0D01*
G01*
D02*
G03*
X209400Y-381744I11000J0D01*
G01*
X185642Y-432253D02*
G03*
X185642Y-432253I-11000J0D01*
G01*
D02*
G03*
X185642Y-432253I-11000J0D01*
G01*
X95666Y-428474D02*
G03*
X95666Y-428474I10973J767D01*
G01*
D02*
G03*
X95666Y-428474I10973J767D01*
G01*
X59731Y-463646D02*
G03*
X59731Y-463646I-11000J0D01*
G01*
D02*
G03*
X59731Y-463646I-11000J0D01*
G01*
X-26384Y-440515D02*
G03*
X-26384Y-440515I11000J-16D01*
G01*
Y-440515D02*
G03*
X-26384Y-440515I11000J-16D01*
G01*
X-69955Y-459117D02*
G03*
X-69955Y-459117I-11000J0D01*
G01*
D02*
G03*
X-69955Y-459117I-11000J0D01*
G01*
X-146974Y-416939D02*
G03*
X-146974Y-416939I10760J-2287D01*
G01*
Y-416939D02*
G03*
X-146974Y-416939I10760J-2287D01*
G01*
X-193369Y-419018D02*
G03*
X-193369Y-419018I-11000J0D01*
G01*
D02*
G03*
X-193369Y-419018I-11000J0D01*
G01*
X-283953Y-327578D02*
G03*
X-283953Y-327578I-11000J0D01*
G01*
D02*
G03*
X-283953Y-327578I-11000J0D01*
G01*
X-346130Y-299668D02*
G03*
X-346130Y-299668I-11000J0D01*
G01*
D02*
G03*
X-346130Y-299668I-11000J0D01*
G01*
X-384579Y-231301D02*
G03*
X-384579Y-231301I10760J-2287D01*
G01*
Y-231301D02*
G03*
X-384579Y-231301I10760J-2287D01*
G01*
X-414895Y-189621D02*
G03*
X-414895Y-189621I-11000J0D01*
G01*
D02*
G03*
X-414895Y-189621I-11000J0D01*
G01*
X-412724Y-121501D02*
G03*
X-412724Y-121501I-11000J0D01*
G01*
D02*
G03*
X-412724Y-121501I-11000J0D01*
G01*
X-450663Y-64882D02*
G03*
X-450663Y-64882I-11000J0D01*
G01*
D02*
G03*
X-450663Y-64882I-11000J0D01*
G01*
X-429800Y0D02*
G03*
X-429800Y0I-11000J0D01*
G01*
D02*
G03*
X-429800Y0I-11000J0D01*
G01*
X-450663Y64882D02*
G03*
X-450663Y64882I-11000J0D01*
G01*
D02*
G03*
X-450663Y64882I-11000J0D01*
G01*
X-412724Y121501D02*
G03*
X-412724Y121501I-11000J0D01*
G01*
D02*
G03*
X-412724Y121501I-11000J0D01*
G01*
X-414895Y189621D02*
G03*
X-414895Y189621I-11000J0D01*
G01*
D02*
G03*
X-414895Y189621I-11000J0D01*
G01*
X-362820Y233588D02*
G03*
X-362820Y233588I-11000J0D01*
G01*
D02*
G03*
X-362820Y233588I-11000J0D01*
G01*
X-346130Y299668D02*
G03*
X-346130Y299668I-11000J0D01*
G01*
D02*
G03*
X-346130Y299668I-11000J0D01*
G01*
X-305926Y328346D02*
G03*
X-305926Y328346I10973J-767D01*
G01*
D02*
G03*
X-305926Y328346I10973J-767D01*
G01*
X-249696Y386497D02*
G03*
X-249696Y386497I-11000J0D01*
G01*
D02*
G03*
X-249696Y386497I-11000J0D01*
G01*
X-147215Y419226D02*
G03*
X-147215Y419226I11000J0D01*
G01*
D02*
G03*
X-147215Y419226I11000J0D01*
G01*
X-69955Y459117D02*
G03*
X-69955Y459117I-11000J0D01*
G01*
D02*
G03*
X-69955Y459117I-11000J0D01*
G01*
X-26357Y441299D02*
G03*
X-26357Y441299I10973J-767D01*
G01*
Y441299D02*
G03*
X-26357Y441299I10973J-767D01*
G01*
X59731Y463646D02*
G03*
X59731Y463646I-11000J0D01*
G01*
D02*
G03*
X59731Y463646I-11000J0D01*
G01*
X95666Y428474D02*
G03*
X95666Y428474I10973J-767D01*
G01*
D02*
G03*
X95666Y428474I10973J-767D01*
G01*
X185642Y432253D02*
G03*
X185642Y432253I-11000J0D01*
G01*
D02*
G03*
X185642Y432253I-11000J0D01*
G01*
X209400Y381744D02*
G03*
X209400Y381744I11000J0D01*
G01*
D02*
G03*
X209400Y381744I11000J0D01*
G01*
X298021Y367371D02*
G03*
X298021Y367371I-11000J0D01*
G01*
D02*
G03*
X298021Y367371I-11000J0D01*
G01*
X328085Y306205D02*
G03*
X328085Y306205I-11000J0D01*
G01*
D02*
G03*
X328085Y306205I-11000J0D01*
G01*
X388137Y273258D02*
G03*
X388137Y273258I-10973J767D01*
G01*
D02*
G03*
X388137Y273258I-10973J767D01*
G01*
X378230Y206176D02*
G03*
X378230Y206176I10973J767D01*
G01*
Y206176D02*
G03*
X378230Y206176I10973J767D01*
G01*
X427085Y159450D02*
G03*
X427085Y159450I11000J0D01*
G01*
D02*
G03*
X427085Y159450I11000J0D01*
G01*
X420168Y91648D02*
G03*
X420168Y91648I11000J0D01*
G01*
D02*
G03*
X420168Y91648I11000J0D01*
G01*
X477646Y19769D02*
X482749Y25639D01*
X446630Y45266D02*
X481545Y47707D01*
X483498Y19775D01*
X448584Y17334D02*
X483498Y19775D01*
X446630Y45266D02*
X448584Y17334D01*
X477646Y19769D02*
X482749Y25639D01*
X446630Y45266D02*
X481545Y47707D01*
X483498Y19775D01*
X448584Y17334D02*
X483498Y19775D01*
X446630Y45266D02*
X448584Y17334D01*
X416064Y-80158D02*
X422588Y-75922D01*
X411139Y-101703D02*
X445374Y-108980D01*
X411139Y-101703D02*
X416961Y-74315D01*
X451196Y-81592D01*
X445374Y-108980D02*
X451196Y-81592D01*
X416064Y-80158D02*
X422588Y-75922D01*
X411139Y-101703D02*
X445374Y-108980D01*
X411139Y-101703D02*
X416961Y-74315D01*
X451196Y-81592D01*
X445374Y-108980D02*
X451196Y-81592D01*
X444393Y-176216D02*
X451442Y-172929D01*
X426428Y-140309D02*
X459318Y-152280D01*
X449741Y-178591D02*
X459318Y-152280D01*
X416852Y-166620D02*
X449741Y-178591D01*
X416852Y-166620D02*
X426428Y-140309D01*
X444393Y-176216D02*
X451442Y-172929D01*
X426428Y-140309D02*
X459318Y-152280D01*
X449741Y-178591D02*
X459318Y-152280D01*
X416852Y-166620D02*
X449741Y-178591D01*
X416852Y-166620D02*
X426428Y-140309D01*
X377852Y-191736D02*
X385290Y-189462D01*
X367179Y-211089D02*
X398082Y-227520D01*
X367179Y-211089D02*
X380324Y-186366D01*
X411227Y-202798D01*
X398082Y-227520D02*
X411227Y-202798D01*
X377852Y-191736D02*
X385290Y-189462D01*
X367179Y-211089D02*
X398082Y-227520D01*
X367179Y-211089D02*
X380324Y-186366D01*
X411227Y-202798D01*
X398082Y-227520D02*
X411227Y-202798D01*
X378606Y-291881D02*
X386288Y-290665D01*
X371235Y-252413D02*
X399551Y-272985D01*
X383092Y-295638D02*
X399551Y-272985D01*
X354777Y-275065D02*
X383092Y-295638D01*
X354777Y-275065D02*
X371235Y-252413D01*
X378606Y-291881D02*
X386288Y-290665D01*
X371235Y-252413D02*
X399551Y-272985D01*
X383092Y-295638D02*
X399551Y-272985D01*
X354777Y-275065D02*
X383092Y-295638D01*
X354777Y-275065D02*
X371235Y-252413D01*
X310365Y-288458D02*
X318142Y-288323D01*
X294771Y-304120D02*
X319948Y-328433D01*
X294771Y-304120D02*
X314222Y-283978D01*
X339399Y-308291D01*
X319948Y-328433D02*
X339399Y-308291D01*
X310365Y-288458D02*
X318142Y-288323D01*
X294771Y-304120D02*
X319948Y-328433D01*
X294771Y-304120D02*
X314222Y-283978D01*
X339399Y-308291D01*
X319948Y-328433D02*
X339399Y-308291D01*
X283354Y-384764D02*
X291075Y-385712D01*
X287148Y-344793D02*
X308696Y-372373D01*
X286632Y-389612D02*
X308696Y-372373D01*
X265084Y-362031D02*
X286632Y-389612D01*
X265084Y-362031D02*
X287148Y-344793D01*
X283354Y-384764D02*
X291075Y-385712D01*
X287148Y-344793D02*
X308696Y-372373D01*
X286632Y-389612D02*
X308696Y-372373D01*
X265084Y-362031D02*
X286632Y-389612D01*
X265084Y-362031D02*
X287148Y-344793D01*
X218832Y-362832D02*
X226345Y-364845D01*
X199526Y-373589D02*
X217026Y-403899D01*
X199526Y-373589D02*
X223774Y-359589D01*
X241274Y-389899D01*
X217026Y-403899D02*
X241274Y-389899D01*
X218832Y-362832D02*
X226345Y-364845D01*
X199526Y-373589D02*
X217026Y-403899D01*
X199526Y-373589D02*
X223774Y-359589D01*
X241274Y-389899D01*
X217026Y-403899D02*
X241274Y-389899D01*
X166402Y-448160D02*
X173562Y-451199D01*
X181067Y-410783D02*
X194178Y-443234D01*
X168217Y-453723D02*
X194178Y-443234D01*
X155105Y-421272D02*
X168217Y-453723D01*
X155105Y-421272D02*
X181067Y-410783D01*
X166402Y-448160D02*
X173562Y-451199D01*
X181067Y-410783D02*
X194178Y-443234D01*
X168217Y-453723D02*
X194178Y-443234D01*
X155105Y-421272D02*
X168217Y-453723D01*
X155105Y-421272D02*
X181067Y-410783D01*
X110345Y-409095D02*
X117012Y-413101D01*
X88821Y-414113D02*
X97289Y-448073D01*
X88821Y-414113D02*
X115990Y-407339D01*
X124457Y-441300D01*
X97289Y-448073D02*
X124457Y-441300D01*
X110345Y-409095D02*
X117012Y-413101D01*
X88821Y-414113D02*
X97289Y-448073D01*
X88821Y-414113D02*
X115990Y-407339D01*
X124457Y-441300D01*
X97289Y-448073D02*
X124457Y-441300D01*
X36427Y-476666D02*
X42471Y-481561D01*
X60825Y-444779D02*
X64484Y-479587D01*
X36637Y-482514D02*
X64484Y-479587D01*
X32979Y-447705D02*
X36637Y-482514D01*
X32979Y-447705D02*
X60825Y-444779D01*
X36427Y-476666D02*
X42471Y-481561D01*
X60825Y-444779D02*
X64484Y-479587D01*
X36637Y-482514D02*
X64484Y-479587D01*
X32979Y-447705D02*
X36637Y-482514D01*
X32979Y-447705D02*
X60825Y-444779D01*
X-6692Y-423663D02*
X-1387Y-429351D01*
X-29986Y-457532D02*
X-28764Y-422553D01*
X-781Y-423531D01*
X-2003Y-458509D02*
X-781Y-423531D01*
X-29986Y-457532D02*
X-2003Y-458509D01*
X-6692Y-423663D02*
X-1387Y-429351D01*
X-29986Y-457532D02*
X-28764Y-422553D01*
X-781Y-423531D01*
X-2003Y-458509D02*
X-781Y-423531D01*
X-29986Y-457532D02*
X-2003Y-458509D01*
X-96371Y-468241D02*
X-91910Y-474613D01*
X-70206Y-478783D02*
X-64129Y-444314D01*
X-97781Y-473920D02*
X-70206Y-478783D01*
X-97781Y-473920D02*
X-91703Y-439452D01*
X-64129Y-444314D01*
X-96371Y-468241D02*
X-91910Y-474613D01*
X-70206Y-478783D02*
X-64129Y-444314D01*
X-97781Y-473920D02*
X-70206Y-478783D01*
X-97781Y-473920D02*
X-91703Y-439452D01*
X-64129Y-444314D01*
X-123210Y-405406D02*
X-119678Y-412337D01*
X-154937Y-431543D02*
X-144122Y-398256D01*
X-117492Y-406908D01*
X-128308Y-440195D02*
X-117492Y-406908D01*
X-154937Y-431543D02*
X-128308Y-440195D01*
X-123210Y-405406D02*
X-119678Y-412337D01*
X-154937Y-431543D02*
X-144122Y-398256D01*
X-117492Y-406908D01*
X-128308Y-440195D02*
X-117492Y-406908D01*
X-154937Y-431543D02*
X-128308Y-440195D01*
X-221703Y-423539D02*
X-219170Y-430893D01*
X-199457Y-440884D02*
X-184114Y-409426D01*
X-224623Y-428610D02*
X-199457Y-440884D01*
X-224623Y-428610D02*
X-209280Y-397152D01*
X-184114Y-409426D01*
X-221703Y-423539D02*
X-219170Y-430893D01*
X-199457Y-440884D02*
X-184114Y-409426D01*
X-224623Y-428610D02*
X-199457Y-440884D01*
X-224623Y-428610D02*
X-209280Y-397152D01*
X-184114Y-409426D01*
X-277451Y-320243D02*
X-277044Y-328010D01*
X-317067Y-331216D02*
X-293647Y-305205D01*
X-272839Y-323941D01*
X-296259Y-349951D02*
X-272839Y-323941D01*
X-317067Y-331216D02*
X-296259Y-349951D01*
X-277451Y-320243D02*
X-277044Y-328010D01*
X-317067Y-331216D02*
X-293647Y-305205D01*
X-272839Y-323941D01*
X-296259Y-349951D02*
X-272839Y-323941D01*
X-317067Y-331216D02*
X-296259Y-349951D01*
X-375482Y-304496D02*
X-374804Y-296747D01*
X-361537Y-321641D02*
X-334725Y-299143D01*
X-379535Y-300192D02*
X-361537Y-321641D01*
X-379535Y-300192D02*
X-352723Y-277694D01*
X-334725Y-299143D01*
X-375482Y-304496D02*
X-374804Y-296747D01*
X-361537Y-321641D02*
X-334725Y-299143D01*
X-379535Y-300192D02*
X-361537Y-321641D01*
X-379535Y-300192D02*
X-352723Y-277694D01*
X-334725Y-299143D01*
X-356724Y-238940D02*
X-354974Y-231361D01*
X-396079Y-230989D02*
X-366398Y-212442D01*
X-351560Y-236187D01*
X-381242Y-254735D02*
X-351560Y-236187D01*
X-396079Y-230989D02*
X-381242Y-254735D01*
X-356724Y-238940D02*
X-354974Y-231361D01*
X-396079Y-230989D02*
X-366398Y-212442D01*
X-351560Y-236187D01*
X-381242Y-254735D02*
X-351560Y-236187D01*
X-396079Y-230989D02*
X-381242Y-254735D01*
X-444867Y-189203D02*
X-442080Y-181942D01*
X-436188Y-209528D02*
X-404214Y-195292D01*
X-447576Y-183949D02*
X-436188Y-209528D01*
X-447576Y-183949D02*
X-415602Y-169713D01*
X-404214Y-195292D01*
X-444867Y-189203D02*
X-442080Y-181942D01*
X-436188Y-209528D02*
X-404214Y-195292D01*
X-447576Y-183949D02*
X-436188Y-209528D01*
X-447576Y-183949D02*
X-415602Y-169713D01*
X-404214Y-195292D01*
X-408766Y-131358D02*
X-404995Y-124555D01*
X-444405Y-112867D02*
X-410761Y-103220D01*
X-403043Y-130135D01*
X-436687Y-139782D02*
X-403043Y-130135D01*
X-444405Y-112867D02*
X-436687Y-139782D01*
X-408766Y-131358D02*
X-404995Y-124555D01*
X-444405Y-112867D02*
X-410761Y-103220D01*
X-403043Y-130135D01*
X-436687Y-139782D02*
X-403043Y-130135D01*
X-444405Y-112867D02*
X-436687Y-139782D01*
X-479785Y-59252D02*
X-475104Y-53040D01*
X-477044Y-81182D02*
X-442385Y-76311D01*
X-480941Y-53454D02*
X-477044Y-81182D01*
X-480941Y-53454D02*
X-446282Y-48583D01*
X-442385Y-76311D01*
X-479785Y-59252D02*
X-475104Y-53040D01*
X-477044Y-81182D02*
X-442385Y-76311D01*
X-480941Y-53454D02*
X-477044Y-81182D01*
X-480941Y-53454D02*
X-446282Y-48583D01*
X-442385Y-76311D01*
X-429138Y-13598D02*
X-423638Y-8098D01*
X-458300Y14000D02*
X-423300D01*
X-423300Y-14000D02*
X-423300Y14000D01*
X-458300Y-14000D02*
X-423300D01*
X-458300D02*
X-458300Y14000D01*
X-429138Y-13598D02*
X-423638Y-8098D01*
X-458300Y14000D02*
X-423300D01*
X-423300Y-14000D02*
X-423300Y14000D01*
X-458300Y-14000D02*
X-423300D01*
X-458300D02*
X-458300Y14000D01*
X-477531Y75290D02*
X-471319Y79971D01*
X-480941Y53454D02*
X-446282Y48583D01*
X-480941Y53454D02*
X-477044Y81182D01*
X-442385Y76311D01*
X-446282Y48583D02*
X-442385Y76311D01*
X-477531Y75290D02*
X-471319Y79971D01*
X-480941Y53454D02*
X-446282Y48583D01*
X-480941Y53454D02*
X-477044Y81182D01*
X-442385Y76311D01*
X-446282Y48583D02*
X-442385Y76311D01*
X-416262Y105215D02*
X-409459Y108986D01*
X-436687Y139782D02*
X-403043Y130135D01*
X-410761Y103220D02*
X-403043Y130135D01*
X-444405Y112867D02*
X-410761Y103220D01*
X-444405Y112867D02*
X-436687Y139782D01*
X-416262Y105215D02*
X-409459Y108986D01*
X-436687Y139782D02*
X-403043Y130135D01*
X-410761Y103220D02*
X-403043Y130135D01*
X-444405Y112867D02*
X-410761Y103220D01*
X-444405Y112867D02*
X-436687Y139782D01*
X-438279Y203999D02*
X-431018Y206786D01*
X-447576Y183949D02*
X-415602Y169713D01*
X-447576Y183949D02*
X-436188Y209528D01*
X-404214Y195292D01*
X-415602Y169713D02*
X-404214Y195292D01*
X-438279Y203999D02*
X-431018Y206786D01*
X-447576Y183949D02*
X-415602Y169713D01*
X-447576Y183949D02*
X-436188Y209528D01*
X-404214Y195292D01*
X-415602Y169713D02*
X-404214Y195292D01*
X-371135Y215877D02*
X-363557Y217626D01*
X-381242Y254735D02*
X-351560Y236187D01*
X-366398Y212442D02*
X-351560Y236187D01*
X-396079Y230989D02*
X-366398Y212442D01*
X-396079Y230989D02*
X-381242Y254735D01*
X-371135Y215877D02*
X-363557Y217626D01*
X-381242Y254735D02*
X-351560Y236187D01*
X-366398Y212442D02*
X-351560Y236187D01*
X-396079Y230989D02*
X-366398Y212442D01*
X-396079Y230989D02*
X-381242Y254735D01*
X-365071Y316903D02*
X-357323Y317581D01*
X-379535Y300192D02*
X-352723Y277694D01*
X-379535Y300192D02*
X-361537Y321641D01*
X-334725Y299143D01*
X-352723Y277694D02*
X-334725Y299143D01*
X-365071Y316903D02*
X-357323Y317581D01*
X-379535Y300192D02*
X-352723Y277694D01*
X-379535Y300192D02*
X-361537Y321641D01*
X-334725Y299143D01*
X-352723Y277694D02*
X-334725Y299143D01*
X-297255Y309813D02*
X-289487Y309406D01*
X-296259Y349951D02*
X-272839Y323941D01*
X-293647Y305205D02*
X-272839Y323941D01*
X-317067Y331215D02*
X-293647Y305205D01*
X-317067Y331215D02*
X-296259Y349951D01*
X-297255Y309813D02*
X-289487Y309406D01*
X-296259Y349951D02*
X-272839Y323941D01*
X-293647Y305205D02*
X-272839Y323941D01*
X-317067Y331215D02*
X-293647Y305205D01*
X-317067Y331215D02*
X-296259Y349951D01*
X-263579Y405254D02*
X-255944Y403769D01*
X-282088Y393177D02*
X-262516Y364160D01*
X-282088Y393177D02*
X-258875Y408834D01*
X-239303Y379818D01*
X-262516Y364160D02*
X-239303Y379818D01*
X-263579Y405254D02*
X-255944Y403769D01*
X-282088Y393177D02*
X-262516Y364160D01*
X-282088Y393177D02*
X-258875Y408834D01*
X-239303Y379818D01*
X-262516Y364160D02*
X-239303Y379818D01*
X-145543Y403932D02*
X-138613Y400401D01*
X-128308Y440195D02*
X-117492Y406908D01*
X-144122Y398256D02*
X-117492Y406908D01*
X-154937Y431543D02*
X-144122Y398256D01*
X-154937Y431543D02*
X-128308Y440195D01*
X-145543Y403932D02*
X-138613Y400401D01*
X-128308Y440195D02*
X-117492Y406908D01*
X-144122Y398256D02*
X-117492Y406908D01*
X-154937Y431543D02*
X-144122Y398256D01*
X-154937Y431543D02*
X-128308Y440195D01*
X-75960Y477425D02*
X-69588Y472963D01*
X-97781Y473921D02*
X-91703Y439452D01*
X-97781Y473921D02*
X-70206Y478783D01*
X-64129Y444314D01*
X-91703Y439452D02*
X-64129Y444314D01*
X-75960Y477425D02*
X-69588Y472963D01*
X-97781Y473921D02*
X-91703Y439452D01*
X-97781Y473921D02*
X-70206Y478783D01*
X-64129Y444314D01*
X-91703Y439452D02*
X-64129Y444314D01*
X-28566Y428402D02*
X-22878Y423097D01*
X-2003Y458509D02*
X-781Y423531D01*
X-28764Y422554D02*
X-781Y423531D01*
X-29986Y457532D02*
X-28764Y422554D01*
X-29986Y457532D02*
X-2003Y458509D01*
X-28566Y428402D02*
X-22878Y423097D01*
X-2003Y458509D02*
X-781Y423531D01*
X-28764Y422554D02*
X-781Y423531D01*
X-29986Y457532D02*
X-28764Y422554D01*
X-29986Y457532D02*
X-2003Y458509D01*
X58579Y479868D02*
X63474Y473823D01*
X32979Y447705D02*
X36637Y482514D01*
X64484Y479587D01*
X60825Y444779D02*
X64484Y479587D01*
X32979Y447705D02*
X60825Y444779D01*
X58579Y479868D02*
X63474Y473823D01*
X32979Y447705D02*
X36637Y482514D01*
X64484Y479587D01*
X60825Y444779D02*
X64484Y479587D01*
X32979Y447705D02*
X60825Y444779D01*
X90624Y419680D02*
X94630Y413013D01*
X115990Y407339D02*
X124457Y441300D01*
X88821Y414113D02*
X115990Y407339D01*
X88821Y414113D02*
X97289Y448073D01*
X124457Y441300D01*
X90624Y419680D02*
X94630Y413013D01*
X115990Y407339D02*
X124457Y441300D01*
X88821Y414113D02*
X115990Y407339D01*
X88821Y414113D02*
X97289Y448073D01*
X124457Y441300D01*
X188579Y445132D02*
X191618Y437972D01*
X155105Y421272D02*
X168217Y453723D01*
X194178Y443234D01*
X181066Y410783D02*
X194178Y443234D01*
X155105Y421272D02*
X181066Y410783D01*
X188579Y445132D02*
X191618Y437972D01*
X155105Y421272D02*
X168217Y453723D01*
X194178Y443234D01*
X181066Y410783D02*
X194178Y443234D01*
X155105Y421272D02*
X181066Y410783D01*
X202793Y378443D02*
X204806Y370930D01*
X223774Y359589D02*
X241274Y389899D01*
X199526Y373589D02*
X223774Y359589D01*
X199526Y373589D02*
X217026Y403899D01*
X241274Y389899D01*
X202793Y378443D02*
X204806Y370930D01*
X223774Y359589D02*
X241274Y389899D01*
X199526Y373589D02*
X223774Y359589D01*
X199526Y373589D02*
X217026Y403899D01*
X241274Y389899D01*
X303969Y375909D02*
X304917Y368189D01*
X265215Y362200D02*
X286763Y389780D01*
X308828Y372542D01*
X287279Y344961D02*
X308828Y372542D01*
X265215Y362200D02*
X287279Y344961D01*
X303969Y375909D02*
X304917Y368189D01*
X265215Y362200D02*
X286763Y389780D01*
X308828Y372542D01*
X287279Y344961D02*
X308828Y372542D01*
X265215Y362200D02*
X287279Y344961D01*
X299114Y300109D02*
X299250Y307886D01*
X314222Y283978D02*
X339399Y308291D01*
X294771Y304120D02*
X314222Y283978D01*
X294771Y304120D02*
X319948Y328433D01*
X339399Y308291D01*
X299114Y300109D02*
X299250Y307886D01*
X314222Y283978D02*
X339399Y308291D01*
X294771Y304120D02*
X314222Y283978D01*
X294771Y304120D02*
X319948Y328433D01*
X339399Y308291D01*
X394591Y269879D02*
X395808Y277562D01*
X354777Y275065D02*
X383092Y295638D01*
X399551Y272985D01*
X371235Y252413D02*
X399551Y272985D01*
X354777Y275065D02*
X371235Y252413D01*
X394591Y269879D02*
X395808Y277562D01*
X354777Y275065D02*
X383092Y295638D01*
X399551Y272985D01*
X371235Y252413D02*
X399551Y272985D01*
X354777Y275065D02*
X371235Y252413D01*
X370248Y206036D02*
X372523Y213474D01*
X380324Y186366D02*
X411227Y202798D01*
X367179Y211089D02*
X380324Y186366D01*
X367179Y211089D02*
X398082Y227520D01*
X411227Y202798D01*
X370248Y206036D02*
X372523Y213474D01*
X380324Y186366D02*
X411227Y202798D01*
X367179Y211089D02*
X380324Y186366D01*
X367179Y211089D02*
X398082Y227520D01*
X411227Y202798D01*
X453694Y150660D02*
X456981Y157710D01*
X416852Y166620D02*
X449741Y178591D01*
X459318Y152280D01*
X426428Y140309D02*
X459318Y152280D01*
X416852Y166620D02*
X426428Y140309D01*
X453694Y150660D02*
X456981Y157710D01*
X416852Y166620D02*
X449741Y178591D01*
X459318Y152280D01*
X426428Y140309D02*
X459318Y152280D01*
X416852Y166620D02*
X426428Y140309D01*
X412697Y96000D02*
X416933Y102524D01*
X416961Y74315D02*
X451196Y81592D01*
X411139Y101703D02*
X416961Y74315D01*
X411139Y101703D02*
X445374Y108980D01*
X451196Y81592D01*
X412697Y96000D02*
X416933Y102524D01*
X416961Y74315D02*
X451196Y81592D01*
X411139Y101703D02*
X416961Y74315D01*
X411139Y101703D02*
X445374Y108980D01*
X451196Y81592D01*
D116*
X-179402Y390639D02*
X-173922Y379404D01*
X-191898Y370637D02*
X-173922Y379404D01*
X-197377Y381872D02*
X-191898Y370637D01*
X-197377Y381872D02*
X-179402Y390639D01*
X589997Y76598D02*
X690997D01*
Y-81802D02*
Y76598D01*
X589997Y-81802D02*
X690997D01*
X589997D02*
Y76598D01*
X541000Y-59500D02*
X559000Y-59500D01*
X541000Y-25500D02*
X559000Y-25500D01*
X541000Y-59500D02*
X541000Y-25500D01*
X559000Y-59500D02*
X559000Y-25500D01*
X542750Y53500D02*
X557250D01*
X542750Y31500D02*
X557250D01*
Y53500D01*
X542750Y31500D02*
Y53500D01*
X417306Y-39077D02*
X429776Y-39945D01*
X417306Y-39077D02*
X418695Y-19126D01*
X431165Y-19994D01*
X429776Y-39945D02*
X431165Y-19994D01*
X-249755Y-352395D02*
X-242766Y-342032D01*
X-226185Y-353216D01*
X-233175Y-363579D02*
X-226185Y-353216D01*
X-249755Y-352395D02*
X-233175Y-363579D01*
M02*
