G04 Layer_Color=32768*
%FSLAX44Y44*%
%MOMM*%
G71*
G01*
G75*
%ADD116C,0.1000*%
%ADD117C,0.1240*%
%ADD118C,0.0500*%
D116*
X-196765Y364648D02*
X-166206Y379552D01*
X-174535Y396629D02*
X-166206Y379552D01*
X-205094Y381725D02*
X-174535Y396629D01*
X-205094Y381725D02*
X-196765Y364648D01*
X550000Y-37500D02*
X550000Y-47500D01*
X545000Y-42500D02*
X555000Y-42500D01*
X550000Y37500D02*
Y47500D01*
X545000Y42500D02*
X555000D01*
X413578Y-45835D02*
X415939Y-11917D01*
X413578Y-45835D02*
X432532Y-47154D01*
X434893Y-13237D01*
X415939Y-11917D02*
X434893Y-13237D01*
X-246751Y-335423D02*
X-218564Y-354436D01*
X-257376Y-351175D02*
X-246751Y-335423D01*
X-257376Y-351175D02*
X-229189Y-370187D01*
X-218564Y-354436D01*
D117*
X489234Y51002D02*
X491571Y17583D01*
X438558Y47458D02*
X489234Y51002D01*
X438558Y47458D02*
X440895Y14039D01*
X491571Y17583D01*
X402840Y-102751D02*
X409805Y-69983D01*
X402840Y-102751D02*
X452530Y-113312D01*
X459495Y-80544D01*
X409805Y-69983D02*
X459495Y-80544D01*
X456224Y-183877D02*
X467682Y-152397D01*
X419945Y-135023D02*
X467682Y-152397D01*
X408488Y-166502D02*
X419945Y-135023D01*
X408488Y-166502D02*
X456224Y-183877D01*
X358913Y-209808D02*
X374640Y-180229D01*
X358913Y-209808D02*
X403767Y-233657D01*
X419494Y-204078D01*
X374640Y-180229D02*
X419494Y-204078D01*
X387867Y-302506D02*
X407558Y-275404D01*
X366460Y-245545D02*
X407558Y-275404D01*
X346769Y-272647D02*
X366460Y-245545D01*
X346769Y-272647D02*
X387867Y-302506D01*
X287178Y-300610D02*
X310449Y-276512D01*
X287178Y-300610D02*
X323721Y-335899D01*
X346992Y-311801D01*
X310449Y-276512D02*
X346992Y-311801D01*
X289328Y-397530D02*
X315727Y-376905D01*
X284451Y-336874D02*
X315727Y-376905D01*
X258053Y-357499D02*
X284451Y-336874D01*
X258053Y-357499D02*
X289328Y-397530D01*
X193194Y-368122D02*
X222206Y-351372D01*
X193194Y-368122D02*
X218594Y-412116D01*
X247606Y-395366D01*
X222206Y-351372D02*
X247606Y-395366D01*
X168626Y-462078D02*
X199687Y-449529D01*
X180657Y-402428D02*
X199687Y-449529D01*
X149596Y-414977D02*
X180657Y-402428D01*
X149596Y-414977D02*
X168626Y-462078D01*
X84242Y-407113D02*
X116747Y-399009D01*
X84242Y-407113D02*
X96532Y-456404D01*
X129037Y-448300D01*
X116747Y-399009D02*
X129037Y-448300D01*
X34728Y-490658D02*
X68044Y-487156D01*
X62734Y-436634D02*
X68044Y-487156D01*
X29418Y-440136D02*
X62734Y-436634D01*
X29418Y-440136D02*
X34728Y-490658D01*
X-31237Y-414562D02*
X2243Y-415732D01*
X-33010Y-465331D02*
X-31237Y-414562D01*
X-33010Y-465331D02*
X470Y-466501D01*
X2243Y-415732D01*
X-101861Y-481223D02*
X-68870Y-487040D01*
X-60049Y-437012D01*
X-93040Y-431195D02*
X-60049Y-437012D01*
X-101861Y-481223D02*
X-93040Y-431195D01*
X-144296Y-389893D02*
X-112436Y-400245D01*
X-159994Y-438207D02*
X-144296Y-389893D01*
X-159994Y-438207D02*
X-128133Y-448559D01*
X-112436Y-400245D01*
X-230558Y-434504D02*
X-200448Y-449190D01*
X-178179Y-403531D01*
X-208289Y-388846D02*
X-178179Y-403531D01*
X-230558Y-434504D02*
X-208289Y-388846D01*
X-290404Y-297494D02*
X-265509Y-319910D01*
X-324396Y-335246D02*
X-290404Y-297494D01*
X-324396Y-335246D02*
X-299501Y-357662D01*
X-265509Y-319910D01*
X-387354Y-303163D02*
X-365821Y-328826D01*
X-326906Y-296172D01*
X-348439Y-270509D02*
X-326906Y-296172D01*
X-387354Y-303163D02*
X-348439Y-270509D01*
X-361155Y-205924D02*
X-343403Y-234333D01*
X-404236Y-232843D02*
X-361155Y-205924D01*
X-404236Y-232843D02*
X-386484Y-261253D01*
X-343403Y-234333D01*
X-455912Y-184650D02*
X-442286Y-215254D01*
X-395878Y-194591D01*
X-409504Y-163988D02*
X-395878Y-194591D01*
X-455912Y-184650D02*
X-409504Y-163988D01*
X-403925Y-98399D02*
X-394691Y-130601D01*
X-452757Y-112401D02*
X-403925Y-98399D01*
X-452757Y-112401D02*
X-443523Y-144603D01*
X-394691Y-130601D01*
X-489147Y-51831D02*
X-484485Y-85005D01*
X-434179Y-77934D01*
X-438841Y-44760D02*
X-434179Y-77934D01*
X-489147Y-51831D02*
X-438841Y-44760D01*
X-415400Y16750D02*
X-415400Y-16750D01*
X-466200Y16750D02*
X-415400D01*
X-466200D02*
X-466200Y-16750D01*
X-415400D01*
X-489147Y51831D02*
X-484485Y85005D01*
X-489147Y51831D02*
X-438841Y44760D01*
X-434179Y77934D01*
X-484485Y85005D02*
X-434179Y77934D01*
X-403925Y98399D02*
X-394691Y130601D01*
X-443523Y144603D02*
X-394691Y130601D01*
X-452757Y112401D02*
X-443523Y144603D01*
X-452757Y112401D02*
X-403925Y98399D01*
X-455912Y184650D02*
X-442286Y215254D01*
X-455912Y184650D02*
X-409504Y163988D01*
X-395878Y194591D01*
X-442286Y215254D02*
X-395878Y194591D01*
X-361155Y205924D02*
X-343403Y234333D01*
X-386484Y261253D02*
X-343403Y234333D01*
X-404236Y232844D02*
X-386484Y261253D01*
X-404236Y232844D02*
X-361155Y205924D01*
X-387354Y303163D02*
X-365821Y328826D01*
X-387354Y303163D02*
X-348439Y270510D01*
X-326906Y296172D01*
X-365821Y328826D02*
X-326906Y296172D01*
X-290405Y297494D02*
X-265509Y319910D01*
X-299501Y357662D02*
X-265509Y319910D01*
X-324396Y335246D02*
X-299501Y357662D01*
X-324396Y335246D02*
X-290405Y297494D01*
X-288786Y398188D02*
X-261013Y416921D01*
X-288786Y398188D02*
X-260379Y356073D01*
X-232606Y374806D01*
X-261013Y416921D02*
X-232606Y374806D01*
X-144296Y389893D02*
X-112435Y400245D01*
X-128134Y448559D02*
X-112435Y400245D01*
X-159994Y438207D02*
X-128134Y448559D01*
X-159994Y438207D02*
X-144296Y389893D01*
X-101861Y481223D02*
X-68870Y487040D01*
X-101861Y481223D02*
X-93040Y431195D01*
X-60049Y437012D01*
X-68870Y487040D02*
X-60049Y437012D01*
X-31237Y414562D02*
X2243Y415732D01*
X470Y466501D02*
X2243Y415732D01*
X-33010Y465331D02*
X470Y466501D01*
X-33010Y465331D02*
X-31237Y414562D01*
X34728Y490658D02*
X68044Y487156D01*
X29418Y440136D02*
X34728Y490658D01*
X29418Y440136D02*
X62734Y436634D01*
X68044Y487156D01*
X84242Y407113D02*
X116747Y399009D01*
X129037Y448300D01*
X96532Y456404D02*
X129037Y448300D01*
X84242Y407113D02*
X96532Y456404D01*
X168626Y462078D02*
X199687Y449529D01*
X149596Y414977D02*
X168626Y462078D01*
X149596Y414977D02*
X180657Y402428D01*
X199687Y449529D01*
X193194Y368122D02*
X222206Y351372D01*
X247606Y395366D01*
X218594Y412116D02*
X247606Y395366D01*
X193194Y368122D02*
X218594Y412116D01*
X289460Y397698D02*
X315858Y377074D01*
X258184Y357668D02*
X289460Y397698D01*
X258184Y357668D02*
X284583Y337043D01*
X315858Y377074D01*
X287178Y300610D02*
X310449Y276512D01*
X346992Y311801D01*
X323721Y335899D02*
X346992Y311801D01*
X287178Y300610D02*
X323721Y335899D01*
X387867Y302506D02*
X407558Y275404D01*
X346769Y272647D02*
X387867Y302506D01*
X346769Y272647D02*
X366460Y245545D01*
X407558Y275404D01*
X358913Y209808D02*
X374640Y180229D01*
X419494Y204078D01*
X403767Y233657D02*
X419494Y204078D01*
X358913Y209808D02*
X403767Y233657D01*
X456224Y183877D02*
X467682Y152397D01*
X408488Y166502D02*
X456224Y183877D01*
X408488Y166502D02*
X419945Y135023D01*
X467682Y152397D01*
X402840Y102751D02*
X409805Y69983D01*
X459495Y80544D01*
X452530Y113312D02*
X459495Y80544D01*
X402840Y102751D02*
X452530Y113312D01*
D118*
X588000Y78800D02*
X693000D01*
Y-84200D02*
Y78800D01*
X588000Y-84200D02*
X693000D01*
X588000D02*
Y78800D01*
X538500Y-65500D02*
X561500D01*
X538500Y-19500D02*
X561500D01*
X538500D02*
X538500Y-65500D01*
X561500Y-19500D02*
X561500Y-65500D01*
X540000Y60000D02*
X560000D01*
X540000Y25000D02*
X560000D01*
Y60000D01*
X540000Y25000D02*
Y60000D01*
M02*
